<svg width="135" height="129" viewBox="0 0 135 129" fill="none" xmlns="http://www.w3.org/2000/svg">
<path d="M44.8898 3.50544C49.3361 3.50544 53.0218 4.03126 55.9469 5.08289C58.8721 6.01767 61.2708 7.24456 63.1429 8.76359C65.483 10.6332 67.1211 12.678 68.0571 14.8981C69.1102 17.0014 69.6367 18.9878 69.6367 20.8573C69.6367 23.7785 68.5837 26.0571 66.4775 27.6929C64.4884 29.3288 62.2653 30.1467 59.8082 30.1467C57.468 30.1467 55.3619 29.3872 53.4898 27.8682C51.6177 26.3492 50.6816 24.1875 50.6816 21.3832C50.6816 18.8125 51.5592 16.6508 53.3143 14.8981C55.0694 13.0285 57.2925 11.9769 59.9837 11.7432C59.5156 10.2242 58.0531 8.93886 55.5959 7.88723C53.2558 6.71875 50.2721 6.13451 46.6449 6.13451C40.6775 6.13451 35.7633 7.94565 31.902 11.5679C28.1578 15.0734 26.2857 20.2147 26.2857 26.9919C26.2857 30.2636 26.8707 33.5938 28.0408 36.9823C29.3279 40.3709 31.7265 43.7011 35.2367 46.9728C37.2259 46.6223 39.2735 46.3886 41.3796 46.2717C43.4857 46.038 45.0653 45.9212 46.1184 45.9212C50.7986 45.9212 53.1388 47.2649 53.1388 49.9524C53.1388 51.0041 52.6707 51.822 51.7347 52.4062C50.9156 52.9905 49.7456 53.2826 48.2245 53.2826C46.0014 53.2826 43.6612 52.8152 41.2041 51.8804C38.7469 50.8288 36.8163 50.0109 35.4122 49.4266C28.6259 51.413 23.1265 54.6848 18.9143 59.2419C14.702 63.6821 12.5959 69.9918 12.5959 78.1712C12.5959 86.2337 14.702 93.0693 18.9143 98.678C23.1265 104.287 28.7429 108.61 35.7633 111.648C42.9007 114.569 50.8571 116.03 59.6327 116.03C65.834 116.03 71.6844 115.329 77.1837 113.927C82.8 112.408 87.7143 110.246 91.9265 107.442C96.2558 104.637 99.649 101.307 102.106 97.4511C104.563 93.4783 105.792 88.9796 105.792 83.9552C105.792 81.735 105.324 78.9307 104.388 75.5421C103.452 72.0367 101.521 68.6481 98.5959 65.3764C95.6707 61.9878 91.166 59.3587 85.0816 57.4891L87.1878 55.7364C95.7293 58.3071 101.814 62.4552 105.441 68.1807C109.068 73.7894 110.882 80.0992 110.882 87.1101C110.882 94.1209 108.776 100.84 104.563 107.266C100.351 113.693 94.2667 118.951 86.3102 123.041C78.3538 127.014 68.7007 129 57.351 129C47.2884 129 37.9279 127.247 29.2694 123.742C20.6109 120.236 13.649 115.212 8.38368 108.668C3.11837 102.125 0.485718 94.3546 0.485718 85.3573C0.485718 79.0476 1.71429 73.6726 4.17143 69.2323C6.62857 64.6753 9.67075 60.9361 13.298 58.0149C16.9252 55.0938 20.5524 52.8736 24.1796 51.3546C27.8068 49.7188 30.732 48.6087 32.9551 48.0245C27.1048 45.4538 22.6585 42.1236 19.6163 38.034C16.6912 33.9443 15.2286 29.7378 15.2286 25.4144C15.2286 22.6101 15.8721 19.9226 17.1592 17.3519C18.4463 14.6644 20.3184 12.269 22.7755 10.1658C25.2327 8.0625 28.2748 6.42663 31.902 5.25815C35.6463 4.08968 39.9755 3.50544 44.8898 3.50544ZM108.776 0C116.03 0 122.114 2.10326 127.029 6.30978C131.943 10.3995 134.4 16.1834 134.4 23.6617C134.4 29.6209 132.762 34.6454 129.486 38.7351C126.327 42.7079 122.407 45.8628 117.727 48.1997C115.035 49.4851 111.467 50.8872 107.02 52.4062C102.691 53.9253 98.0109 55.4443 92.9796 56.9633C88.0653 58.4823 83.3265 60.0014 78.7633 61.5204C74.317 62.9225 70.6898 64.1494 67.8816 65.2011C63.5524 66.8369 59.8667 68.8818 56.8245 71.3356C53.8993 73.6725 52.4367 76.7106 52.4367 80.4497C52.4367 83.4878 53.3143 86.0584 55.0694 88.1617C56.8245 90.2649 58.9306 91.8424 61.3878 92.894C63.9619 93.9456 66.3605 94.4715 68.5837 94.4715C70.2218 94.4715 72.2694 94.1793 74.7265 93.5951C77.3007 92.894 78.7633 91.9008 79.1143 90.6155C77.2422 90.2649 75.3701 89.447 73.498 88.1617C71.7429 86.7595 70.8653 84.5978 70.8653 81.6766C70.8653 78.8723 71.8014 76.6522 73.6735 75.0163C75.5456 73.3804 77.8272 72.5625 80.5184 72.5625C83.3265 72.5625 85.5497 73.4389 87.1878 75.1916C88.9429 76.9443 89.8204 79.2228 89.8204 82.0272C89.8204 85.2989 88.7088 88.1033 86.4857 90.4402C84.3796 92.6603 81.6884 94.3546 78.4122 95.5231C75.2531 96.5747 72.0939 97.1005 68.9347 97.1005C65.6585 97.1005 62.3238 96.3995 58.9306 94.9973C55.5374 93.5951 52.7293 91.4334 50.5061 88.5122C48.283 85.4742 47.1714 81.5014 47.1714 76.5938C47.1714 70.5177 49.2191 65.4348 53.3143 61.3451C57.4095 57.1386 63.4354 53.6916 71.3918 51.0041C74.902 49.8356 79.1728 48.5503 84.2041 47.1481C89.2354 45.7459 94.3837 44.2269 99.649 42.591C105.031 40.9552 109.887 39.144 114.216 37.1576C120.067 34.4701 124.045 31.7242 126.151 28.9198C128.257 26.1155 129.31 23.2527 129.31 20.3315C129.31 15.3071 127.263 11.1005 123.167 7.71195C119.189 4.32337 114.45 2.62908 108.951 2.62908C107.547 2.62908 106.377 2.74593 105.441 2.97962C104.505 3.21332 103.92 3.62228 103.686 4.20652C105.324 5.02445 106.552 6.19293 107.371 7.71195C108.19 9.23098 108.6 10.75 108.6 12.269C108.6 14.7228 107.605 16.7677 105.616 18.4035C103.744 20.0394 101.463 20.8573 98.7714 20.8573C96.5483 20.8573 94.4422 20.1562 92.4531 18.7541C90.4639 17.2351 89.4694 15.0149 89.4694 12.0938C89.4694 9.05571 90.4639 6.66033 92.4531 4.90761C94.5592 3.15489 97.0748 1.92799 100 1.2269C103.042 0.408966 105.967 0 108.776 0Z" fill="url(#paint0_linear)"/>
<defs>
<linearGradient id="paint0_linear" x1="68.0572" y1="43.6143" x2="67.4429" y2="129" gradientUnits="userSpaceOnUse">
<stop stop-color="#DC8989"/>
<stop offset="1" stop-color="#4C466D"/>
</linearGradient>
</defs>
</svg>
