<svg width="18" height="18" viewBox="0 0 18 18" fill="none" xmlns="http://www.w3.org/2000/svg">
<path d="M7.33342 9.83335H1.50008C1.27907 9.83335 1.06711 9.92115 0.910826 10.0774C0.754545 10.2337 0.666748 10.4457 0.666748 10.6667V16.5C0.666748 16.721 0.754545 16.933 0.910826 17.0893C1.06711 17.2456 1.27907 17.3334 1.50008 17.3334H7.33342C7.55443 17.3334 7.76639 17.2456 7.92267 17.0893C8.07895 16.933 8.16675 16.721 8.16675 16.5V10.6667C8.16675 10.4457 8.07895 10.2337 7.92267 10.0774C7.76639 9.92115 7.55443 9.83335 7.33342 9.83335ZM6.50008 15.6667H2.33341V11.5H6.50008V15.6667ZM16.5001 0.666687H10.6667C10.4457 0.666687 10.2338 0.754484 10.0775 0.910765C9.92121 1.06705 9.83342 1.27901 9.83342 1.50002V7.33335C9.83342 7.55437 9.92121 7.76633 10.0775 7.92261C10.2338 8.07889 10.4457 8.16669 10.6667 8.16669H16.5001C16.7211 8.16669 16.9331 8.07889 17.0893 7.92261C17.2456 7.76633 17.3334 7.55437 17.3334 7.33335V1.50002C17.3334 1.27901 17.2456 1.06705 17.0893 0.910765C16.9331 0.754484 16.7211 0.666687 16.5001 0.666687ZM15.6667 6.50002H11.5001V2.33335H15.6667V6.50002ZM16.5001 9.83335H10.6667C10.4457 9.83335 10.2338 9.92115 10.0775 10.0774C9.92121 10.2337 9.83342 10.4457 9.83342 10.6667V16.5C9.83342 16.721 9.92121 16.933 10.0775 17.0893C10.2338 17.2456 10.4457 17.3334 10.6667 17.3334H16.5001C16.7211 17.3334 16.9331 17.2456 17.0893 17.0893C17.2456 16.933 17.3334 16.721 17.3334 16.5V10.6667C17.3334 10.4457 17.2456 10.2337 17.0893 10.0774C16.9331 9.92115 16.7211 9.83335 16.5001 9.83335ZM15.6667 15.6667H11.5001V11.5H15.6667V15.6667ZM7.33342 0.666687H1.50008C1.27907 0.666687 1.06711 0.754484 0.910826 0.910765C0.754545 1.06705 0.666748 1.27901 0.666748 1.50002V7.33335C0.666748 7.55437 0.754545 7.76633 0.910826 7.92261C1.06711 8.07889 1.27907 8.16669 1.50008 8.16669H7.33342C7.55443 8.16669 7.76639 8.07889 7.92267 7.92261C8.07895 7.76633 8.16675 7.55437 8.16675 7.33335V1.50002C8.16675 1.27901 8.07895 1.06705 7.92267 0.910765C7.76639 0.754484 7.55443 0.666687 7.33342 0.666687ZM6.50008 6.50002H2.33341V2.33335H6.50008V6.50002Z" fill="#676767"/>
</svg>
