<svg width="50" height="50" viewBox="0 0 50 50" fill="none" xmlns="http://www.w3.org/2000/svg">
<rect width="50" height="50" rx="25" fill="#DC8989"/>
<path d="M25.9191 12.6367V10.8789C25.9191 10.3935 25.5076 10 25 10C24.4924 10 24.0809 10.3935 24.0809 10.8789V12.6367C24.0809 13.1221 24.4924 13.5156 25 13.5156C25.5076 13.5156 25.9191 13.1221 25.9191 12.6367Z" fill="white"/>
<path d="M18.3969 14.9156C18.857 14.7104 19.056 14.1875 18.8415 13.7476L18.0647 12.1544C17.8502 11.7145 17.3031 11.5241 16.8433 11.7293C16.3832 11.9344 16.1842 12.4574 16.3987 12.8973L17.1756 14.4904C17.3911 14.9325 17.9391 15.1197 18.3969 14.9156Z" fill="white"/>
<path d="M12.9179 17.6732L11.5098 16.5433C11.1209 16.2312 10.5412 16.2798 10.2151 16.6516C9.88879 17.0235 9.93946 17.5778 10.3283 17.8899L11.7364 19.0198C12.1237 19.3306 12.7037 19.2848 13.0312 18.9114C13.3574 18.5396 13.3067 17.9852 12.9179 17.6732Z" fill="white"/>
<path d="M32.8243 14.4904L33.6012 12.8973C33.8157 12.4573 33.6167 11.9344 33.1566 11.7293C32.6968 11.5242 32.1497 11.7144 31.9352 12.1544L31.1583 13.7475C30.9438 14.1874 31.1428 14.7103 31.6029 14.9155C32.06 15.1194 32.6085 14.933 32.8243 14.4904Z" fill="white"/>
<path d="M39.785 16.6516C39.4588 16.2798 38.879 16.2313 38.4902 16.5433L37.0821 17.6732C36.6932 17.9852 36.6426 18.5396 36.9688 18.9114C37.2941 19.2821 37.8737 19.3327 38.2636 19.0197L39.6717 17.8898C40.0606 17.5778 40.1112 17.0235 39.785 16.6516Z" fill="white"/>
<path d="M15.813 18.8477C15.8067 18.8492 15.3232 18.8307 15.0395 19.2464C14.5378 19.966 11.8855 23.7706 11.3683 24.5125C11.1373 24.8438 11.1722 25.2843 11.4401 25.5774L24.307 39.6985C24.4816 39.8901 24.7343 40 24.9999 40C25.2656 40 25.5183 39.8901 25.6929 39.6985L38.5598 25.5774C38.8228 25.2903 38.8666 24.8494 38.6316 24.5124L34.9604 19.2463C34.788 18.9946 34.4953 18.8477 34.1906 18.8477C34.1906 18.8477 15.8136 18.8477 15.813 18.8477ZM36.1496 24.1211H32.2316L34.1906 21.311L36.1496 24.1211ZM21.7043 24.1211L24.9999 20.9695L28.2955 24.1211H21.7043ZM29.1881 25.8789L24.9999 36.5594L20.8118 25.8789H29.1881ZM22.3962 34.9257L14.1529 25.8789H18.8486L22.3962 34.9257ZM31.1513 25.8789H35.847L27.6037 34.9257L31.1513 25.8789ZM30.3715 23.6205L27.2188 20.6055H32.4734L30.3715 23.6205ZM19.6284 23.6205L17.5265 20.6055H22.7811L19.6284 23.6205ZM17.7683 24.1211H13.8503L15.8093 21.311L17.7683 24.1211Z" fill="white"/>
</svg>
