<svg width="40" height="48" viewBox="0 0 40 48" fill="none" xmlns="http://www.w3.org/2000/svg">
<path d="M39.8125 47.4688V42.1094C39.8125 37.0348 34.1698 33.6875 29.0938 33.6875H10.7188C5.64572 33.6875 0 37.0348 0 42.1094V47.4688H39.8125Z" fill="#9266CC"/>
<path d="M34.0475 18.009C34.0475 5.00255 25.9181 1.12543 19.9156 1.12543C13.9131 1.12543 4.9093 5.04389 4.9093 18.009C4.9093 23.3515 6.83102 27.4752 5.89543 30.6234C4.05793 36.8066 10.3789 42.1185 15.3126 44.4062C22.877 47.9128 30.6251 39.8125 30.6251 39.8125C36.7118 39.8125 34.0475 33.3077 34.0475 18.009Z" fill="#744EAA"/>
<path d="M34.9233 18.009C34.9233 5.00259 25.9181 0 19.9156 0C13.9131 0 4.9093 5.04394 4.9093 18.009C4.9093 31.0155 15.9144 36.0181 21.9169 36.0181C26.4172 36.0165 27.6621 38.2812 30.6251 38.2812C38.7116 38.2812 34.9233 31.5147 34.9233 18.009Z" fill="#9266CC"/>
<path d="M18.228 9.44171C14.9098 9.84749 8.18611 15.3784 7.93958 18.3214C8.24583 26.4998 13.4827 33.0153 19.9155 33.0153C26.313 33.0153 31.5269 26.5718 31.8868 18.4577C31.5346 14.8256 21.2921 9.06655 18.228 9.44171Z" fill="#F3D2A2"/>
<path d="M19.8205 28.3939C17.3629 28.3939 16.0751 27.1781 15.9373 27.0388C15.5269 26.6299 15.5269 25.9669 15.9373 25.5581C16.3446 25.1523 16.9969 25.1492 17.4073 25.5473C17.4609 25.5963 18.2541 26.2992 19.8205 26.2992C21.4115 26.2992 22.2047 25.5749 22.2353 25.5458C22.6534 25.1538 23.3118 25.1661 23.7099 25.5764C24.108 25.9883 24.108 26.6345 23.7038 27.0388C23.5675 27.1781 22.2813 28.3939 19.8205 28.3939Z" fill="#DF1F32"/>
<path d="M14.7122 19.7317C14.0002 19.7317 13.4167 19.1483 13.4167 18.4363V17.1424C13.4167 16.4303 14.0002 15.8469 14.7122 15.8469C15.4242 15.8469 16.0092 16.4303 16.0092 17.1424V18.4363C16.0092 19.1483 15.4242 19.7317 14.7122 19.7317ZM25.0711 19.7317C24.3591 19.7317 23.7757 19.1483 23.7757 18.4363V17.1424C23.7757 16.4303 24.3591 15.8469 25.0711 15.8469C25.7831 15.8469 26.3665 16.4303 26.3665 17.1424V18.4363C26.3665 19.1483 25.7831 19.7317 25.0711 19.7317Z" fill="#662113"/>
<path d="M21.188 23.7344H18.5986C18.2419 23.7344 17.9509 23.4434 17.9509 23.0867V22.8524C17.9509 22.4956 18.2403 22.2031 18.5986 22.2031H21.188C21.5432 22.2031 21.8357 22.4941 21.8357 22.8524V23.0867C21.8357 23.4434 21.5432 23.7344 21.188 23.7344Z" fill="#C1694F"/>
<path d="M7.65625 18.375C7.65625 18.375 12.25 10.7188 19.9062 10.7188C27.5625 10.7188 32.1562 18.375 32.1562 18.375C32.1562 18.375 30.625 6.125 19.9062 6.125C9.1875 6.125 7.65625 18.375 7.65625 18.375Z" fill="#553788"/>
</svg>
