<svg width="40" height="49" viewBox="0 0 40 49" fill="none" xmlns="http://www.w3.org/2000/svg">
<path d="M39.8125 49V43.6406C39.8125 38.5661 34.1698 35.2188 29.0938 35.2188H10.7188C5.64572 35.2188 0 38.5661 0 43.6406V49H39.8125Z" fill="#9266CC"/>
<path d="M14.1197 41.7633C14.9389 44.6635 17.2388 46.7031 19.9062 46.7031C22.5737 46.7031 24.8736 44.6635 25.6928 41.7633C28.7691 40.4633 30.625 38.1863 30.625 35.6016C30.625 35.5082 30.6097 35.4163 30.6036 35.3244C30.0982 35.2601 29.5929 35.2188 29.0938 35.2188H10.7188C10.2196 35.2188 9.71425 35.2601 9.20894 35.3244C9.20281 35.4163 9.1875 35.5082 9.1875 35.6016C9.1875 38.1863 11.0434 40.4633 14.1197 41.7633Z" fill="#744EAA"/>
<path d="M28.2959 35.2188H25.5106V30.3417H14.3018V35.2188H11.518C11.5012 35.3459 11.4858 35.473 11.4858 35.6016C11.4858 37.5463 13.3769 39.2245 16.1271 40.0437C16.3613 42.4999 17.9554 44.4063 19.9062 44.4063C21.857 44.4063 23.451 42.4999 23.6868 40.0437C26.437 39.2245 28.3281 37.5447 28.3281 35.6016C28.3281 35.473 28.3112 35.3459 28.2959 35.2188Z" fill="#D5AB88"/>
<path d="M14.2728 32.4303C15.8393 34.1989 17.7809 34.6782 19.891 34.6782C22.0026 34.6782 23.9442 34.2004 25.5107 32.4303V27.9346H14.2728V32.4303Z" fill="#CC9B7A"/>
<path d="M34.963 18.277C34.963 20.4942 33.8406 22.2919 32.4533 22.2919C31.0675 22.2919 29.9436 20.4942 29.9436 18.277C29.9436 16.0597 31.066 14.2605 32.4533 14.2605C33.8406 14.259 34.963 16.0582 34.963 18.277ZM9.86734 18.277C9.86734 20.4942 8.7434 22.2919 7.35762 22.2919C5.97184 22.2919 4.8479 20.4942 4.8479 18.277C4.8479 16.0597 5.97184 14.2605 7.35762 14.2605C8.7434 14.259 9.86734 16.0582 9.86734 18.277Z" fill="#D5AB88"/>
<path d="M7.2489 17.9416C7.2489 9.00831 12.8778 1.76703 19.8205 1.76703C26.7632 1.76703 32.3936 9.00831 32.3936 17.9416C32.3936 26.8734 26.7632 33.6921 19.8205 33.6921C12.8778 33.6921 7.2489 26.8749 7.2489 17.9416Z" fill="#D5AB88"/>
<path d="M19.8205 29.9252C17.3629 29.9252 16.0751 28.7094 15.9373 28.57C15.5269 28.1612 15.5269 27.4982 15.9373 27.0893C16.3446 26.6835 16.9969 26.6805 17.4073 27.0786C17.4609 27.1276 18.2541 27.8304 19.8205 27.8304C21.4115 27.8304 22.2047 27.1062 22.2353 27.0771C22.6534 26.6851 23.3118 26.6973 23.7099 27.1077C24.108 27.5196 24.108 28.1658 23.7038 28.57C23.5675 28.7094 22.2813 29.9252 19.8205 29.9252Z" fill="#DF1F32"/>
<path d="M14.7122 21.263C14.0002 21.263 13.4167 20.6796 13.4167 19.9675V18.6736C13.4167 17.9616 14.0002 17.3782 14.7122 17.3782C15.4242 17.3782 16.0092 17.9616 16.0092 18.6736V19.9675C16.0092 20.6796 15.4242 21.263 14.7122 21.263ZM25.0711 21.263C24.3591 21.263 23.7757 20.6796 23.7757 19.9675V18.6736C23.7757 17.9616 24.3591 17.3782 25.0711 17.3782C25.7831 17.3782 26.3665 17.9616 26.3665 18.6736V19.9675C26.3665 20.6796 25.7831 21.263 25.0711 21.263Z" fill="#662113"/>
<path d="M21.188 25.2656H18.5986C18.2419 25.2656 17.9509 24.9747 17.9509 24.6179V24.3836C17.9509 24.0268 18.2403 23.7344 18.5986 23.7344H21.188C21.5432 23.7344 21.8357 24.0253 21.8357 24.3836V24.6179C21.8357 24.9747 21.5432 25.2656 21.188 25.2656Z" fill="#C1694F"/>
<path d="M19.9062 8.77253C19.9062 8.77253 30.2453 11.4614 31.8301 16.3002C32.5207 14.8225 32.9219 11.4951 32.9219 9.66984C32.9219 4.116 28.3281 0 21.5324 0H18.2785C12.3143 0 6.89062 4.116 6.89062 9.66831C6.89062 11.4936 7.29181 15.0139 7.98087 16.49C9.56725 11.6498 19.9062 8.77253 19.9062 8.77253Z" fill="#E6E7E8"/>
<path d="M28.9423 8.04059C29.9376 7.90891 30.9314 7.81856 31.9205 7.81856C32.2145 7.81856 32.4718 7.68687 32.6555 7.48628C32.507 6.91359 32.3003 6.36541 32.0415 5.84019C32.0002 5.83406 31.9634 5.81569 31.9205 5.81569C27.8214 5.81569 23.6732 6.84316 19.5879 8.86441L19.9064 8.77253C19.9064 8.77253 21.0869 9.08031 22.707 9.67138C23.6487 9.29622 24.5935 8.99763 25.5368 8.73425C25.5582 8.74344 25.5735 8.76028 25.5965 8.76794C28.0051 9.57031 30.6374 11.1628 32.6448 12.9957C32.7658 12.1566 32.8485 11.3098 32.8883 10.5672C31.6679 9.59328 30.3173 8.74344 28.9423 8.04059ZM7.05916 12.2087C9.96088 10.1353 19.594 3.90775 30.6909 3.822C30.0631 3.09772 29.3281 2.45306 28.5074 1.90334C18.8084 2.62456 10.5167 7.45566 6.89685 9.88881C6.91216 10.5473 6.96423 11.3542 7.05916 12.2087ZM7.16176 7.4725C10.7434 5.17869 17.5605 1.75481 25.1386 0.434875C23.9887 0.0949374 22.7744 0 21.5325 0H18.9799C15.0416 1.53125 11.5289 2.77922 8.82469 4.26912C8.05141 5.25066 7.47413 6.26588 7.16176 7.4725Z" fill="#D1D3D4"/>
</svg>
