<svg width="66" height="36" viewBox="0 0 66 36" fill="none" xmlns="http://www.w3.org/2000/svg">
<path d="M34.83 30.7199C35.67 28.0499 35.19 18.8799 35.19 18.8799C35.19 18.8799 29.54 26.1099 28.7 28.7799C27.86 31.4499 28.55 34.0499 30.24 34.5799C31.93 35.1099 33.99 33.3799 34.83 30.7199Z" fill="#4C466D"/>
<path d="M43.43 28.4499C44.48 25.8599 44.73 16.6799 44.73 16.6799C44.73 16.6799 38.52 23.4399 37.47 26.0399C36.42 28.6399 36.89 31.2699 38.55 31.9699C40.21 32.6699 42.38 31.0499 43.43 28.4499Z" fill="#4C466D"/>
<path d="M52.35 29.3699C53.35 26.7799 53.65 17.5999 53.65 17.5999C53.65 17.5999 47.44 24.3599 46.39 26.9699C45.34 29.5799 45.83 32.1999 47.47 32.8699C49.11 33.5399 51.3 31.9699 52.35 29.3699Z" fill="#4C466D"/>
<path d="M24.12 20.72C26.91 21.02 35.8 18.72 35.8 18.72C35.8 18.72 27.6 14.6 24.8 14.3C22 14 19.61 15.19 19.42 16.96C19.23 18.73 21.34 20.42 24.12 20.72Z" fill="#4C466D"/>
<path d="M32.63 14.9099C35.07 16.2799 44.15 17.6599 44.15 17.6599C44.15 17.6599 38.15 10.6599 35.76 9.29991C33.37 7.93991 30.63 8.08991 29.76 9.63991C28.89 11.1899 30.18 13.5499 32.63 14.9099Z" fill="#4C466D"/>
<path d="M44.64 12.27C46.64 14.27 55.03 17.96 55.03 17.96C55.03 17.96 51.14 9.63996 49.14 7.67996C47.14 5.71996 44.51 5.15996 43.27 6.42996C42.03 7.69996 42.64 10.31 44.64 12.27Z" fill="#4C466D"/>
<path d="M24.03 31.7499C26.16 29.9299 30.61 21.8999 30.61 21.8999C30.61 21.8999 21.98 25.0399 19.85 26.8999C17.72 28.7599 16.89 31.2499 18.09 32.5999C19.29 33.9499 21.89 33.5699 24.03 31.7499Z" fill="#4C466D"/>
<path d="M9.56006 27.8899C9.69006 26.6799 8.63006 22.7999 8.63006 22.7999C8.63006 22.7999 6.80006 26.3799 6.63006 27.5999C6.46006 28.8199 7.10006 29.8599 7.89006 29.9699C8.68006 30.0799 9.44006 29.1099 9.56006 27.8899Z" fill="#DC8989"/>
<path d="M7.67002 17.9699C7.54002 19.1799 8.60003 23.0599 8.60003 23.0599C8.60003 23.0599 10.43 19.4799 10.55 18.2699C10.67 17.0599 10.13 15.9699 9.34003 15.9699C8.55003 15.9699 7.79002 16.7699 7.67002 17.9699Z" fill="#DC8989"/>
<path d="M13.57 21.9699C12.36 21.8399 8.48003 22.8999 8.48003 22.8999C8.48003 22.8999 12.06 24.7299 13.27 24.8999C14.48 25.0699 15.54 24.4799 15.62 23.6899C15.7 22.8999 14.78 22.1099 13.57 21.9699Z" fill="#DC8989"/>
<path d="M3.66 23.89C5.38393 23.7484 7.08921 23.4334 8.75 22.95C7.22448 22.1243 5.61973 21.4542 3.96 20.95C2.74 20.83 1.69 21.37 1.61 22.17C1.53 22.97 2.45 23.76 3.66 23.89Z" fill="#DC8989"/>
<path d="M5.78003 27.1099C6.90343 25.7944 7.88861 24.3669 8.72003 22.8499C7.0664 23.3533 5.46819 24.0234 3.95003 24.8499C2.95003 25.6199 2.65003 26.7499 3.15003 27.3699C3.65003 27.9899 4.83003 27.8799 5.78003 27.1099Z" fill="#DC8989"/>
<path d="M11.45 18.7599C10.3295 20.0596 9.34438 21.4703 8.51005 22.9699C10.1637 22.4665 11.7619 21.7964 13.28 20.9699C14.28 20.1999 14.58 19.0699 14.08 18.4499C13.58 17.8299 12.4 17.9699 11.45 18.7599Z" fill="#DC8989"/>
<path d="M4.44001 20.0999C5.75551 21.2233 7.18301 22.2085 8.70001 23.0399C8.19661 21.3863 7.5265 19.7881 6.70001 18.2699C5.93001 17.3299 4.80001 16.9699 4.18001 17.4699C3.56001 17.9699 3.67001 19.1599 4.44001 20.0999Z" fill="#DC8989"/>
<path d="M12.79 25.7699C11.4745 24.6466 10.047 23.6614 8.53004 22.8299C9.03344 24.4836 9.70355 26.0818 10.53 27.5999C11.3 28.5499 12.43 28.9099 13.05 28.3999C13.67 27.8899 13.56 26.7199 12.79 25.7699Z" fill="#DC8989"/>
<path d="M9.65002 22.9699C9.68237 22.7394 9.64524 22.5045 9.54338 22.2953C9.44152 22.086 9.27955 21.9119 9.0782 21.7951C8.87684 21.6784 8.64525 21.6244 8.41303 21.6399C8.1808 21.6555 7.9585 21.74 7.77456 21.8826C7.59061 22.0252 7.45337 22.2194 7.38039 22.4404C7.3074 22.6614 7.302 22.8992 7.36485 23.1233C7.42771 23.3474 7.55598 23.5476 7.73325 23.6985C7.91052 23.8493 8.12875 23.9438 8.36002 23.9699C8.66342 24.0068 8.96911 23.9224 9.21066 23.7352C9.45221 23.5479 9.6101 23.2729 9.65002 22.9699Z" fill="white"/>
<path d="M25.77 28.3499C27.89 22.4599 33.89 18.9099 39.83 17.7499C47.73 16.1999 56.83 17.4699 64.28 20.4099" stroke="#4C466D" stroke-width="0.82" stroke-linecap="round" stroke-linejoin="round"/>
<path d="M19.8901 4.96992C19.9499 4.31734 19.8153 3.66165 19.5031 3.08543C19.191 2.50922 18.7153 2.03827 18.136 1.73191C17.5567 1.42554 16.8997 1.29747 16.2478 1.36382C15.5958 1.43017 14.9781 1.68797 14.4724 2.10476C13.9667 2.52155 13.5956 3.07867 13.406 3.70595C13.2163 4.33323 13.2166 5.0026 13.4067 5.62975C13.5967 6.2569 13.9682 6.81376 14.4742 7.2302C14.9801 7.64664 15.5981 7.90402 16.2501 7.96992C16.6864 8.01403 17.1272 7.97124 17.5469 7.84402C17.9667 7.71681 18.357 7.50769 18.6955 7.22875C19.0339 6.94981 19.3137 6.60657 19.5188 6.21887C19.7238 5.83116 19.85 5.40668 19.8901 4.96992Z" fill="#8F39A8"/>
</svg>
