<svg width="66" height="36" viewBox="0 0 66 36" fill="none" xmlns="http://www.w3.org/2000/svg">
<path d="M31.0599 5.24992C30.2199 7.91992 30.6999 17.0899 30.6999 17.0899C30.6999 17.0899 36.3499 9.85992 37.1899 7.18992C38.0299 4.51992 37.3399 1.91992 35.6499 1.38992C33.9599 0.859916 31.8999 2.58992 31.0599 5.24992Z" fill="#4C466D"/>
<path d="M22.4599 7.51994C21.4099 10.1099 21.1599 19.2899 21.1599 19.2899C21.1599 19.2899 27.3699 12.5299 28.4199 9.92994C29.4699 7.32995 28.9999 4.69994 27.3399 3.99994C25.6799 3.29994 23.5099 4.91995 22.4599 7.51994Z" fill="#4C466D"/>
<path d="M13.5399 6.59993C12.5399 9.18993 12.2399 18.3699 12.2399 18.3699C12.2399 18.3699 18.4499 11.6099 19.4999 8.99993C20.5499 6.38993 20.0599 3.76993 18.4199 3.09993C16.7799 2.42993 14.5899 3.99993 13.5399 6.59993Z" fill="#4C466D"/>
<path d="M41.77 15.2499C38.98 14.9499 30.09 17.2499 30.09 17.2499C30.09 17.2499 38.29 21.3699 41.09 21.6699C43.89 21.9699 46.28 20.7799 46.47 19.0099C46.66 17.2399 44.55 15.5499 41.77 15.2499Z" fill="#4C466D"/>
<path d="M33.2599 21.0599C30.8199 19.6899 21.7399 18.3099 21.7399 18.3099C21.7399 18.3099 27.7399 25.3099 30.1299 26.6699C32.5199 28.0299 35.2599 27.8799 36.1299 26.3299C36.9999 24.7799 35.7099 22.4199 33.2599 21.0599Z" fill="#4C466D"/>
<path d="M21.2499 23.6999C19.2499 21.6999 10.8599 18.0099 10.8599 18.0099C10.8599 18.0099 14.7499 26.3299 16.7499 28.2899C18.7499 30.2499 21.3799 30.8099 22.6199 29.5399C23.8599 28.2699 23.2499 25.6599 21.2499 23.6999Z" fill="#4C466D"/>
<path d="M41.8599 4.21994C39.7299 6.03994 35.2799 14.0699 35.2799 14.0699C35.2799 14.0699 43.9099 10.9299 46.0399 9.06994C48.1699 7.20994 48.9999 4.71994 47.7999 3.36994C46.5999 2.01994 43.9999 2.39994 41.8599 4.21994Z" fill="#4C466D"/>
<path d="M56.3299 8.07991C56.1999 9.28991 57.2599 13.1699 57.2599 13.1699C57.2599 13.1699 59.0899 9.58991 59.2599 8.36991C59.4299 7.14991 58.7899 6.10991 57.9999 5.99991C57.2099 5.88991 56.4499 6.85991 56.3299 8.07991Z" fill="#DC8989"/>
<path d="M58.2199 17.9999C58.3499 16.7899 57.2899 12.9099 57.2899 12.9099C57.2899 12.9099 55.4599 16.4899 55.3399 17.6999C55.2199 18.9099 55.7599 19.9999 56.5499 19.9999C57.3399 19.9999 58.0999 19.1999 58.2199 17.9999Z" fill="#DC8989"/>
<path d="M52.32 13.9999C53.53 14.1299 57.41 13.0699 57.41 13.0699C57.41 13.0699 53.83 11.2399 52.62 11.0699C51.41 10.8999 50.35 11.4899 50.27 12.2799C50.19 13.0699 51.11 13.8599 52.32 13.9999Z" fill="#DC8989"/>
<path d="M62.2299 12.0799C60.506 12.2215 58.8007 12.5364 57.1399 13.0199C58.6654 13.8456 60.2702 14.5156 61.9299 15.0199C63.1499 15.1399 64.1999 14.5999 64.2799 13.7999C64.3599 12.9999 63.4399 12.2099 62.2299 12.0799Z" fill="#DC8989"/>
<path d="M60.1099 8.85993C58.9865 10.1754 58.0013 11.6029 57.1699 13.1199C58.8236 12.6165 60.4218 11.9464 61.9399 11.1199C62.9399 10.3499 63.2399 9.21993 62.7399 8.59993C62.2399 7.97993 61.0599 8.08993 60.1099 8.85993Z" fill="#DC8989"/>
<path d="M54.4399 17.2099C55.5605 15.9102 56.5456 14.4996 57.3799 12.9999C55.7263 13.5033 54.1281 14.1734 52.6099 14.9999C51.6099 15.7699 51.3099 16.8999 51.8099 17.5199C52.3099 18.1399 53.4899 17.9999 54.4399 17.2099Z" fill="#DC8989"/>
<path d="M61.4499 15.8699C60.1344 14.7465 58.7069 13.7614 57.1899 12.9299C57.6933 14.5836 58.3635 16.1818 59.1899 17.6999C59.9599 18.6399 61.0899 18.9999 61.7099 18.4999C62.3299 17.9999 62.2199 16.8099 61.4499 15.8699Z" fill="#DC8989"/>
<path d="M53.0999 10.1999C54.4154 11.3233 55.8429 12.3085 57.3599 13.1399C56.8565 11.4863 56.1864 9.88806 55.3599 8.3699C54.5899 7.4199 53.4599 7.0599 52.8399 7.5699C52.2199 8.0799 52.3299 9.2499 53.0999 10.1999Z" fill="#DC8989"/>
<path d="M56.2399 12.9999C56.2075 13.2304 56.2447 13.4653 56.3465 13.6746C56.4484 13.8839 56.6103 14.058 56.8117 14.1747C57.013 14.2915 57.2446 14.3455 57.4769 14.3299C57.7091 14.3143 57.9314 14.2298 58.1153 14.0872C58.2993 13.9446 58.4365 13.7504 58.5095 13.5294C58.5825 13.3084 58.5879 13.0707 58.525 12.8466C58.4622 12.6225 58.3339 12.4222 58.1566 12.2714C57.9794 12.1206 57.7611 12.0261 57.5299 11.9999C57.2265 11.9631 56.9208 12.0474 56.6792 12.2347C56.4377 12.4219 56.2798 12.6969 56.2399 12.9999Z" fill="white"/>
<path d="M40.1199 7.61993C37.9999 13.5099 31.9999 17.0599 26.0599 18.2199C18.1599 19.7699 9.05992 18.4999 1.60992 15.5599" stroke="#4C466D" stroke-width="0.82" stroke-linecap="round" stroke-linejoin="round"/>
<path d="M46 30.9999C45.9401 31.6525 46.0747 32.3082 46.3869 32.8844C46.699 33.4606 47.1747 33.9316 47.754 34.2379C48.3333 34.5443 48.9903 34.6724 49.6422 34.606C50.2942 34.5397 50.9119 34.2819 51.4176 33.8651C51.9233 33.4483 52.2944 32.8912 52.484 32.2639C52.6737 31.6366 52.6734 30.9672 52.4834 30.3401C52.2933 29.713 51.9218 29.1561 51.4159 28.7396C50.9099 28.3232 50.292 28.0658 49.64 27.9999C49.2036 27.9558 48.7628 27.9986 48.3431 28.1258C47.9234 28.253 47.533 28.4622 47.1946 28.7411C46.8561 29.02 46.5763 29.3633 46.3712 29.751C46.1662 30.1387 46.04 30.5632 46 30.9999Z" fill="#8F39A8"/>
</svg>
