<svg width="91" height="91" viewBox="0 0 91 91" fill="none" xmlns="http://www.w3.org/2000/svg">
<g filter="url(#filter0_d)">
<circle cx="46.5" cy="41.5" r="31.5" fill="#383D58"/>
</g>
<path d="M54.9165 37.25H39.0831C38.6632 37.25 38.2605 37.4168 37.9635 37.7138C37.6666 38.0107 37.4998 38.4134 37.4998 38.8334C37.4998 39.2533 37.6666 39.656 37.9635 39.9529C38.2605 40.2499 38.6632 40.4167 39.0831 40.4167H54.9165C55.3364 40.4167 55.7391 40.2499 56.036 39.9529C56.333 39.656 56.4998 39.2533 56.4998 38.8334C56.4998 38.4134 56.333 38.0107 56.036 37.7138C55.7391 37.4168 55.3364 37.25 54.9165 37.25ZM48.5831 43.5834H39.0831C38.6632 43.5834 38.2605 43.7502 37.9635 44.0471C37.6666 44.344 37.4998 44.7468 37.4998 45.1667C37.4998 45.5866 37.6666 45.9893 37.9635 46.2863C38.2605 46.5832 38.6632 46.75 39.0831 46.75H48.5831C49.003 46.75 49.4058 46.5832 49.7027 46.2863C49.9996 45.9893 50.1665 45.5866 50.1665 45.1667C50.1665 44.7468 49.9996 44.344 49.7027 44.0471C49.4058 43.7502 49.003 43.5834 48.5831 43.5834ZM46.9998 26.1667C44.9205 26.1667 42.8616 26.5762 40.9406 27.3719C39.0196 28.1676 37.2742 29.3339 35.8039 30.8042C32.8346 33.7735 31.1665 37.8008 31.1665 42C31.1526 45.6561 32.4185 49.2019 34.7448 52.0225L31.5781 55.1892C31.3584 55.4118 31.2096 55.6946 31.1504 56.0017C31.0912 56.3089 31.1244 56.6267 31.2456 56.915C31.3771 57.1999 31.5903 57.4393 31.8581 57.6028C32.1259 57.7663 32.4363 57.8465 32.7498 57.8333H46.9998C51.199 57.8333 55.2263 56.1652 58.1956 53.1959C61.165 50.2265 62.8331 46.1993 62.8331 42C62.8331 37.8008 61.165 33.7735 58.1956 30.8042C55.2263 27.8348 51.199 26.1667 46.9998 26.1667ZM46.9998 54.6667H36.5656L38.0381 53.1942C38.333 52.8975 38.4985 52.4962 38.4985 52.0779C38.4985 51.6596 38.333 51.2583 38.0381 50.9617C35.9649 48.8907 34.6738 46.165 34.3849 43.2489C34.0959 40.3328 34.827 37.4068 36.4536 34.9693C38.0801 32.5317 40.5015 30.7336 43.3051 29.8811C46.1087 29.0287 49.1212 29.1747 51.8293 30.2943C54.5374 31.4139 56.7735 33.4378 58.1566 36.0212C59.5398 38.6046 59.9845 41.5876 59.4149 44.4621C58.8453 47.3366 57.2967 49.9247 55.0329 51.7854C52.7691 53.6461 49.9302 54.6644 46.9998 54.6667Z" fill="white"/>
<defs>
<filter id="filter0_d" x="0" y="0" width="91" height="91" filterUnits="userSpaceOnUse" color-interpolation-filters="sRGB">
<feFlood flood-opacity="0" result="BackgroundImageFix"/>
<feColorMatrix in="SourceAlpha" type="matrix" values="0 0 0 0 0 0 0 0 0 0 0 0 0 0 0 0 0 0 127 0" result="hardAlpha"/>
<feOffset dx="-1" dy="4"/>
<feGaussianBlur stdDeviation="7"/>
<feComposite in2="hardAlpha" operator="out"/>
<feColorMatrix type="matrix" values="0 0 0 0 0 0 0 0 0 0 0 0 0 0 0 0 0 0 0.25 0"/>
<feBlend mode="normal" in2="BackgroundImageFix" result="effect1_dropShadow"/>
<feBlend mode="normal" in="SourceGraphic" in2="effect1_dropShadow" result="shape"/>
</filter>
</defs>
</svg>
