<svg width="40" height="40" viewBox="0 0 40 40" fill="none" xmlns="http://www.w3.org/2000/svg">
<g clip-path="url(#clip0)">
<path d="M13.3333 20C13.3333 18.6815 13.7243 17.3925 14.4569 16.2962C15.1894 15.1999 16.2306 14.3454 17.4488 13.8408C18.667 13.3362 20.0074 13.2042 21.3006 13.4614C22.5938 13.7187 23.7817 14.3536 24.714 15.286C25.6464 16.2183 26.2813 17.4062 26.5386 18.6994C26.7958 19.9926 26.6638 21.333 26.1592 22.5512C25.6546 23.7694 24.8001 24.8106 23.7038 25.5431C22.6075 26.2757 21.3185 26.6667 20 26.6667C18.2319 26.6667 16.5362 25.9643 15.286 24.714C14.0357 23.4638 13.3333 21.7681 13.3333 20ZM9.72902 20C9.72902 22.0311 10.3313 24.0166 11.4597 25.7055C12.5881 27.3943 14.192 28.7106 16.0685 29.4879C17.945 30.2653 20.0098 30.4687 22.0019 30.0726C23.994 29.6764 25.8239 28.6984 27.2603 27.2623C28.6966 25.8261 29.6748 23.9963 30.0712 22.0043C30.4676 20.0122 30.2643 17.9473 29.4872 16.0707C28.7101 14.1941 27.394 12.5901 25.7053 11.4615C24.0166 10.3329 22.0311 9.73043 20 9.7302C18.6513 9.73014 17.3159 9.99575 16.0699 10.5118C14.8238 11.0279 13.6917 11.7844 12.738 12.738C11.7844 13.6917 11.0279 14.8238 10.5118 16.0699C9.99575 17.3159 9.73014 18.6513 9.7302 20H9.72902ZM28.2745 9.32314C28.2744 9.79781 28.415 10.2619 28.6785 10.6566C28.9421 11.0514 29.3169 11.3591 29.7553 11.5409C30.1938 11.7227 30.6764 11.7704 31.142 11.678C31.6075 11.5855 32.0353 11.3571 32.371 11.0215C32.7068 10.686 32.9355 10.2584 33.0282 9.79291C33.121 9.32738 33.0736 8.84481 32.8921 8.40621C32.7106 7.9676 32.4031 7.59267 32.0085 7.32883C31.6139 7.06499 31.15 6.92408 30.6753 6.92392C30.039 6.92423 29.4289 7.17708 28.9789 7.62693C28.5289 8.07678 28.2758 8.68685 28.2753 9.32314H28.2745ZM11.9216 36.2796C10.6532 36.2651 9.39686 36.0324 8.20745 35.5918C7.33877 35.2707 6.55282 34.7595 5.90706 34.0957C5.24222 33.4514 4.7309 32.6657 4.41098 31.7969C3.96957 30.6076 3.73635 29.3512 3.72157 28.0827C3.62471 25.9745 3.60392 25.3412 3.60392 20.0004C3.60392 14.6596 3.62471 14.0278 3.72157 11.918C3.7375 10.6498 3.97013 9.39371 4.40941 8.20392C4.7305 7.33524 5.24165 6.54929 5.90549 5.90353C6.55013 5.23832 7.33641 4.72696 8.20588 4.40745C9.3957 3.96626 10.6527 3.73344 11.9216 3.71922C14.0298 3.62235 14.6631 3.60157 20 3.60157C25.3369 3.60157 25.9725 3.62235 28.0824 3.71922C29.3505 3.73514 30.6067 3.96777 31.7965 4.40706C32.6654 4.72755 33.4515 5.23878 34.0969 5.90314C34.7612 6.54848 35.2724 7.33455 35.5929 8.20353C36.0338 9.39288 36.2665 10.6493 36.2808 11.9176C36.3776 14.0274 36.3984 14.6592 36.3984 20C36.3984 25.3408 36.3792 25.9725 36.2808 28.0824C36.2655 29.3506 36.0328 30.6068 35.5929 31.7965C35.2601 32.659 34.7503 33.4423 34.0965 34.0959C33.4426 34.7495 32.6591 35.2589 31.7965 35.5914C30.6071 36.0322 29.3507 36.2649 28.0824 36.2792C25.9741 36.3761 25.3408 36.3969 20 36.3969C14.6592 36.3969 14.0275 36.3776 11.9216 36.2792V36.2796ZM11.7545 0.121176C10.0954 0.153998 8.45396 0.468131 6.9 1.0502C5.56534 1.55242 4.35621 2.33958 3.35686 3.35686C2.33854 4.35528 1.55109 5.56449 1.0498 6.89961C0.467881 8.45373 0.153882 10.0953 0.121176 11.7545C0.0227451 13.8871 0 14.5686 0 20C0 25.4314 0.0227451 26.1129 0.121176 28.2455C0.154036 29.9046 0.468168 31.546 1.0502 33.1C1.55147 34.4351 2.33876 35.6445 3.35686 36.6431C4.35655 37.6599 5.5654 38.4471 6.89961 38.9502C8.45363 39.532 10.0951 39.8462 11.7541 39.8792C13.8878 39.9761 14.5682 40.0004 19.9996 40.0004C25.431 40.0004 26.1126 39.9776 28.2451 39.8792C29.9042 39.8464 31.5456 39.5322 33.0996 38.9502C34.4285 38.4364 35.6354 37.6506 36.6428 36.6432C37.6502 35.6357 38.436 34.4289 38.9498 33.1C39.5326 31.5462 39.8468 29.9046 39.8788 28.2455C39.9757 26.1114 39.9965 25.4314 39.9965 20C39.9965 14.5686 39.9737 13.8871 39.8788 11.7545C39.8461 10.0954 39.5319 8.45395 38.9498 6.9C38.4468 5.56571 37.6598 4.35673 36.6431 3.35686C35.6449 2.33909 34.4363 1.55171 33.102 1.0498C31.548 0.46744 29.9063 0.153427 28.2471 0.121176C26.1149 0.0243137 25.4329 0 20 0C14.5671 0 13.8863 0.0227451 11.7529 0.121176" fill="url(#paint0_radial)"/>
<path d="M13.3333 20C13.3333 18.6815 13.7243 17.3925 14.4569 16.2962C15.1894 15.1999 16.2306 14.3454 17.4488 13.8408C18.667 13.3362 20.0074 13.2042 21.3006 13.4614C22.5938 13.7187 23.7817 14.3536 24.714 15.286C25.6464 16.2183 26.2813 17.4062 26.5386 18.6994C26.7958 19.9926 26.6638 21.333 26.1592 22.5512C25.6546 23.7694 24.8001 24.8106 23.7038 25.5431C22.6075 26.2757 21.3185 26.6667 20 26.6667C18.2319 26.6667 16.5362 25.9643 15.286 24.714C14.0357 23.4638 13.3333 21.7681 13.3333 20ZM9.72902 20C9.72902 22.0311 10.3313 24.0166 11.4597 25.7055C12.5881 27.3943 14.192 28.7106 16.0685 29.4879C17.945 30.2653 20.0098 30.4687 22.0019 30.0726C23.994 29.6764 25.8239 28.6984 27.2603 27.2623C28.6966 25.8261 29.6748 23.9963 30.0712 22.0043C30.4676 20.0122 30.2643 17.9473 29.4872 16.0707C28.7101 14.1941 27.394 12.5901 25.7053 11.4615C24.0166 10.3329 22.0311 9.73043 20 9.7302C18.6513 9.73014 17.3159 9.99575 16.0699 10.5118C14.8238 11.0279 13.6917 11.7844 12.738 12.738C11.7844 13.6917 11.0279 14.8238 10.5118 16.0699C9.99575 17.3159 9.73014 18.6513 9.7302 20H9.72902ZM28.2745 9.32314C28.2744 9.79781 28.415 10.2619 28.6785 10.6566C28.9421 11.0514 29.3169 11.3591 29.7553 11.5409C30.1938 11.7227 30.6764 11.7704 31.142 11.678C31.6075 11.5855 32.0353 11.3571 32.371 11.0215C32.7068 10.686 32.9355 10.2584 33.0282 9.79291C33.121 9.32738 33.0736 8.84481 32.8921 8.40621C32.7106 7.9676 32.4031 7.59267 32.0085 7.32883C31.6139 7.06499 31.15 6.92408 30.6753 6.92392C30.039 6.92423 29.4289 7.17708 28.9789 7.62693C28.5289 8.07678 28.2758 8.68685 28.2753 9.32314H28.2745ZM11.9216 36.2796C10.6532 36.2651 9.39686 36.0324 8.20745 35.5918C7.33877 35.2707 6.55282 34.7595 5.90706 34.0957C5.24222 33.4514 4.7309 32.6657 4.41098 31.7969C3.96957 30.6076 3.73635 29.3512 3.72157 28.0827C3.62471 25.9745 3.60392 25.3412 3.60392 20.0004C3.60392 14.6596 3.62471 14.0278 3.72157 11.918C3.7375 10.6498 3.97013 9.39371 4.40941 8.20392C4.7305 7.33524 5.24165 6.54929 5.90549 5.90353C6.55013 5.23832 7.33641 4.72696 8.20588 4.40745C9.3957 3.96626 10.6527 3.73344 11.9216 3.71922C14.0298 3.62235 14.6631 3.60157 20 3.60157C25.3369 3.60157 25.9725 3.62235 28.0824 3.71922C29.3505 3.73514 30.6067 3.96777 31.7965 4.40706C32.6654 4.72755 33.4515 5.23878 34.0969 5.90314C34.7612 6.54848 35.2724 7.33455 35.5929 8.20353C36.0338 9.39288 36.2665 10.6493 36.2808 11.9176C36.3776 14.0274 36.3984 14.6592 36.3984 20C36.3984 25.3408 36.3792 25.9725 36.2808 28.0824C36.2655 29.3506 36.0328 30.6068 35.5929 31.7965C35.2601 32.659 34.7503 33.4423 34.0965 34.0959C33.4426 34.7495 32.6591 35.2589 31.7965 35.5914C30.6071 36.0322 29.3507 36.2649 28.0824 36.2792C25.9741 36.3761 25.3408 36.3969 20 36.3969C14.6592 36.3969 14.0275 36.3776 11.9216 36.2792V36.2796ZM11.7545 0.121176C10.0954 0.153998 8.45396 0.468131 6.9 1.0502C5.56534 1.55242 4.35621 2.33958 3.35686 3.35686C2.33854 4.35528 1.55109 5.56449 1.0498 6.89961C0.467881 8.45373 0.153882 10.0953 0.121176 11.7545C0.0227451 13.8871 0 14.5686 0 20C0 25.4314 0.0227451 26.1129 0.121176 28.2455C0.154036 29.9046 0.468168 31.546 1.0502 33.1C1.55147 34.4351 2.33876 35.6445 3.35686 36.6431C4.35655 37.6599 5.5654 38.4471 6.89961 38.9502C8.45363 39.532 10.0951 39.8462 11.7541 39.8792C13.8878 39.9761 14.5682 40.0004 19.9996 40.0004C25.431 40.0004 26.1126 39.9776 28.2451 39.8792C29.9042 39.8464 31.5456 39.5322 33.0996 38.9502C34.4285 38.4364 35.6354 37.6506 36.6428 36.6432C37.6502 35.6357 38.436 34.4289 38.9498 33.1C39.5326 31.5462 39.8468 29.9046 39.8788 28.2455C39.9757 26.1114 39.9965 25.4314 39.9965 20C39.9965 14.5686 39.9737 13.8871 39.8788 11.7545C39.8461 10.0954 39.5319 8.45395 38.9498 6.9C38.4468 5.56571 37.6598 4.35673 36.6431 3.35686C35.6449 2.33909 34.4363 1.55171 33.102 1.0498C31.548 0.46744 29.9063 0.153427 28.2471 0.121176C26.1149 0.0243137 25.4329 0 20 0C14.5671 0 13.8863 0.0227451 11.7529 0.121176" fill="url(#paint1_radial)"/>
</g>
<defs>
<radialGradient id="paint0_radial" cx="0" cy="0" r="1" gradientUnits="userSpaceOnUse" gradientTransform="translate(5.31412 40.189) scale(52.2145)">
<stop offset="0.09" stop-color="#FA8F21"/>
<stop offset="0.78" stop-color="#D82D7E"/>
</radialGradient>
<radialGradient id="paint1_radial" cx="0" cy="0" r="1" gradientUnits="userSpaceOnUse" gradientTransform="translate(24.2584 41.9808) scale(41.1522)">
<stop offset="0.64" stop-color="#8C3AAA" stop-opacity="0"/>
<stop offset="1" stop-color="#8C3AAA"/>
</radialGradient>
<clipPath id="clip0">
<rect width="39.9984" height="40" fill="white"/>
</clipPath>
</defs>
</svg>
