<svg width="658" height="532" viewBox="0 0 658 532" fill="none" xmlns="http://www.w3.org/2000/svg">
<g clip-path="url(#clip0)">
<path fill-rule="evenodd" clip-rule="evenodd" d="M225.137 124.734C192.082 123.03 169.232 162.469 161.582 178.919C150.641 202.435 147.227 227.807 138.899 252.102C131.378 274.023 123.021 294.876 117.5 317.533C106.775 361.368 99.3846 407.484 74.709 446.201C63.8833 463.134 49.5356 479.649 49.0231 499.715C61.6666 497.318 74.6771 497.662 87.1762 500.724C99.6754 503.786 111.372 509.494 121.476 517.464C130.029 524.307 138.076 533.091 148.851 534.845C159.027 536.491 168.951 531.416 178.009 526.494C196.607 516.396 215.372 506.204 235.659 500.206C253.702 494.836 272.712 492.872 290.698 487.213C318.246 478.552 342.661 461.409 362.581 440.513C364.515 438.492 366.5 436.233 366.853 433.454C367.164 430.978 366.132 428.56 365.078 426.286C338.187 366.991 313.064 306.468 297.641 242.95C291.347 217.001 273.723 201.807 271.558 175.736C268.599 140.029 252.901 126.163 225.137 124.734Z" fill="#B1DBE5"/>
<path fill-rule="evenodd" clip-rule="evenodd" d="M216.318 114.975C161.315 120.352 131.429 218.524 122.076 258.923C107.439 322.167 105.527 384.863 97.5372 449.398C88.9047 519.12 75.2944 588.134 56.8107 655.912C47.9985 688.191 37.9233 720.549 20.6237 749.19C-14.4879 807.302 -75.2782 844.157 -133.708 878.731C-77.898 859.308 -16.1478 874.624 38.9409 896.011C94.0297 917.398 147.993 945.093 206.798 950.925C249.559 955.104 292.647 947.475 331.374 928.867C358.467 915.795 382.724 897.642 408.143 881.553C443.941 858.89 482.133 840.251 522.023 825.975C532.798 822.128 546.128 814.607 543.674 803.44C542.498 798.178 537.958 794.476 533.917 790.91C510.014 769.812 495.565 740.233 482.365 711.209C432.203 600.832 391.285 486.482 360.033 369.337C344.408 310.777 312.198 280.368 303.393 220.408C291.282 138.246 262.594 110.435 216.318 114.975Z" fill="#CEECF4"/>
<path d="M77.6466 1033.47C80.4613 1037.95 85.5855 1041.66 90.5726 1043.76C95.8123 1045.93 101.637 1047.7 106.508 1050.49C109.689 1052.18 112.392 1054.65 114.368 1057.66C115.169 1059 115.847 1060.41 116.396 1061.87C117.926 1065.8 118.958 1070 121.751 1073.12C123.001 1074.49 124.503 1075.61 126.175 1076.42C127.579 1077.1 129.046 1077.65 130.556 1078.06C132.079 1078.48 133.659 1078.78 135.24 1079.1C136.82 1079.43 138.372 1079.66 139.902 1079.95C148.851 1081.66 153.918 1088.31 160.954 1090.69C161.508 1090.88 162.072 1091.04 162.643 1091.17C165.083 1091.72 167.602 1091.66 170.106 1091.8C170.503 1091.8 170.907 1091.84 171.304 1091.88C171.701 1091.91 172.228 1091.97 172.682 1092.04C175.333 1092.48 177.902 1093.31 180.304 1094.52C183.494 1096.06 186.532 1098.03 189.585 1099.83C205.521 1109.26 226.566 1114.43 242.061 1104.3C262.414 1090.99 268.548 1073.65 294.862 1070.01L295.425 1069.93L295.735 1069.88L296.818 1069.77C298.673 1069.6 302.13 1069.34 306.576 1068.95C309.34 1068.7 312.486 1068.41 315.871 1068.06C319.256 1067.7 322.778 1067.34 326.444 1066.86C349.539 1063.97 376.38 1058.63 371.913 1049.08C349.316 1001.1 345.209 907.603 340.453 864.677C330.197 772.728 313.793 640.198 313.41 609.356C312.176 593.549 305.536 557.683 298.528 522.675C298.244 521.232 297.958 519.807 297.67 518.402C297.366 516.887 297.061 515.378 296.753 513.877C295.548 507.879 294.335 501.967 293.144 496.236C288.15 472.034 283.647 451.16 281.597 441.711C281.965 438.824 282.506 435.576 283.307 431.996C283.56 430.87 283.827 429.722 284.13 428.531C284.871 425.606 285.797 422.497 286.909 419.206C291.508 405.657 295.401 391.879 298.572 377.926C298.572 377.926 306.763 315.534 304.064 309.24L303.198 308.951C302.032 309.159 300.898 309.521 299.827 310.027C298.223 310.767 296.805 311.857 295.678 313.217C293.808 315.483 289.29 314.372 288.143 317.071C284.099 326.412 278.12 334.788 270.601 341.648C263.082 348.507 254.193 353.693 244.522 356.864C239.297 358.539 233.696 359.607 228.32 358.82C227.545 358.82 226.773 358.798 226.003 358.755C219.746 358.412 213.628 356.772 208.037 353.941C202.447 351.109 197.505 347.147 193.526 342.305C188.567 336.148 185.37 328.714 180.376 322.586C175.584 316.696 167.768 310.712 159.879 310.034H159.273C157.519 309.94 155.332 309.947 154.546 308.374C154.486 308.254 154.44 308.128 154.409 307.998C154.286 307.567 154.286 307.109 154.409 306.677C151.161 307.767 149.111 308.388 149.111 308.388C146.426 314.675 154.048 377.962 154.048 377.962C157.212 391.915 161.103 405.694 165.703 419.242C167.212 423.656 168.465 428.153 169.456 432.711C170.07 435.511 170.517 438.102 170.849 440.47C170.95 441.192 171.037 441.87 171.116 442.541C168.879 449.911 164.873 464.744 160.846 479.974C158.862 487.509 156.87 495.132 155.073 502.01C152.229 513.003 149.927 522.069 149.025 525.729C148.895 526.248 148.801 526.652 148.729 526.948C148.389 528.334 148.072 529.727 147.74 531.128C139.895 564.958 133.212 600.42 130.188 634.98C128.744 651.704 127.604 668.753 127.063 685.506C126.687 697.054 125.922 708.647 125.035 720.195C120.827 775.369 114.079 830.421 106.27 885.191C102.611 910.728 98.6847 936.251 93.9286 961.615C93.4089 964.358 92.8893 967.108 92.348 969.843C91.0056 976.715 89.5766 983.558 88.0177 990.379C86.7619 995.727 86.7908 1001.05 85.8092 1006.19C84.3658 1013.88 77.8703 1017.22 75.9722 1022.88C74.7597 1026.61 75.6114 1030.24 77.6466 1033.47Z" fill="#E9FAFF"/>
<path d="M304.071 309.247C304.071 309.247 328.682 324.607 333.459 360.271C340.785 393.474 358.554 443.509 347.252 458.284C347.252 458.284 302.714 458.212 302.036 445.248C301.314 431.729 289.435 377.32 289.435 377.32C289.435 377.32 279.706 317.591 304.071 309.247Z" fill="white"/>
<path d="M304.807 321.922C305.154 320.521 299.034 379.665 294.703 391.214C294.703 391.214 299.51 343.078 304.807 321.922Z" fill="#FCEFED"/>
<path d="M132.548 366.673C133.486 400.677 137.145 466.332 148.851 510.152C155.641 507.222 162.256 503.901 168.662 500.206L168.821 500.112C179.135 494.114 189.325 486.398 188.062 479.902C187.781 478.458 187.463 476.062 187.11 472.936C186.475 467.263 185.738 459.222 184.988 450.062C184.988 449.738 184.937 449.413 184.908 449.088C184.778 447.548 184.653 446.011 184.533 444.476C184.273 441.285 184.033 438.093 183.811 434.898C183.479 430.682 183.162 426.465 182.859 422.244V421.819C182.736 420.195 182.613 418.57 182.505 416.946C182.397 415.322 182.267 413.756 182.159 412.154C182.079 411.107 182.007 410.06 181.935 409.014L181.718 405.932C181.646 404.928 181.574 403.925 181.509 402.922C181.307 400.083 181.11 397.249 180.917 394.419C180.037 381.571 179.474 372.549 179.474 372.549C179.474 372.549 174.905 310.553 149.248 308.374C149.169 308.359 128.535 330.894 132.548 366.673Z" fill="#E9FAFF"/>
<path d="M182.83 422.252C183.147 426.467 183.465 430.718 183.783 434.905C183.451 430.68 183.133 426.462 182.83 422.252Z" fill="white"/>
<path opacity="0.34" d="M149.104 525.692C161.648 534.303 173.448 540.85 188.459 546.069C210.833 553.879 234 559.299 256.777 566.9C265.662 569.866 264.384 561.623 265.979 555.43C267.646 548.927 270.325 542.725 273.918 537.053C275.44 534.497 277.363 532.202 279.612 530.254C286.692 524.48 296.046 524.66 296.717 514.035V513.877C295.512 507.878 294.299 501.967 293.108 496.236C287.551 493.298 281.713 491.905 276.978 492.288C251.869 494.258 248.189 495.002 224.921 485.026C204.712 476.365 193.843 471.875 190.278 456.638C189.556 453.614 188.423 445.515 187.052 435.706C185.176 422.259 182.895 405.607 180.816 394.426C181.009 397.261 181.206 400.095 181.408 402.929C181.473 403.932 181.545 404.936 181.618 405.939L181.834 409.021C181.906 410.068 181.978 411.114 182.058 412.161C182.168 413.763 182.284 415.361 182.404 416.954C182.512 418.578 182.635 420.202 182.758 421.826V422.252C183.075 426.467 183.393 430.718 183.711 434.905C183.951 438.105 184.192 441.297 184.432 444.483C184.555 446.02 184.685 447.558 184.808 449.095C184.808 449.42 184.858 449.745 184.887 450.07C185.5 457.439 187.326 465.545 187.009 472.929C186.749 479.079 189.066 486.535 183.552 491.147C175.497 497.896 164.166 496.849 155.405 501.743L155.051 501.952C152.309 512.967 150.006 522.033 149.104 525.692Z" fill="#B0C8D1"/>
<path opacity="0.34" d="M187.658 477.354C187.658 477.354 179.243 471.334 161.33 477.614C161.33 477.614 178.925 467.27 187.658 477.354Z" fill="#B0C8D1"/>
<path opacity="0.34" d="M185.637 475.174C185.637 475.174 175.093 463.762 160.911 470.468C160.911 470.468 176.479 460.24 185.637 475.174Z" fill="#B0C8D1"/>
<path opacity="0.34" d="M155.203 318.537C155.203 318.537 170.12 335.383 179.741 382.055C179.741 382.055 179.286 340.688 155.203 318.537Z" fill="#B0C8D1"/>
<path opacity="0.34" d="M152.366 310.373C153.196 310.828 154.069 311.239 154.957 311.622C155.953 312.055 156.971 312.459 157.959 312.878L158.681 313.173C166.211 316.43 172.811 321.51 177.886 327.956C183.025 334.495 186.46 342.269 191.844 348.599C195.994 353.464 201.169 357.333 206.278 361.151C214.737 367.453 221.853 371.668 232.867 369.611C234.404 369.322 235.898 368.976 237.334 368.564C260.761 361.96 273.117 340.154 289.659 324.174C293.989 320.016 300.65 316.039 301.495 309.781C300.914 309.791 300.337 309.859 299.77 309.983C298.166 310.723 296.748 311.813 295.62 313.173C293.751 315.44 289.233 314.328 288.085 317.028C284.041 326.368 278.062 334.745 270.543 341.604C263.024 348.464 254.136 353.65 244.465 356.821C239.239 358.495 233.639 359.564 228.262 358.777C227.487 358.777 226.715 358.755 225.945 358.712C219.688 358.368 213.57 356.729 207.98 353.897C202.389 351.066 197.447 347.104 193.468 342.262C188.51 336.105 185.313 328.67 180.318 322.542C175.526 316.653 167.71 310.669 159.821 309.99H159.215C157.461 309.897 155.275 309.904 154.488 308.33C154.429 308.211 154.383 308.085 154.351 307.955L152.684 308.345C152.488 309.004 152.381 309.686 152.366 310.373Z" fill="#B0C8D1"/>
<path d="M184.122 230.751C183.78 231.286 183.303 231.721 182.739 232.013C182.175 232.304 181.544 232.442 180.91 232.412C177.619 232.412 173.693 229.178 171.932 226.565C169.406 222.826 168.367 217.838 168.193 213.392C168.071 209.603 169.702 204.391 173.909 203.431C175.901 203.06 177.959 203.384 179.741 204.348C184.259 206.744 184.338 216.698 185.204 221.498C185.702 224.364 185.421 228.182 184.122 230.751Z" fill="#FCDDBF"/>
<path d="M182.772 212.591C183.552 231.914 189.506 250.803 207.253 259.869C209.023 260.692 210.912 261.498 212.918 262.287C214.816 263.009 216.816 263.767 218.937 264.452C222.755 265.744 225.036 266.697 227.208 267.188C229.929 267.794 232.47 267.664 237.673 266.553C239.059 266.257 240.56 265.925 242.04 265.535C248.316 264.005 254.404 261.782 260.191 258.909C263.781 256.871 267.016 254.262 269.768 251.186C269.768 251.186 283.827 235.977 279.222 202.933V201.584C276.906 194.546 271.854 181.373 263.547 170.546C257.001 161.993 248.441 154.862 237.608 153.223C237.608 153.223 223.838 150.156 209.173 162.758C200.75 169.976 192.032 182.405 185.457 203.54L182.772 212.591Z" fill="#FCDDBF"/>
<path d="M234.065 211.855C232.751 214.388 231.431 216.907 230.312 219.564C229.908 220.524 229.532 221.505 229.222 222.501C229.013 223.2 228.847 223.911 228.724 224.631C228.682 224.961 228.665 225.294 228.674 225.627C228.667 225.803 228.68 225.98 228.71 226.154C228.666 225.814 228.71 226.211 228.71 226.255L228.84 226.709C228.926 226.984 228.724 226.522 228.905 226.839C228.97 226.955 229.035 227.07 229.107 227.179C229.151 227.241 229.202 227.299 229.258 227.352L229.511 227.597L229.72 227.742C229.98 227.914 230.252 228.066 230.536 228.196C230.319 228.095 230.832 228.305 230.875 228.319L231.33 228.463C231.784 228.593 232.239 228.694 232.701 228.781C234.52 229.12 233.747 231.899 231.929 231.56C229.395 231.091 226.747 229.921 226.01 227.229C225.188 224.212 226.667 220.848 227.829 218.134C228.991 215.42 230.261 212.959 231.582 210.426C232.441 208.78 234.931 210.238 234.072 211.869L234.065 211.855Z" fill="#273E5B"/>
<path d="M255.406 196.192C255.383 196.958 255.589 197.714 255.995 198.363C256.402 199.013 256.992 199.527 257.691 199.841C258.39 200.155 259.167 200.255 259.923 200.128C260.678 200.001 261.38 199.652 261.937 199.127C262.495 198.601 262.885 197.922 263.057 197.175C263.229 196.428 263.175 195.647 262.903 194.93C262.631 194.214 262.153 193.594 261.529 193.149C260.905 192.704 260.163 192.454 259.397 192.431C258.369 192.402 257.372 192.782 256.624 193.486C255.876 194.191 255.438 195.164 255.406 196.192Z" fill="#485365"/>
<path d="M212.926 192.345C212.905 193.111 213.111 193.866 213.519 194.515C213.927 195.164 214.518 195.677 215.218 195.99C215.918 196.303 216.694 196.401 217.45 196.272C218.205 196.144 218.906 195.794 219.463 195.268C220.02 194.741 220.408 194.061 220.578 193.314C220.749 192.566 220.694 191.785 220.421 191.069C220.147 190.353 219.668 189.734 219.043 189.291C218.418 188.847 217.676 188.599 216.91 188.577C215.883 188.552 214.887 188.933 214.141 189.639C213.395 190.345 212.958 191.318 212.926 192.345Z" fill="#485365"/>
<path d="M247.503 242.408C237.24 247.533 223.232 247.548 214.116 239.904C212.673 238.713 214.744 236.677 216.159 237.861C219.71 240.842 224.509 242.416 229.07 242.914C234.899 243.564 240.791 242.524 246.045 239.918C247.705 239.088 249.17 241.578 247.489 242.408H247.503Z" fill="#EF6962"/>
<path d="M209.151 162.809C231.863 154.414 255.63 166.05 263.525 170.561C256.979 162.008 248.42 154.876 237.587 153.238C237.587 153.274 223.816 150.206 209.151 162.809Z" fill="#F7BCA7"/>
<path d="M154.466 306.641C154.691 305.916 155.132 305.276 155.729 304.808C156.855 304.071 158.09 303.516 159.389 303.162C165.458 300.896 167.638 295.944 171.463 291.289C172.185 290.415 173.065 289.491 173.931 288.51C175.577 286.655 177.179 284.619 177.54 282.389C177.936 280.46 177.779 278.458 177.085 276.614C176.933 276.248 176.755 275.893 176.551 275.553C175.382 273.503 173.578 271.735 173.296 269.411C172.791 265.26 177.395 261.319 175.851 257.429C175.129 255.617 173.303 254.542 171.91 253.199C168.959 250.312 169.276 246.847 168.251 243.224C167.003 238.785 166.353 234.425 164.967 229.986C162.427 221.852 161.777 219.159 160.24 204.204C160.24 204.204 158.732 163.494 182.188 134.954C182.188 134.954 210.551 92.3684 263.135 113.885C263.135 113.885 286.028 125.08 295.237 147.615C300.571 156.926 307.658 173.145 306.72 192.446C306.258 201.879 305.731 211.284 303.328 220.451C300.585 230.874 299.553 241.903 294.97 251.821C292.932 256.39 290.051 260.533 286.476 264.033C284.419 265.99 275.65 269.476 277.656 273.099C278.826 275.229 282.665 274.694 283.589 276.939C283.82 277.506 283.82 278.141 283.589 278.708C282.968 280.433 280.846 282.057 280.702 284.049C280.69 284.623 280.818 285.192 281.076 285.705C281.334 286.218 281.714 286.661 282.182 286.994C282.988 287.628 283.906 288.105 284.888 288.401C286.967 289.044 289.341 289.383 290.748 291.05C291.237 291.624 291.579 292.307 291.744 293.042C292.343 295.417 291.542 298.304 291.824 300.881C291.837 301.252 291.963 301.609 292.185 301.906C292.457 302.159 292.799 302.324 293.166 302.383C293.751 302.541 294.314 302.729 294.862 302.938C298.153 304.151 303.97 308.345 308.178 312.401C306.171 310.459 304.216 309.673 302.159 310.041C301.004 310.25 300.881 309.536 299.806 310.041C298.2 310.778 296.782 311.869 295.656 313.231C293.787 315.498 289.269 314.386 288.121 317.086C284.077 326.426 278.099 334.803 270.579 341.662C263.06 348.521 254.172 353.708 244.501 356.878C239.275 358.553 233.675 359.621 228.298 358.834C227.528 358.834 226.756 358.813 225.981 358.769C219.724 358.426 213.606 356.787 208.016 353.955C202.425 351.123 197.484 347.161 193.504 342.32C188.546 336.163 185.349 328.728 180.354 322.6C175.562 316.71 167.746 310.727 159.858 310.048H159.251C157.498 309.954 155.311 309.961 154.524 308.388C154.465 308.268 154.419 308.142 154.387 308.013C154.28 307.557 154.307 307.081 154.466 306.641ZM279.223 202.962V201.612C276.906 194.575 271.854 181.402 263.547 170.575C257.001 162.022 248.441 154.89 237.608 153.252C237.608 153.252 223.838 150.184 209.173 162.787C200.75 170.005 192.032 182.434 185.457 203.568L182.794 212.569C183.573 231.892 189.527 250.781 207.275 259.847C209.104 260.786 210.997 261.594 212.94 262.265C214.838 262.987 216.837 263.709 218.959 264.43C222.777 265.722 225.058 266.675 227.23 267.166C229.951 267.772 232.491 267.642 237.695 266.531C239.081 266.235 240.582 265.903 242.061 265.513C248.426 264.286 254.554 262.049 260.213 258.887C263.792 256.852 267.019 254.251 269.768 251.185C269.768 251.185 283.827 236.028 279.223 202.962Z" fill="#E9FAFF"/>
<path d="M227.223 267.217C229.944 267.823 232.484 267.693 237.688 266.582C239.074 266.286 240.575 265.954 242.054 265.564C237.177 266.601 232.209 267.154 227.223 267.217Z" fill="white"/>
<path opacity="0.34" d="M287.544 225.201C286.822 229.611 296.132 145.24 230.037 126.971C230.023 126.993 303.768 124.149 287.544 225.201Z" fill="#B0C8D1"/>
<path opacity="0.34" d="M235.01 142.014C235.01 142.014 184.649 150.856 176.811 219.152C176.811 219.152 169.182 138.585 235.01 142.014Z" fill="#B0C8D1"/>
<path opacity="0.34" d="M278.79 269.389C278.79 269.389 264.297 279.855 250.188 280.563C250.188 280.563 270.345 286.092 278.79 269.389Z" fill="#B0C8D1"/>
<path opacity="0.34" d="M175.873 257.407C175.873 257.407 188.438 282.331 223.369 285.153C223.369 285.153 186.763 284.857 175.873 257.407Z" fill="#B0C8D1"/>
<path opacity="0.34" d="M173.931 288.51C193.418 302.7 219.399 299.409 226.169 298.232C227.244 298.045 227.836 297.915 227.836 297.915H226.256C203.161 297.193 183.422 281.645 176.565 275.539C176.769 275.879 176.948 276.234 177.099 276.6C177.793 278.443 177.951 280.445 177.554 282.374C177.179 284.619 175.577 286.655 173.931 288.51Z" fill="#B0C8D1"/>
<path opacity="0.34" d="M255.832 296.421C262.089 294.739 273.961 291.245 282.211 286.98C281.743 286.647 281.363 286.204 281.105 285.691C280.847 285.178 280.719 284.609 280.731 284.035C280.868 282.042 282.99 280.426 283.618 278.693C282.831 280.101 268.714 292.213 255.832 296.421Z" fill="#B0C8D1"/>
<path opacity="0.34" d="M240.307 313.737C246.855 314.305 253.437 314.38 259.996 313.96C271.796 313.238 286.165 310.597 294.891 302.924C294.342 302.715 293.779 302.527 293.195 302.368C292.828 302.31 292.486 302.144 292.213 301.892C291.991 301.595 291.865 301.237 291.852 300.867C291.571 298.29 292.372 295.403 291.773 293.028L291.123 293.129C291.123 293.129 273.91 305.761 256.517 311.282C250.945 313.044 245.352 314.083 240.307 313.737Z" fill="#B0C8D1"/>
<path d="M431.166 438.304C431.238 439.394 431.303 440.47 431.361 441.574C431.404 440.852 431.448 440.131 431.498 439.358C431.424 438.997 431.313 438.643 431.166 438.304Z" fill="#1E2A30"/>
<path d="M415.699 620.746L426.792 730.459V730.568L427.723 739.633L428.286 745.148L429.73 808.19L429.881 814.765L434.536 1018.46C436.919 1019.74 439.415 1020.81 441.992 1021.64C442.713 1021.88 443.435 1022.09 444.157 1022.27L444.878 1022.46C445.355 1022.57 445.831 1022.67 446.322 1022.77L447.044 1022.9L447.643 1023L448.09 1023.07L448.913 1023.18L449.396 1023.23L450.183 1023.31L451.129 1023.38L452.262 1023.42H452.897C454.068 1023.43 455.239 1023.37 456.404 1023.26C470.283 1021.87 478.684 1012.21 478.684 1012.21L486.623 930.108L497.939 804.891L510.266 701.248L526.317 609.248C507.119 614.199 451.258 627.206 444.193 613.052C444.193 602.795 441.977 587.565 439.357 570.3C436.723 552.89 433.67 533.409 432.046 514.844C429.477 543.398 424.829 587.94 420.686 616.394C419.777 618.205 418.052 619.649 415.699 620.746Z" fill="#1E2A30"/>
<path d="M330.696 520.503L330.616 617.599C330.616 617.599 332.247 617.916 335.076 618.415C350.103 621.071 398.927 628.823 415.7 620.775C418.052 619.649 419.777 618.205 420.687 616.393C422.917 601.026 425.306 580.968 427.427 561.27C427.507 560.548 427.586 559.826 427.658 559.104L427.723 558.505C428.135 554.701 428.532 550.912 428.914 547.188C428.922 546.987 428.942 546.787 428.972 546.588C429.044 545.867 429.123 545.145 429.196 544.423C430.285 533.668 431.267 523.491 432.083 514.829C432.934 524.595 434.19 534.621 435.568 544.423C435.662 545.145 435.763 545.867 435.864 546.588L435.951 547.188C436.492 551.006 437.055 554.781 437.611 558.505C437.629 558.706 437.658 558.906 437.697 559.104C437.813 559.821 437.921 560.543 438.022 561.27C438.491 564.33 438.946 567.347 439.394 570.299C442.013 587.565 444.229 602.78 444.229 613.052C451.324 627.206 507.156 614.199 526.353 609.248C530.395 608.208 532.849 607.523 532.849 607.523V356.373L553.858 258.62L486.017 233.797C484.601 233.192 483.239 232.468 481.946 231.632V274.68L468.955 289.946L468.486 290.495L468.97 290.682L481.96 295.735C477.529 308.893 473.509 321.38 469.814 333.413C456.159 377.832 446.95 415.965 438.145 458.11C437.212 462.6 436.278 467.143 435.345 471.738C434.714 474.847 434.084 477.974 433.454 481.121C432.876 484.009 432.299 486.91 431.722 489.826C431.722 491.674 431 485.135 430.783 473.16C430.711 469.457 430.69 465.22 430.783 460.586C430.783 459.323 430.827 458.031 430.856 456.703C430.856 455.786 430.899 454.855 430.928 453.91C430.928 453.498 430.928 453.087 430.964 452.668C430.964 451.571 431.036 450.452 431.087 449.312C431.081 449.011 431.093 448.709 431.123 448.41C431.18 446.995 431.248 445.551 431.325 444.079C431.368 443.234 431.411 442.383 431.462 441.516C431.404 440.434 431.339 439.351 431.267 438.247C430.502 435.814 429.737 433.389 428.95 430.964C428.561 429.751 428.168 428.548 427.774 427.355C427.723 427.203 427.68 427.052 427.63 426.907C426.966 424.872 426.292 422.834 425.609 420.794C423.508 414.471 421.329 408.112 419.063 401.608L417.872 398.18C417.388 396.801 416.912 395.415 416.428 394.037C415.779 392.179 415.12 390.31 414.451 388.428C413.291 385.127 412.103 381.778 410.886 378.381C402.99 356.164 394.07 331.363 383.72 300.795L383.828 294.169L395.217 289.708L384.103 276.651L381.757 273.893V230.874C380.464 231.71 379.102 232.435 377.687 233.04L309.845 257.855L336.707 375.4L332.875 474.474L330.696 520.503Z" fill="#131A1E"/>
<path d="M335.076 618.415C337.112 643.678 347.346 679.832 351.503 700.613C355.111 718.658 360.625 731.773 362.256 750.215C364.032 770.274 363.765 794.577 365.273 814.642L394.142 1050.42L425.392 1053.94L454.427 1050.56L452.875 1023.44L438.874 778.322L439.227 625.171L439.35 570.314C436.716 552.904 433.663 533.423 432.039 514.858C429.47 543.413 424.822 587.955 420.679 616.408C419.77 618.22 418.045 619.663 415.692 620.789C398.927 628.823 350.102 621.071 335.076 618.415Z" fill="#1E2A30"/>
<path d="M468.464 290.473L468.948 290.661L468.933 289.924L468.464 290.473Z" fill="white"/>
<path d="M459.688 240.359C459.962 238.915 460.222 237.508 460.482 236.1L460.331 235.985L459.688 240.359Z" fill="white"/>
<path d="M405.386 247.8C406.591 254.08 407.703 259.753 408.273 263.305C410.438 276.593 413.202 277.264 418.377 312.56C419.784 322.225 421.365 334.488 423.162 350.317C423.285 351.371 428.9 390.103 433.042 421.833C433.321 419.09 433.644 416.306 434.009 413.482C436.701 392.254 439.783 370.86 443.579 345.185C446.928 322.449 450.797 296.348 455.343 264.041C455.849 260.432 456.953 254.766 458.165 248.457C455.517 245.722 450.566 241.326 445.636 237.096L445.535 237.009C440.656 232.83 435.814 228.803 433.266 226.717L433.028 226.522L432.573 226.146L431.981 225.656L431.823 225.526L431.693 225.417L431.534 225.287L431.454 225.223L431.382 225.287L431.216 225.417L430.971 225.62L430.819 225.742L430.653 225.879L430.473 226.031C426.475 229.301 411.485 241.708 405.386 247.8Z" fill="white"/>
<path d="M282.716 630.447C283.66 627.083 284.896 623.808 286.411 620.66C290.864 611.522 296.659 606.945 302.455 604.996C305.037 604.132 307.743 603.696 310.466 603.704C314.829 603.754 319.143 604.636 323.175 606.303C324.32 606.753 325.436 607.274 326.517 607.862L330.66 520.525L332.291 486.773L332.875 474.503L336.708 375.429L323.63 318.407L309.737 257.869C286.36 276.788 275.996 459.309 275.996 459.309C270.713 496.229 282.716 630.447 282.716 630.447Z" fill="#131A1E"/>
<path d="M320.346 469.818C320.346 469.818 310.754 458.45 282.723 467.068C282.723 467.068 303.292 448.439 320.346 469.818Z" fill="#1E2A30"/>
<path d="M332.875 474.474L332.29 486.744C332.439 488.448 332.598 490.132 332.767 491.797C336.029 486.492 343.881 394.895 343.549 385.296C342.741 361.953 324.019 314.675 323.63 318.349L336.707 375.371L332.875 474.474Z" fill="black"/>
<path d="M407.284 209.495C409.492 211.523 421.617 222.4 431.44 225.223C435.049 224.19 438.946 222.076 442.562 219.708C447.107 216.67 451.416 213.292 455.452 209.603L455.762 196.942C451.688 199.158 447.311 200.763 442.771 201.706C429.968 204.326 426.944 204.059 419.402 201.771H419.351C415.285 200.378 411.347 198.637 407.58 196.567L407.284 209.495Z" fill="#FCD2B1"/>
<path d="M419.366 201.771C426.192 208.838 434.005 214.88 442.562 219.708C447.107 216.67 451.416 213.292 455.452 209.603L455.762 196.942C451.688 199.158 447.311 200.763 442.771 201.706C429.968 204.326 426.944 204.059 419.402 201.771H419.366Z" fill="#F4C5A2"/>
<path d="M366.305 146.02C366.894 147.562 367.599 149.058 368.412 150.495C371.66 155.988 377.47 161.906 380.682 156.175C380.27 152.891 379.873 149.152 379.52 144.901H379.484C377.448 141.458 378.964 137.416 377.889 133.879C377.203 131.591 375.507 130.609 374.525 128.675C374.035 127.7 373.529 126.704 373.031 125.679C371.449 125.342 369.804 125.455 368.283 126.004C361.159 128.365 363.599 139.199 366.305 146.02Z" fill="#EDC2A2"/>
<path d="M482.646 158.146C485.93 159.907 490.383 155.057 493.075 150.495C493.891 149.058 494.598 147.562 495.19 146.02C497.889 139.199 500.299 128.364 493.198 126.019C491.267 125.284 489.128 125.317 487.222 126.112C487.07 131.432 486.702 137.329 484.573 141.588C484.329 147.146 483.685 152.68 482.646 158.146Z" fill="#EDC2A2"/>
<path d="M488.976 89.1997C489.308 90.2463 489.618 91.3074 489.849 92.3901L489.936 92.8231C490.188 91.5239 490.34 90.8238 490.34 90.8238C489.863 90.2752 489.409 89.7338 488.976 89.1997Z" fill="#F5E0CD"/>
<path d="M379.527 144.901C379.881 149.152 380.249 152.891 380.689 156.175C383.41 177.909 385.286 182.824 407.595 196.596C411.284 198.819 415.239 200.567 419.366 201.8H419.416C426.958 204.088 429.982 204.355 442.786 201.735C447.405 200.79 451.619 198.935 455.777 196.971C475.848 187.473 480.315 170.265 482.661 158.16C483.699 152.68 484.338 147.132 484.573 141.559C484.515 141.682 484.458 141.797 484.393 141.913C484.934 140.902 484.183 137.697 484.126 136.542C483.996 133.836 484.053 131.252 483.96 128.66C483.91 126.244 483.62 123.838 483.094 121.479C483.007 121.031 482.856 120.598 482.646 120.194C482.321 119.724 481.953 119.284 481.549 118.88C480.418 117.291 479.737 115.425 479.579 113.481C479.579 112.102 480.055 110.774 480.221 109.403C480.546 106.703 479.543 103.989 478.056 101.701C476.479 99.4847 474.762 97.3704 472.917 95.3711C470.005 91.9226 467.512 88.1404 465.491 84.1039C464.047 81.2167 462.604 77.9036 459.573 76.6838C456.13 75.2402 451.8 76.9148 448.386 77.7665C444.503 78.7265 440.613 79.7154 436.68 80.4877C429.109 81.9313 420.982 82.8263 413.52 80.3578C409.291 78.9575 404.527 76.1064 399.887 76.7488C390.504 78.0119 388.072 89.4019 388.621 97.0313C389.234 105.758 383.287 107.858 381.714 115.394C381.165 117.999 382.385 130.927 381.714 138.794C381.418 142.129 380.783 144.547 379.527 144.901Z" fill="#FCD2B1"/>
<path d="M452.197 128.025C452.197 128.873 452.448 129.702 452.919 130.407C453.39 131.112 454.06 131.662 454.843 131.986C455.627 132.311 456.489 132.396 457.32 132.23C458.152 132.065 458.916 131.657 459.515 131.057C460.115 130.457 460.523 129.693 460.688 128.862C460.854 128.03 460.769 127.168 460.445 126.384C460.12 125.601 459.571 124.931 458.866 124.46C458.161 123.989 457.332 123.738 456.484 123.738C455.922 123.737 455.365 123.847 454.845 124.062C454.325 124.276 453.853 124.592 453.455 124.989C453.058 125.387 452.743 125.859 452.528 126.379C452.313 126.899 452.203 127.456 452.204 128.018L452.197 128.025Z" fill="#273E5B"/>
<path d="M403.466 126.993C403.466 127.841 403.718 128.67 404.189 129.375C404.66 130.08 405.329 130.63 406.113 130.954C406.896 131.279 407.758 131.363 408.59 131.198C409.421 131.033 410.185 130.624 410.785 130.025C411.384 129.425 411.793 128.661 411.958 127.829C412.123 126.998 412.039 126.136 411.714 125.352C411.39 124.569 410.84 123.899 410.135 123.428C409.43 122.957 408.601 122.706 407.753 122.706C407.191 122.705 406.634 122.815 406.114 123.029C405.595 123.244 405.123 123.559 404.725 123.957C404.327 124.355 404.012 124.827 403.797 125.347C403.583 125.866 403.473 126.423 403.474 126.986L403.466 126.993Z" fill="#273E5B"/>
<path d="M445.6 176.407C441.797 179.042 437.387 180.846 432.703 180.868C427.651 180.868 422.83 178.869 418.673 176.09C417.28 175.159 418.586 172.899 419.987 173.83C423.776 176.371 428.07 178.284 432.703 178.262C436.947 178.262 440.844 176.537 444.251 174.148C445.636 173.195 446.943 175.455 445.571 176.407H445.6Z" fill="#273E5B"/>
<path d="M435.28 139.011C436.839 142.49 438.614 145.81 439.834 149.434C441.472 154.263 442.771 160.174 440.375 164.981C438.968 167.818 436.218 169.543 433.237 170.351C431.613 170.784 430.921 168.273 432.516 167.832C434.832 167.212 436.846 165.999 437.965 163.927C438.895 161.966 439.248 159.781 438.982 157.626C438.643 152.978 436.817 148.344 434.904 144.208C434.298 142.909 433.598 141.646 433.006 140.332C432.842 140.031 432.799 139.679 432.887 139.347C432.974 139.016 433.185 138.73 433.475 138.549C433.774 138.377 434.128 138.329 434.461 138.415C434.795 138.502 435.081 138.716 435.258 139.011H435.28Z" fill="#273E5B"/>
<path d="M366.457 96.2084L366.782 98.3233L369.055 113.236C369.274 114.867 369.587 116.484 369.993 118.079C370.778 120.703 371.797 123.252 373.039 125.694C373.537 126.719 374.042 127.715 374.533 128.689C375.514 130.624 377.21 131.576 377.896 133.893C378.971 137.43 377.456 141.472 379.491 144.915H379.527C380.783 144.562 381.418 142.144 381.692 138.816C382.414 130.949 381.173 118.021 381.692 115.415C383.266 107.851 389.213 105.779 388.599 97.0529C388.051 89.4235 390.483 78.0335 399.865 76.7704C404.506 76.1496 409.247 79.0007 413.498 80.3794C420.961 82.8479 429.087 81.9818 436.658 80.5093C440.592 79.737 444.482 78.7481 448.365 77.7881C451.778 76.9364 456.109 75.2979 459.551 76.7054C462.553 77.9253 464.026 81.2239 465.469 84.1255C467.49 88.162 469.983 91.9442 472.896 95.3928C474.657 97.4715 476.569 99.4276 478.034 101.723C479.499 104.018 480.495 106.725 480.199 109.425C480.033 110.796 479.528 112.124 479.557 113.503C479.716 115.447 480.396 117.312 481.527 118.902C481.932 119.306 482.299 119.745 482.624 120.215C482.834 120.62 482.985 121.053 483.072 121.5C483.598 123.859 483.888 126.265 483.938 128.682C484.032 131.273 483.938 133.857 484.104 136.564C484.162 137.719 484.912 140.895 484.371 141.934C484.436 141.819 484.494 141.703 484.551 141.581C486.681 137.322 487.049 131.425 487.2 126.105C487.258 124.207 487.28 122.388 487.352 120.742C487.749 111.359 491.783 102.264 489.914 92.8159L489.827 92.3829C489.591 91.3052 489.299 90.2404 488.954 89.1925C488.159 86.9892 487.525 84.7313 487.056 82.4365C486.269 77.6799 486.507 72.8438 482.509 69.372C481.441 68.4553 480.178 67.7479 479.276 66.6724C478.049 65.2288 477.623 63.2944 476.952 61.526C473.206 51.7024 462.092 47.22 452.139 43.8131C444.135 41.0703 436.03 38.313 427.601 37.5696C425.217 37.2446 422.792 37.4416 420.492 38.147C417.699 39.1647 415.555 41.3806 413.231 43.1996C409.292 46.3378 404.684 48.5284 399.764 49.6019C395.758 50.4753 391.334 50.7063 388.217 53.3553C385.669 55.5207 384.767 58.5739 383.504 61.5332C383.035 62.6304 382.219 63.6986 381.923 64.8752C381.476 66.593 382.508 68.6357 381.786 70.2814C381.389 70.9283 380.798 71.4334 380.097 71.725L374.049 75.0669C372.705 75.6797 371.523 76.5994 370.599 77.752C368.737 80.5021 370.159 84.4936 368.514 87.3808C368.045 88.2109 367.344 88.8966 366.875 89.7267C365.829 91.7116 366.125 94.0502 366.457 96.2084Z" fill="black"/>
<path d="M431.44 225.201C431.44 225.201 452.37 242.307 458.454 248.768L460.331 235.927L463.059 217.304L455.95 209.141C455.95 209.141 455.776 209.307 455.452 209.596C451.416 213.285 447.107 216.663 442.562 219.701C441.84 220.177 441.118 220.639 440.361 221.087C437.574 222.831 434.576 224.213 431.44 225.201Z" fill="white"/>
<path d="M399.814 217.326L402.138 233.206L404.419 248.768C410.51 242.307 431.44 225.201 431.44 225.201C429.123 224.486 426.885 223.533 424.764 222.357C416.775 218.026 409.009 211.054 407.284 209.473L406.931 209.141L399.814 217.326Z" fill="white"/>
<path d="M532.777 427.918L537.619 470.547L537.461 603.502C538.125 603.228 561.883 593.534 575.668 618.328C577.879 622.401 579.623 626.711 580.865 631.176C580.865 631.176 599.788 492.309 594.512 455.389C594.512 455.389 577.242 277.524 553.865 258.62L532.777 356.373V427.918Z" fill="#131A1E"/>
<path d="M537.619 470.554C537.619 470.554 549.225 450.734 561.169 455.397C561.169 455.389 542.462 446.591 537.619 470.554Z" fill="black"/>
<path d="M387.61 71.0538C387.61 71.0538 422.469 16.5003 466.53 64.009C466.53 64.009 429.333 20.4702 387.61 71.0538Z" fill="#515151"/>
<path d="M389.862 70.8589C389.862 70.8589 429.225 32.019 459.031 72.8511C459.031 72.8511 431.96 34.7329 389.862 70.8589Z" fill="#515151"/>
<path d="M407.717 72.851C409.11 70.8516 429.643 44.3905 458.057 70.8011C458.057 70.8011 432.162 48.1511 407.717 72.851Z" fill="#515151"/>
<path d="M405.747 75.0092C405.747 75.0092 422.022 62.0168 443.146 76.1496C443.146 76.1496 418.023 64.9617 405.747 75.0092Z" fill="#515151"/>
<path d="M469.265 78.1779C469.265 78.1779 484.075 89.7267 483.353 100.763C483.353 100.763 483.894 83.5986 469.265 78.1779Z" fill="#515151"/>
<path d="M476.324 72.851C480.183 76.7365 483.075 81.4739 484.769 86.6817C486.462 91.8895 486.91 97.4222 486.074 102.834C486.074 102.834 493.118 85.6774 476.324 72.851Z" fill="#515151"/>
<path d="M385.524 85.8938C385.524 85.8938 372.534 94.5554 374.504 107.757C374.504 107.764 374.15 96.3815 385.524 85.8938Z" fill="#515151"/>
<path d="M382.19 84.1399C382.19 84.1399 368.045 97.0529 371.783 108.753C371.783 108.753 369.546 96.4249 382.19 84.1399Z" fill="#515151"/>
<path d="M383.865 78.4955C383.865 78.4955 372.093 83.5481 371.653 95.6526C371.653 95.6526 371.22 82.1045 383.865 78.4955Z" fill="#515151"/>
<path d="M385.459 92.722C385.459 92.722 384.175 103.744 379.844 108.255C379.844 108.27 384.564 106.826 385.459 92.722Z" fill="#515151"/>
<path d="M483.909 106.992C483.909 106.992 485.165 115.322 488.427 118.021C488.427 118.021 484.573 117.119 483.909 106.992Z" fill="#515151"/>
<path d="M483.909 119.169C483.909 119.169 484.472 126.979 487.351 129.628C487.351 129.628 483.851 130.443 483.909 119.169Z" fill="#515151"/>
<path d="M379.844 114.217C379.844 114.217 380.068 121.168 376.611 123.449C376.611 123.427 381.1 123.254 379.844 114.217Z" fill="#515151"/>
<path d="M380.949 128.855C380.949 128.855 381.151 133.02 378.336 134.911C378.336 134.911 383.114 135.582 380.949 128.855Z" fill="#515151"/>
<path d="M424.815 256.079L418.319 312.56C419.727 322.225 421.307 334.488 423.104 350.317C423.227 351.371 428.842 390.103 432.985 421.833C433.268 419.09 433.591 416.306 433.952 413.482C436.644 392.254 439.725 370.86 443.522 345.185L437.806 256.079L445.6 237.096L445.499 237.009L433.23 226.717L432.992 226.522L432.537 226.146L431.945 225.656L431.787 225.526L431.657 225.417L431.498 225.287L431.418 225.223L431.346 225.287L431.18 225.417L430.935 225.62L430.783 225.742L430.617 225.879L430.437 226.031L416.919 237.471L424.815 256.079Z" fill="black"/>
<path d="M400.543 216.59C400.758 220.515 401.202 224.424 401.871 228.297C401.315 223.866 400.854 219.881 400.543 216.59Z" fill="#26333B"/>
<path d="M384.023 276.679L395.138 289.737L383.749 294.198L383.641 300.824C393.99 331.392 402.911 356.193 410.806 378.41C412.019 381.817 413.207 385.166 414.372 388.457C415.04 390.343 415.7 392.213 416.349 394.065C416.833 395.451 417.309 396.83 417.793 398.209L418.983 401.637C421.25 408.133 423.429 414.5 425.529 420.822C426.215 422.865 426.893 424.908 427.55 426.936C427.601 427.08 427.644 427.232 427.695 427.384L428.871 430.993C429.658 433.418 430.423 435.843 431.188 438.276C431.303 438.629 431.411 438.997 431.52 439.329C431.873 433.757 432.35 427.889 432.999 421.804C428.856 390.045 423.242 351.342 423.119 350.288C421.322 334.459 419.741 322.196 418.334 312.531C413.195 277.235 410.395 276.564 408.23 263.276C407.652 259.724 406.541 254.051 405.343 247.771C404.145 241.492 402.795 234.397 401.835 228.333V228.269C401.177 224.387 400.746 220.471 400.543 216.539L400.435 216.626C399.28 217.6 388.844 226.349 381.671 230.824V273.922L384.023 276.679Z" fill="#2D2D2D"/>
<path d="M381.677 230.874C388.844 226.399 399.28 217.651 400.442 216.676L381.677 230.874Z" fill="#1E2A30"/>
<path d="M381.678 295.006L383.641 300.824L383.749 294.197L381.678 295.006Z" fill="#2D2D2D"/>
<path d="M462.156 226.017C462.623 223.149 462.924 220.257 463.059 217.355C462.835 219.643 462.525 222.588 462.156 226.017Z" fill="#26333B"/>
<path d="M550.913 272.305C551.779 267.65 528.699 341.158 528.208 387.743C528.208 387.743 542.772 316.191 550.913 272.305Z" fill="black"/>
<path d="M430.747 473.211C430.964 485.185 431.685 491.725 431.685 489.877C432.263 486.946 432.84 484.045 433.417 481.172C434.053 478.006 434.683 474.878 435.308 471.789C436.237 467.193 437.17 462.651 438.109 458.161C446.914 416.015 456.152 377.883 469.778 333.463C473.473 321.431 477.493 308.922 481.924 295.785L468.933 290.697L468.45 290.509L468.919 289.961L481.91 274.695V231.61C474.743 227.135 464.307 218.387 463.145 217.413L463.037 217.326C462.902 220.228 462.601 223.12 462.135 225.988C461.687 229.07 461.103 232.484 460.46 236.035C460.2 237.443 459.941 238.864 459.666 240.294V240.359L458.447 248.746L458.129 248.414C456.917 254.722 455.812 260.417 455.307 263.997C450.746 296.305 446.892 322.405 443.543 345.142C439.776 370.816 436.665 392.21 433.973 413.439C433.612 416.263 433.29 419.047 433.006 421.79C432.357 427.874 431.88 433.743 431.527 439.315C431.476 440.037 431.433 440.802 431.389 441.531C430.992 448.431 430.79 454.841 430.711 460.594C430.653 465.285 430.675 469.508 430.747 473.211Z" fill="#2D2D2D"/>
<path d="M463.167 217.413C464.321 218.387 474.758 227.135 481.931 231.61L463.167 217.413Z" fill="#1E2A30"/>
<path d="M458.137 248.457L458.454 248.789L459.674 240.402C459.169 243.123 458.642 245.844 458.137 248.457Z" fill="#1E2A30"/>
<path d="M311.361 263.6C311.361 263.6 331.215 320.622 330.761 336.863C330.739 336.863 312.949 269.31 311.361 263.6Z" fill="black"/>
<path d="M371.884 314.22C373.19 313.325 371.487 295.266 366.752 295.894C364.587 296.182 356.36 314.22 356.36 314.22L354.628 305.046C351.777 308.97 349.72 313.413 348.572 318.125C348.572 318.125 365.756 318.399 371.884 314.22Z" fill="#DEDCDD"/>
<path d="M374.619 314.22C374.619 314.22 349.59 318.912 345.079 316.819C345.079 316.819 356.547 325.531 374.619 314.22Z" fill="black"/>
<path d="M324.799 456.429L292.322 445.602L268.866 441.993C268.866 441.993 265.257 448.013 276.083 451.622L287.544 454.624L302.577 461.842L284.534 457.028L269.501 458.233C269.501 458.233 265.286 465.451 273.109 467.256C273.109 467.256 270.699 475.073 279.121 474.474L284.534 476.877C284.534 476.877 277.916 478.682 290.546 486.499L304.981 496.128L318.217 503.346L327.238 508.146L334.455 512.96C334.455 512.96 342.878 502.133 338.663 493.71C338.634 493.71 325.405 458.226 324.799 456.429Z" fill="#FCDDBF"/>
<path d="M276.163 465.754L283.697 465.487L298.485 472.482L283.697 466.837L276.163 465.754Z" fill="#F0D0B4"/>
<path d="M280.738 473.557L287.731 475.174L296.876 482.976L287.457 476.783L280.738 473.557Z" fill="#F0D0B4"/>
<path d="M259.253 526.003C259.39 526.537 259.78 527.908 260.306 529.756C262.334 536.801 266.448 550.854 266.571 552.731L266.65 552.796C269.268 545.861 270.535 538.489 270.382 531.077C270.121 520.183 267.287 509.506 262.111 499.917L261.901 499.556L260.84 500.393L261.562 500.119C256.756 508.615 256.792 516.251 259.253 526.003Z" fill="#F9EFED"/>
<path d="M259.252 526.003C259.39 526.537 259.779 527.908 260.306 529.756C263.475 530.29 267.076 530.81 270.41 531.077C273.745 531.344 276.826 531.358 278.797 530.86C285.776 529.092 304.374 532.607 304.374 532.607C311.635 535.083 312.587 530.341 312.587 530.341C321.818 531.51 315.705 523.217 315.705 523.217C319.415 523.614 314.464 518.027 314.464 518.027L293.318 506.89L309.917 514.043C309.917 514.043 310.639 515.147 315.149 514.382C319.66 513.617 305.984 505.258 295.302 499.989C291.535 498.127 285.574 494.41 281.149 494.301C277.389 494.215 268.49 497.521 262.103 499.91L261.569 500.105C256.755 508.615 256.791 516.251 259.252 526.003Z" fill="#FCDDBF"/>
<path d="M152.034 515.768C168.006 532.506 203.825 541.291 235.58 552.247C249.762 557.134 265.221 556.982 266.535 552.911C266.549 552.852 266.549 552.79 266.535 552.731C266.412 550.854 262.298 536.801 260.27 529.756C259.743 527.908 259.354 526.537 259.216 526.003C256.755 516.251 256.719 508.615 261.54 500.112L260.819 500.386L261.88 499.549C232.116 495.218 208.797 481.367 183.934 473.095C167.565 479.144 139.476 502.602 152.034 515.768Z" fill="#E9FAFF"/>
<path d="M260.84 500.386L261.562 500.112C261.663 499.924 261.778 499.737 261.887 499.549L260.84 500.386Z" fill="white"/>
<path d="M445.607 237.096L458.136 248.457L457.812 250.153L445.355 237.724L445.607 237.096Z" fill="#666666"/>
<path d="M417.186 238.121L405.725 249.562L405.386 247.8L416.919 237.486L417.186 238.121Z" fill="#666666"/>
<path d="M462.46 180.493C453.826 180.493 446.827 173.493 446.827 164.858C446.827 156.224 453.826 149.224 462.46 149.224C471.093 149.224 478.092 156.224 478.092 164.858C478.092 173.493 471.093 180.493 462.46 180.493Z" fill="url(#paint0_radial)"/>
<path d="M261.925 244.673C253.292 244.673 246.293 237.673 246.293 229.038C246.293 220.404 253.292 213.404 261.925 213.404C270.559 213.404 277.558 220.404 277.558 229.038C277.558 237.673 270.559 244.673 261.925 244.673Z" fill="url(#paint1_radial)"/>
<path d="M399.606 180.493C390.973 180.493 383.974 173.493 383.974 164.858C383.974 156.224 390.973 149.224 399.606 149.224C408.24 149.224 415.239 156.224 415.239 164.858C415.239 173.493 408.24 180.493 399.606 180.493Z" fill="url(#paint2_radial)"/>
<path d="M200.661 239.567C192.028 239.567 185.029 232.567 185.029 223.933C185.029 215.298 192.028 208.299 200.661 208.299C209.295 208.299 216.293 215.298 216.293 223.933C216.293 232.567 209.295 239.567 200.661 239.567Z" fill="url(#paint3_radial)"/>
<rect x="43.0996" y="318.575" width="565.674" height="214.425" fill="url(#paint4_linear)"/>
</g>
<defs>
<radialGradient id="paint0_radial" cx="0" cy="0" r="1" gradientUnits="userSpaceOnUse" gradientTransform="translate(462.46 164.858) rotate(180) scale(15.6324 15.6342)">
<stop stop-color="#F69EA4"/>
<stop offset="1" stop-color="#FCD2B1"/>
</radialGradient>
<radialGradient id="paint1_radial" cx="0" cy="0" r="1" gradientUnits="userSpaceOnUse" gradientTransform="translate(261.925 229.038) rotate(180) scale(15.6324 15.6342)">
<stop stop-color="#F69EA4"/>
<stop offset="1" stop-color="#FCDDBF"/>
</radialGradient>
<radialGradient id="paint2_radial" cx="0" cy="0" r="1" gradientUnits="userSpaceOnUse" gradientTransform="translate(399.606 164.858) rotate(180) scale(15.6324 15.6342)">
<stop stop-color="#F69EA4"/>
<stop offset="1" stop-color="#FCD2B1"/>
</radialGradient>
<radialGradient id="paint3_radial" cx="0" cy="0" r="1" gradientUnits="userSpaceOnUse" gradientTransform="translate(200.661 223.933) rotate(180) scale(15.6324 15.6342)">
<stop stop-color="#F69EA4"/>
<stop offset="1" stop-color="#FCDDBF"/>
</radialGradient>
<linearGradient id="paint4_linear" x1="325.937" y1="318.575" x2="325.937" y2="533" gradientUnits="userSpaceOnUse">
<stop stop-color="#F0E6E1" stop-opacity="0"/>
<stop offset="1" stop-color="#F0E6E1"/>
</linearGradient>
<clipPath id="clip0">
<rect width="658" height="532" fill="white" transform="matrix(-1 0 0 1 658 0)"/>
</clipPath>
</defs>
</svg>
