<svg width="986" height="50" viewBox="0 0 986 50" fill="none" xmlns="http://www.w3.org/2000/svg">
<path d="M954 24.3303H245V25.3303H954V24.3303Z" fill="#676767"/>
<path d="M245 24.3303H32V25.3303H245V24.3303Z" fill="#676767"/>
<path d="M25.9178 10.4486L26.0502 10.5576C26.1822 10.6606 26.3262 10.7478 26.4793 10.8173C26.7361 10.9337 27.0127 11.0024 27.2951 11.0199C27.6912 11.0406 28.0864 10.9638 28.4446 10.7966C28.6591 10.6916 28.8571 10.5569 29.0326 10.3966C29.2245 10.2154 29.3903 10.0091 29.5252 9.78376C29.6671 9.53407 29.774 9.26678 29.843 8.98911C29.9139 8.68266 29.9388 8.36773 29.9172 8.05423C29.8568 7.33946 29.5417 6.66834 29.0273 6.15849C28.7481 5.88512 28.4262 5.65719 28.0738 5.4833C27.7023 5.28922 27.2988 5.16087 26.8819 5.10415C25.9642 4.96733 25.0267 5.15118 24.2332 5.62353C23.8104 5.87243 23.4371 6.19447 23.1314 6.574C22.8307 6.95597 22.5929 7.38185 22.4269 7.83609C22.0301 8.83016 21.9725 9.9235 22.2627 10.9524C22.4124 11.4788 22.6466 11.9784 22.9566 12.4326C23.2846 12.9109 23.6972 13.3278 24.175 13.6635C24.4084 13.8342 24.6526 13.9904 24.906 14.131C25.1669 14.2645 25.4358 14.3824 25.7112 14.4842C26.8635 14.9044 28.117 14.9803 29.3133 14.7023C29.6202 14.6352 29.9212 14.5449 30.2139 14.4322C30.5083 14.3147 30.7934 14.1758 31.0667 14.0167C31.6282 13.7016 32.1329 13.2981 32.5605 12.8221C32.7734 12.5884 32.9715 12.3421 33.1538 12.0846C33.3339 11.8249 33.4929 11.5652 33.6465 11.2744C34.3538 9.92399 34.6271 8.39515 34.4304 6.88939C34.2337 5.38364 33.5762 3.97168 32.5446 2.83966C32.3963 2.68903 32.2586 2.52283 32.0997 2.38779L31.6176 1.97229C31.4534 1.84764 31.2839 1.73338 31.1144 1.61392C30.9445 1.4947 30.7677 1.38544 30.5847 1.28671L30.0549 0.990663C29.8748 0.897174 29.6841 0.824461 29.5252 0.741361C29.1571 0.582739 28.7784 0.449117 28.3916 0.341438C26.903 -0.0668629 25.3348 -0.109672 23.8254 0.216787C22.4373 0.539411 21.1433 1.17022 20.0431 2.06059C19.9074 2.16155 19.7799 2.27269 19.6617 2.39299L19.3068 2.73059C19.0737 2.96431 18.8777 3.2188 18.6658 3.45772C18.2932 3.95 17.9619 4.47109 17.6752 5.01586C17.1395 5.98884 16.7708 7.04168 16.584 8.13214C16.5575 8.25679 16.531 8.38144 16.5151 8.51128C16.4992 8.64113 16.5151 8.76058 16.4781 8.88524C16.4781 9.13454 16.4198 9.37345 16.4251 9.61237C16.4127 10.0718 16.4304 10.5315 16.4781 10.9887C16.4781 11.2069 16.5151 11.425 16.5575 11.6276C16.5999 11.8301 16.6423 12.0327 16.6794 12.23L16.7429 12.5209C16.7429 12.6144 16.8012 12.7027 16.8277 12.7962C16.8859 12.9728 16.9389 13.1493 16.9919 13.3155C17.03 13.4911 17.0777 13.6645 17.1349 13.8349C17.1914 14.015 17.2497 14.202 17.3097 14.3959C17.3733 14.5828 17.4633 14.7698 17.5428 14.962C17.6199 15.164 17.7083 15.3616 17.8077 15.5541C18.0124 15.967 18.2479 16.3645 18.5122 16.7435C18.6552 16.9356 18.7824 17.1538 18.9466 17.3407C19.1108 17.5277 19.275 17.7251 19.4445 17.9224C20.2043 18.7245 21.0701 19.4232 22.019 20C23.0757 20.6685 24.2269 21.1813 25.4357 21.5218L26.3998 21.7711L27.4116 21.9321C27.762 21.9878 28.1161 22.019 28.4711 22.0255L29.0008 22.0567C29.1756 22.0567 29.3557 22.0567 29.5305 22.0567C29.8854 22.0567 30.2509 22.0567 30.59 21.9996L31.6865 21.8542C32.0467 21.7814 32.4122 21.688 32.7777 21.6049L33.0532 21.5425L33.3233 21.4542L33.8531 21.2724C35.3382 20.7502 36.7267 19.9941 37.9637 19.0339L38.8749 18.2497C39.1715 17.9744 39.4364 17.668 39.7224 17.3771L39.9343 17.159L40.1144 16.9512L40.4799 16.5461C40.7342 16.2916 40.9779 16.0267 41.248 15.7774C42.6454 14.3249 44.4721 13.3385 46.4711 12.9572C48.3714 12.7406 50.2953 13.0595 52.0174 13.8765C53.6802 14.6274 55.2751 15.5153 56.7849 16.5305C58.2417 17.481 59.5925 18.4107 60.8691 19.2209C62.0114 19.9705 63.2143 20.6271 64.4659 21.1842C65.4227 21.6398 66.4609 21.908 67.5225 21.9736C68.1859 21.9935 68.8457 21.8712 69.456 21.6152C69.612 21.5529 69.7626 21.4782 69.9062 21.3919L70.0598 21.3088L69.9009 21.3711C69.7454 21.434 69.5862 21.4878 69.4242 21.5321C68.8155 21.7054 68.1759 21.7479 67.5489 21.6568C66.5659 21.5 65.6222 21.1616 64.7679 20.6596C63.6148 20.0037 62.5134 19.2642 61.473 18.447C60.2917 17.5537 59.0256 16.5253 57.6113 15.4606C56.0944 14.2854 54.466 13.2558 52.7484 12.3859C51.7772 11.9078 50.7535 11.5402 49.6972 11.29C49.1349 11.1709 48.565 11.0893 47.9915 11.0459C47.3958 11.0132 46.7984 11.0323 46.2063 11.103C45.6022 11.185 45.0066 11.3188 44.4264 11.5029C43.847 11.699 43.2853 11.9422 42.7472 12.23C41.68 12.8148 40.6982 13.5381 39.8284 14.3803C39.5211 14.6555 39.251 14.9568 38.9702 15.2476L38.5729 15.6943L38.3769 15.9176L38.1968 16.1098C37.9531 16.3591 37.7307 16.6292 37.4764 16.8681L36.6977 17.5589C35.6435 18.4049 34.4624 19.0864 33.1962 19.5793L32.7353 19.7559L32.5023 19.8442L32.2639 19.9065C31.9461 19.9896 31.6335 20.0831 31.321 20.161L30.3728 20.3012C30.0549 20.3583 29.7371 20.3635 29.4246 20.3999C29.2709 20.3999 29.112 20.4362 28.9584 20.4311H28.4922C28.185 20.4441 27.8772 20.4389 27.5705 20.4155L26.6647 20.3012L25.7959 20.135C24.6862 19.895 23.6162 19.5034 22.6176 18.9716C21.7118 18.5049 20.8714 17.9253 20.1173 17.2473L19.6405 16.7798C19.4763 16.6188 19.3439 16.4318 19.2008 16.2604C18.9233 15.9312 18.6685 15.5842 18.438 15.2217C18.3215 15.0503 18.2367 14.8685 18.1414 14.7023C18.046 14.5361 17.9401 14.3647 17.8659 14.1829L17.6593 13.6635C17.5866 13.5026 17.5229 13.3379 17.4686 13.1701C17.4369 13.0039 17.3998 12.8325 17.368 12.6507C17.368 12.5624 17.3309 12.4742 17.315 12.3859L17.2726 12.1054C17.2726 11.9184 17.2356 11.7314 17.2144 11.5341C17.1932 11.3367 17.2144 11.1342 17.2144 10.9316C17.2116 10.5065 17.2346 10.0816 17.2832 9.65911C17.2832 9.43578 17.3627 9.21764 17.3998 8.99431L17.458 8.65671C17.458 8.54245 17.5216 8.42818 17.5534 8.31911C17.8082 7.35391 18.2157 6.43383 18.7612 5.59237C19.0488 5.14431 19.3693 4.7173 19.72 4.31469C19.916 4.12772 20.0961 3.91997 20.3027 3.73818L20.6258 3.4733C20.7299 3.37829 20.8415 3.29146 20.9595 3.21361C21.9365 2.50855 23.0702 2.04106 24.2675 1.84963C25.4647 1.6582 26.6912 1.74831 27.846 2.11252C28.1486 2.21321 28.4457 2.32936 28.7359 2.46051C28.8789 2.53322 29.0273 2.59035 29.165 2.67345L29.5835 2.91756C29.7229 2.99979 29.8574 3.08997 29.9861 3.18764L30.3728 3.47849L30.7277 3.79531C30.8442 3.89919 30.9396 4.02904 31.0508 4.1381C31.9074 5.1118 32.3989 6.34324 32.444 7.62834C32.4782 8.57352 32.2725 9.51225 31.8454 10.3603C31.7386 10.5674 31.6201 10.7685 31.4905 10.9628C31.3626 11.1528 31.2228 11.3349 31.072 11.5081C30.7867 11.843 30.4466 12.1291 30.0655 12.3547C29.8782 12.469 29.6836 12.5713 29.4828 12.6611C29.2808 12.7427 29.0738 12.8121 28.863 12.8689C28.0247 13.0842 27.1414 13.0626 26.3151 12.8066C26.115 12.7429 25.9187 12.6684 25.7271 12.5832C25.5452 12.4883 25.3684 12.3843 25.1973 12.2716C24.5405 11.8605 24.0412 11.2476 23.7777 10.5286C23.5141 9.80968 23.501 9.02532 23.7406 8.29834C23.8463 7.9552 24.0073 7.63083 24.2174 7.33748C24.4981 6.92679 24.8845 6.59615 25.3376 6.37907C25.7906 6.16199 26.2941 6.06618 26.7971 6.10136C27.1128 6.11645 27.4232 6.18681 27.7135 6.30911C27.9963 6.4152 28.2594 6.5661 28.4922 6.75578C28.7776 6.99365 29.0033 7.29282 29.1516 7.63006C29.2999 7.96731 29.3669 8.33354 29.3475 8.7003C29.328 9.06707 29.2225 9.42449 29.0393 9.74481C28.8561 10.0651 28.6 10.3397 28.2909 10.5473C27.9907 10.731 27.6484 10.8382 27.2951 10.8589C27.0301 10.8748 26.7644 10.8432 26.5111 10.7654C26.354 10.7138 26.2031 10.6459 26.0608 10.5628L25.9178 10.4486Z" fill="#DC8989"/>
<path d="M26.0502 39.2121L26.1826 39.103C26.3143 38.9982 26.4584 38.9093 26.6117 38.8381C26.867 38.7168 27.1442 38.6462 27.4275 38.6304C27.8229 38.6039 28.2187 38.6772 28.577 38.8433C28.7927 38.9469 28.9924 39.0798 29.1703 39.238C29.3624 39.4186 29.5297 39.6229 29.6682 39.8457C29.8142 40.0934 29.9264 40.3589 30.002 40.6352C30.0745 40.9414 30.1013 41.2563 30.0814 41.5701C30.0321 42.285 29.724 42.9591 29.2127 43.471C28.9327 43.7485 28.6089 43.98 28.2539 44.1566C27.8852 44.3547 27.4833 44.4866 27.0673 44.5461C26.154 44.6938 25.2167 44.5229 24.4186 44.0631C23.9949 43.8156 23.6184 43.4975 23.3062 43.123C22.9853 42.7427 22.7278 42.315 22.5434 41.8557C22.24 41.1049 22.1297 40.2925 22.2221 39.49C22.3144 38.6875 22.6067 37.9196 23.0731 37.254C23.397 36.7773 23.8062 36.3621 24.2809 36.0283C24.5116 35.8547 24.754 35.6968 25.0066 35.5556C25.2651 35.4178 25.5323 35.2964 25.8065 35.1921C26.3703 34.98 26.9629 34.8505 27.5652 34.8077C28.1814 34.7595 28.8014 34.8051 29.4034 34.9428C29.7093 35.0087 30.0102 35.0955 30.3039 35.2025C30.5999 35.3182 30.8868 35.4553 31.1621 35.6128C31.7264 35.9238 32.2347 36.3239 32.6665 36.797C32.8849 37.0349 33.0849 37.2883 33.2651 37.5553C33.4505 37.8098 33.6094 38.0746 33.7948 38.3551C34.4007 39.4952 34.6997 40.768 34.6635 42.0531C34.6208 43.7984 33.9532 45.4733 32.7777 46.7846C32.6376 46.9444 32.489 47.097 32.3328 47.2417L31.856 47.6624L31.3581 48.026C31.1882 48.1468 31.0114 48.2578 30.8283 48.3584L30.2986 48.6596C30.1185 48.7531 29.9331 48.8258 29.7689 48.9141C29.4028 49.0761 29.0258 49.2132 28.6406 49.3244C27.1568 49.7443 25.5904 49.7996 24.0796 49.4854C22.6869 49.1778 21.3853 48.5593 20.2762 47.678C20.1418 47.5773 20.0144 47.468 19.8948 47.3508L19.5346 47.0132C19.3015 46.7846 19.1002 46.5301 18.8883 46.2912C18.5112 45.8116 18.1746 45.3027 17.8818 44.7694C17.3362 43.7979 16.9569 42.7451 16.7588 41.6532C16.7588 41.5285 16.7058 41.4039 16.6899 41.2792C16.674 41.1546 16.6899 41.0247 16.6476 40.9001C16.6476 40.6508 16.5893 40.4118 16.584 40.1729C16.5581 39.7039 16.5634 39.2338 16.5999 38.7654C16.5999 38.5473 16.6317 38.3343 16.6688 38.1266C16.7058 37.9188 16.7482 37.7215 16.7906 37.5241C16.7906 37.4254 16.8277 37.3319 16.8489 37.2332C16.87 37.1346 16.9018 37.0463 16.9283 36.958C16.9866 36.7762 17.0396 36.5996 17.0925 36.4386C17.127 36.2627 17.173 36.0892 17.2303 35.9192C17.2832 35.7374 17.3415 35.5504 17.3945 35.3583C17.4474 35.1661 17.5428 34.9843 17.6223 34.787C17.7017 34.5896 17.7759 34.387 17.8818 34.1949C18.086 33.7821 18.3178 33.383 18.5758 33.0003C18.7188 32.8029 18.8406 32.59 19.0048 32.3978L19.4975 31.8109C20.2464 30.9906 21.1074 30.2758 22.0561 29.6867C23.1041 29.0072 24.2481 28.4822 25.4516 28.1285L26.421 27.8688C26.7494 27.8065 27.0885 27.7546 27.4275 27.6974C27.7784 27.6436 28.1321 27.6089 28.4869 27.5936L29.0167 27.5624C29.1915 27.5624 29.3716 27.5624 29.5464 27.5624C29.9013 27.5624 30.2668 27.5624 30.6058 27.6091L31.7024 27.7442C32.0626 27.8169 32.4281 27.9052 32.7989 27.9831L33.0744 28.0454L33.3445 28.1337L33.8743 28.3103C35.3648 28.8162 36.7606 29.5584 38.0061 30.5073L38.9225 31.2863C39.2245 31.5564 39.4947 31.8577 39.7807 32.1485L39.9926 32.3667L40.178 32.5692L40.5435 32.9743C40.8031 33.2288 41.0732 33.4937 41.3169 33.7378C42.7345 35.1813 44.5778 36.1531 46.5877 36.5165C48.489 36.7166 50.4092 36.3815 52.1233 35.5505C53.7886 34.788 55.3837 33.8862 56.8909 32.8549C58.3423 31.894 59.6825 30.9487 60.9486 30.1281C62.0835 29.3652 63.2812 28.6963 64.5295 28.1285C65.4818 27.6851 66.5124 27.4258 67.5648 27.365C68.2269 27.335 68.8875 27.4503 69.4983 27.7026C69.6546 27.7661 69.8068 27.8389 69.9539 27.9208L70.1075 28.0039L69.9433 27.9415C69.7903 27.8783 69.6327 27.8263 69.4719 27.7857C68.8604 27.6167 68.2188 27.5795 67.5913 27.6767C66.6092 27.8483 65.6692 28.2007 64.8209 28.7154C63.6729 29.3804 62.5785 30.1305 61.5471 30.9591C60.3606 31.8421 59.1051 32.8808 57.696 33.9196C56.1916 35.1082 54.5737 36.1518 52.8649 37.0359C51.8971 37.5194 50.8772 37.8957 49.8243 38.1577C49.2624 38.2821 48.6925 38.3689 48.1186 38.4174C47.5235 38.4555 46.926 38.4416 46.3334 38.3759C45.7298 38.2992 45.1342 38.1706 44.5535 37.9915C43.9707 37.8018 43.4054 37.5637 42.8637 37.28C41.7867 36.7139 40.7925 36.0082 39.9078 35.1817C39.6006 34.9064 39.3304 34.6104 39.0444 34.3247L38.6418 33.878L38.4458 33.6599L38.2604 33.4677C38.0167 33.2184 37.7889 32.9484 37.5347 32.7146L36.7507 32.0291C35.6884 31.1941 34.5023 30.5233 33.2333 30.0398L32.7671 29.8684L32.5499 29.7646L32.3116 29.7022C31.9937 29.6243 31.6812 29.5308 31.3634 29.4581L30.4151 29.2971C30.0973 29.2452 29.7795 29.24 29.4669 29.2088C29.3133 29.2088 29.1544 29.1777 29.0008 29.2088H28.5346C28.2269 29.2 27.9189 29.2121 27.6129 29.2452L26.7124 29.3439L25.8436 29.5256C23.742 30.0139 21.8033 31.0225 20.2126 32.4549L19.72 32.9743C19.5643 33.1398 19.4175 33.3132 19.2803 33.4937C19.0075 33.8241 18.7563 34.1711 18.5281 34.5325C18.4115 34.7039 18.3321 34.8856 18.2314 35.0518C18.1308 35.218 18.0407 35.3946 17.9666 35.5712L17.7547 36.0906C17.6813 36.2489 17.6194 36.412 17.5693 36.5788C17.5375 36.745 17.5057 36.9164 17.4686 37.0982C17.4686 37.1865 17.4316 37.2748 17.421 37.3683V37.6487C17.421 37.8357 17.3839 38.0227 17.368 38.2201C17.3521 38.4174 17.368 38.62 17.368 38.8225C17.3707 39.248 17.399 39.6729 17.4527 40.095C17.4527 40.3132 17.5322 40.5365 17.5693 40.7598C17.5958 40.8689 17.617 40.9832 17.6381 41.0974C17.6593 41.2117 17.7017 41.3208 17.7335 41.435C17.9959 42.3971 18.4125 43.3122 18.9678 44.1462C19.2623 44.5949 19.5898 45.0219 19.9478 45.4239C20.1438 45.6108 20.3292 45.8186 20.5358 46.0004L20.8589 46.2601C20.9636 46.355 21.0771 46.4402 21.1979 46.5146C22.1793 47.2111 23.3157 47.6686 24.5132 47.8492C25.7107 48.0299 26.9348 47.9284 28.0843 47.5533C28.3865 47.454 28.682 47.3361 28.969 47.2001C29.112 47.1274 29.2603 47.0651 29.3981 46.9872L29.8113 46.7327C29.9532 46.6523 30.0878 46.5602 30.2138 46.4574L30.6005 46.1666L30.9502 45.8498C31.0667 45.7407 31.1621 45.616 31.268 45.5018C32.1168 44.5199 32.5973 43.2827 32.6294 41.996C32.6458 41.038 32.4163 40.0914 31.9619 39.2432C31.8454 39.0407 31.7289 38.8381 31.6017 38.646C31.4707 38.4636 31.3274 38.2901 31.1727 38.1266C30.8839 37.7958 30.5422 37.5134 30.1609 37.2904C29.9728 37.1757 29.7763 37.075 29.5729 36.9891C29.3707 36.9092 29.1637 36.8415 28.9531 36.7866C28.5318 36.6771 28.0959 36.6315 27.6606 36.6515C27.2335 36.6637 26.8105 36.7372 26.4051 36.8697C26.2062 36.9359 26.0116 37.0139 25.8224 37.1034C25.6383 37.1963 25.4612 37.3022 25.2927 37.4202C24.6288 37.8465 24.1306 38.4795 23.8783 39.2173C23.6428 39.9278 23.6428 40.6933 23.8783 41.4039C23.9878 41.7458 24.1524 42.0684 24.3657 42.3595C24.5587 42.6307 24.799 42.8663 25.0755 43.0555C25.62 43.433 26.2799 43.6163 26.9454 43.5749C27.2613 43.5534 27.5711 43.4797 27.8619 43.3567C28.1429 43.2458 28.404 43.0915 28.6353 42.8997C29.0579 42.5446 29.3408 42.0559 29.4352 41.5181C29.5242 41.0642 29.4759 40.5947 29.2961 40.1674C29.1163 39.7401 28.813 39.3737 28.4234 39.1134C28.1621 38.9581 27.8696 38.8601 27.5661 38.826C27.2625 38.792 26.955 38.8227 26.6647 38.916C26.5073 38.969 26.3563 39.0386 26.2144 39.1238L26.0502 39.2121Z" fill="#DC8989"/>
<path d="M10.4815 19.2574C15.6358 21.4596 22.8559 22.0205 23.8094 22.088C23.873 22.088 23.9154 22.1296 23.9154 22.1659L26.4316 24.3265C26.5095 24.3943 26.5719 24.4774 26.6146 24.5706C26.6573 24.6637 26.6794 24.7646 26.6794 24.8667C26.6794 24.9688 26.6573 25.0697 26.6146 25.1628C26.5719 25.2559 26.5095 25.3391 26.4316 25.4069L23.9366 27.5882C23.9366 27.6298 23.8942 27.6662 23.8306 27.6714C22.8824 27.7441 16.2185 28.279 10.5292 30.6214C10.4815 30.6214 2.28138 26.1859 0.570366 25.1835C0.53242 25.165 0.500492 25.1365 0.478174 25.1012C0.455855 25.0658 0.444031 25.0251 0.444031 24.9836C0.444031 24.942 0.455855 24.9013 0.478174 24.866C0.500492 24.8306 0.53242 24.8021 0.570366 24.7836C2.29727 23.7656 10.4339 19.2366 10.4815 19.2574Z" fill="#4C466D"/>
<path d="M30.6059 22.8877C30.9736 22.8815 31.3349 22.9827 31.6439 23.1785C31.9528 23.3742 32.1954 23.6556 32.3407 23.9868C32.4861 24.3181 32.5277 24.6843 32.4602 25.0388C32.3927 25.3933 32.2192 25.7201 31.9618 25.9777C31.7043 26.2352 31.3746 26.4119 31.0144 26.4852C30.6543 26.5585 30.2801 26.5251 29.9393 26.3892C29.5986 26.2534 29.3068 26.0213 29.101 25.7224C28.8952 25.4235 28.7847 25.0714 28.7836 24.7107C28.7808 24.2327 28.9707 23.7729 29.312 23.4314C29.6533 23.09 30.1183 22.8946 30.6059 22.8877Z" fill="#4C466D"/>
<path d="M47.7372 17.559C47.715 17.4348 47.7216 17.3073 47.7564 17.186C47.7912 17.0646 47.8535 16.9525 47.9385 16.8579C48.038 16.7569 48.1574 16.6767 48.2894 16.6223C48.4214 16.5678 48.5633 16.5402 48.7066 16.541C48.8502 16.545 48.9915 16.5769 49.1225 16.6349C49.2534 16.6928 49.3713 16.7757 49.4694 16.8786C49.5499 16.9774 49.6074 17.0923 49.6376 17.2153C49.6678 17.3383 49.67 17.4663 49.6442 17.5902C49.5931 17.8288 49.4604 18.0432 49.2681 18.1979C49.1082 18.3464 48.8949 18.4267 48.6748 18.4212C48.456 18.4152 48.2477 18.3279 48.0921 18.1771C47.9068 18.0156 47.7819 17.7981 47.7372 17.559Z" fill="#4C466D"/>
<path d="M45.7719 18.2133C45.7231 18.121 45.6945 18.0197 45.6881 17.9159C45.6818 17.8122 45.6977 17.7082 45.7348 17.6108C45.8258 17.4057 45.995 17.2435 46.2063 17.159C46.4187 17.0749 46.6561 17.0749 46.8684 17.159C46.9653 17.2058 47.0506 17.2729 47.1183 17.3554C47.186 17.4379 47.2345 17.534 47.2604 17.6368C47.3087 17.8343 47.2843 18.0421 47.1916 18.2237C47.1532 18.3106 47.0973 18.3891 47.0272 18.4542C46.9571 18.5194 46.8743 18.5699 46.7837 18.6029C46.6944 18.6413 46.5979 18.6612 46.5003 18.6612C46.4027 18.6612 46.3062 18.6413 46.2169 18.6029C46.024 18.5323 45.8652 18.3933 45.7719 18.2133Z" fill="#4C466D"/>
<path d="M44.2092 19.1275C44.1519 19.0533 44.1109 18.9682 44.089 18.8777C44.0671 18.7871 44.0647 18.693 44.0819 18.6015C44.0991 18.5099 44.1356 18.4229 44.189 18.3459C44.2425 18.269 44.3117 18.2038 44.3922 18.1545C44.4728 18.1053 44.5629 18.073 44.6569 18.0598C44.7509 18.0465 44.8466 18.0527 44.9381 18.0778C45.0295 18.1029 45.1146 18.1464 45.1879 18.2055C45.2613 18.2646 45.3212 18.3381 45.364 18.4212C45.4506 18.5728 45.4752 18.751 45.4329 18.9197C45.3906 19.0884 45.2846 19.2351 45.1362 19.3301C44.9847 19.4195 44.804 19.4483 44.6314 19.4106C44.4588 19.3729 44.3077 19.2715 44.2092 19.1275Z" fill="#4C466D"/>
<path d="M42.9961 19.9689C42.9179 19.8585 42.8863 19.7228 42.9081 19.5901C42.9298 19.4574 43.0031 19.3381 43.1127 19.2573C43.166 19.2012 43.2314 19.1574 43.3041 19.129C43.3768 19.1006 43.455 19.0883 43.533 19.093C43.6111 19.0978 43.6872 19.1194 43.7557 19.1564C43.8243 19.1934 43.8836 19.2449 43.9295 19.307C43.9753 19.3692 44.0066 19.4405 44.0209 19.516C44.0353 19.5914 44.0325 19.669 44.0126 19.7432C43.9928 19.8174 43.9564 19.8864 43.9061 19.9451C43.8559 20.0039 43.7929 20.0511 43.7219 20.0832C43.6093 20.1599 43.4708 20.1908 43.3355 20.1695C43.2002 20.1482 43.0785 20.0763 42.9961 19.9689Z" fill="#4C466D"/>
<path d="M41.9737 20.7012C41.923 20.6386 41.8928 20.5625 41.8872 20.4827C41.8816 20.403 41.9008 20.3235 41.9422 20.2547C41.9837 20.1859 42.0455 20.1311 42.1194 20.0974C42.1933 20.0638 42.2759 20.053 42.3563 20.0664C42.4366 20.0798 42.511 20.1168 42.5694 20.1724C42.6279 20.2281 42.6677 20.2999 42.6836 20.3783C42.6996 20.4567 42.6909 20.5379 42.6587 20.6113C42.6265 20.6848 42.5724 20.7469 42.5034 20.7895C42.4203 20.8437 42.3192 20.8647 42.2207 20.8483C42.1223 20.8319 42.0339 20.7793 41.9737 20.7012Z" fill="#4C466D"/>
<path d="M51.5618 18.3641C51.6212 18.2774 51.6602 18.1787 51.6758 18.0754C51.6913 17.9721 51.6832 17.8666 51.6519 17.7668C51.6201 17.6569 51.563 17.5558 51.4849 17.4711C51.4068 17.3864 51.3099 17.3205 51.2016 17.2785C51.1046 17.2288 50.9977 17.2005 50.8884 17.1958C50.7791 17.191 50.67 17.2099 50.569 17.251C50.4679 17.2921 50.3773 17.3545 50.3035 17.4338C50.2298 17.513 50.1747 17.6072 50.1421 17.7096C50.0863 17.8959 50.0962 18.0951 50.1702 18.2752C50.2442 18.4552 50.3781 18.6055 50.55 18.7017C50.7329 18.764 50.9318 18.7646 51.1151 18.7034C51.2984 18.6423 51.4556 18.5228 51.5618 18.3641Z" fill="#4C466D"/>
<path d="M52.9868 19.4756C53.0475 19.4092 53.0941 19.3316 53.1239 19.2473C53.1536 19.163 53.1659 19.0737 53.1599 18.9847C53.154 18.8957 53.13 18.8087 53.0894 18.7289C53.0487 18.6491 52.9922 18.5781 52.9232 18.5199C52.8541 18.4604 52.7732 18.4154 52.6855 18.388C52.5979 18.3605 52.5054 18.3511 52.4139 18.3604C52.3223 18.3697 52.2337 18.3974 52.1537 18.4418C52.0736 18.4863 52.0037 18.5465 51.9485 18.6186C51.8326 18.7564 51.7773 18.9336 51.7946 19.1114C51.812 19.2891 51.9007 19.4529 52.0412 19.5665C52.1817 19.6801 52.3625 19.7344 52.5438 19.7174C52.7251 19.7003 52.8921 19.6134 53.008 19.4756H52.9868Z" fill="#4C466D"/>
<path d="M54.0621 20.4832C54.138 20.4112 54.1902 20.3187 54.2121 20.2175C54.234 20.1163 54.2246 20.011 54.185 19.915C54.1455 19.8191 54.0776 19.7369 53.9901 19.6791C53.9026 19.6212 53.7995 19.5903 53.6939 19.5903C53.5884 19.5903 53.4852 19.6212 53.3977 19.6791C53.3102 19.7369 53.2424 19.8191 53.2028 19.915C53.1632 20.011 53.1538 20.1163 53.1757 20.2175C53.1976 20.3187 53.2499 20.4112 53.3258 20.4832C53.4245 20.5768 53.5565 20.6291 53.6939 20.6291C53.8313 20.6291 53.9633 20.5768 54.0621 20.4832Z" fill="#4C466D"/>
<path d="M55.0368 21.2776C55.1035 21.1957 55.1343 21.0911 55.1224 20.9869C55.1105 20.8826 55.0568 20.7873 54.9732 20.7219C54.8896 20.6565 54.783 20.6263 54.6767 20.638C54.5704 20.6497 54.4732 20.7023 54.4064 20.7842C54.3734 20.8248 54.3488 20.8714 54.3341 20.9213C54.3194 20.9712 54.3149 21.0234 54.3208 21.075C54.3267 21.1266 54.3429 21.1766 54.3685 21.222C54.3941 21.2675 54.4286 21.3076 54.47 21.34C54.5114 21.3724 54.5589 21.3964 54.6098 21.4108C54.6606 21.4252 54.7139 21.4297 54.7665 21.4239C54.8192 21.4181 54.8701 21.4022 54.9165 21.3771C54.9629 21.352 55.0037 21.3182 55.0368 21.2776Z" fill="#4C466D"/>
<path d="M47.7371 32.1744C47.7141 32.2994 47.7203 32.4279 47.7552 32.5503C47.79 32.6726 47.8527 32.7856 47.9384 32.8808C48.038 32.9818 48.1574 33.0619 48.2894 33.1164C48.4214 33.1708 48.5633 33.1985 48.7065 33.1976C48.8505 33.1927 48.992 33.1598 49.1229 33.101C49.2538 33.0422 49.3716 32.9585 49.4693 32.8548C49.5503 32.7562 49.6079 32.6413 49.6381 32.5183C49.6683 32.3952 49.6704 32.2672 49.6441 32.1433C49.5944 31.9055 49.4613 31.6924 49.268 31.5408C49.1095 31.3928 48.899 31.3103 48.6801 31.3103C48.4611 31.3103 48.2506 31.3928 48.0921 31.5408C47.9037 31.7063 47.7785 31.9298 47.7371 32.1744Z" fill="#4C466D"/>
<path d="M45.7718 31.5147C45.7229 31.6079 45.6943 31.7101 45.6879 31.8147C45.6815 31.9194 45.6975 32.0242 45.7348 32.1224C45.7795 32.2243 45.8446 32.3164 45.9262 32.3932C46.0078 32.47 46.1043 32.5301 46.21 32.5698C46.3156 32.6095 46.4283 32.628 46.5414 32.6243C46.6545 32.6206 46.7656 32.5948 46.8684 32.5483C46.9651 32.5026 47.0504 32.4366 47.1181 32.3549C47.1859 32.2732 47.2344 32.1779 47.2604 32.0757C47.3091 31.8782 47.2847 31.6702 47.1915 31.4888C47.1548 31.4008 47.0995 31.3215 47.0292 31.2562C46.9588 31.1908 46.8751 31.1408 46.7836 31.1096C46.6943 31.0711 46.5978 31.0513 46.5002 31.0513C46.4026 31.0513 46.3061 31.0711 46.2168 31.1096C46.0217 31.1848 45.8628 31.3295 45.7718 31.5147Z" fill="#4C466D"/>
<path d="M44.2092 30.6007C44.1608 30.675 44.1279 30.758 44.1123 30.8448C44.0966 30.9316 44.0986 31.0206 44.118 31.1067C44.1374 31.1928 44.1739 31.2743 44.2255 31.3465C44.2771 31.4188 44.3426 31.4804 44.4184 31.5278C44.4943 31.5752 44.5789 31.6075 44.6674 31.6228C44.756 31.6382 44.8467 31.6362 44.9346 31.6172C45.0224 31.5981 45.1055 31.5623 45.1792 31.5118C45.2528 31.4612 45.3157 31.397 45.364 31.3226C45.4408 31.1733 45.4579 31.0013 45.412 30.8403C45.366 30.6792 45.2603 30.5409 45.1156 30.4524C44.9709 30.3639 44.7977 30.3316 44.63 30.3619C44.4623 30.3923 44.3122 30.483 44.2092 30.6163V30.6007Z" fill="#4C466D"/>
<path d="M42.9961 29.7646C42.9409 29.8176 42.8982 29.8818 42.8711 29.9527C42.8439 30.0236 42.8328 30.0994 42.8387 30.175C42.8446 30.2505 42.8672 30.3238 42.905 30.3899C42.9429 30.4559 42.995 30.513 43.0577 30.5572C43.1204 30.6014 43.1923 30.6317 43.2682 30.6458C43.3441 30.6599 43.4222 30.6576 43.4971 30.6389C43.572 30.6203 43.6418 30.5859 43.7017 30.538C43.7615 30.4901 43.81 30.43 43.8437 30.3619C43.9213 30.2509 43.9521 30.1147 43.9293 29.9819C43.9066 29.8492 43.8322 29.7303 43.7218 29.6503C43.6093 29.5736 43.4708 29.5426 43.3355 29.5639C43.2001 29.5853 43.0785 29.6572 42.9961 29.7646Z" fill="#4C466D"/>
<path d="M41.9738 29.027C41.9353 29.0679 41.9061 29.1163 41.8881 29.1691C41.8701 29.2218 41.8637 29.2777 41.8692 29.3331C41.8748 29.3884 41.8922 29.442 41.9204 29.4903C41.9485 29.5386 41.9868 29.5805 42.0326 29.6133C42.0785 29.6461 42.1308 29.669 42.1863 29.6805C42.2418 29.6921 42.2992 29.692 42.3547 29.6803C42.4101 29.6686 42.4624 29.6455 42.5082 29.6126C42.5539 29.5796 42.592 29.5376 42.62 29.4892C42.6688 29.405 42.6843 29.306 42.6635 29.2113C42.6427 29.1165 42.587 29.0326 42.5072 28.9755C42.4273 28.9184 42.3288 28.8921 42.2305 28.9016C42.1321 28.9111 42.0407 28.9557 41.9738 29.027Z" fill="#4C466D"/>
<path d="M51.5618 31.3642C51.6217 31.4517 51.6609 31.5512 51.6765 31.6555C51.692 31.7597 51.6836 31.8661 51.6519 31.9667C51.6201 32.0765 51.563 32.1777 51.4849 32.2624C51.4068 32.3471 51.3099 32.413 51.2016 32.4549C51.1046 32.5047 50.9977 32.5329 50.8884 32.5377C50.7791 32.5424 50.67 32.5236 50.569 32.4825C50.4679 32.4414 50.3773 32.379 50.3035 32.2997C50.2298 32.2205 50.1747 32.1263 50.1421 32.0238C50.0853 31.8376 50.0947 31.638 50.1689 31.4578C50.243 31.2775 50.3774 31.1273 50.55 31.0318C50.7324 30.969 50.9309 30.9676 51.1141 31.0278C51.2974 31.088 51.4549 31.2064 51.5618 31.3642Z" fill="#4C466D"/>
<path d="M52.9868 30.2839C53.0442 30.3521 53.0873 30.4307 53.1137 30.5153C53.1401 30.5998 53.1493 30.6887 53.1406 30.7767C53.132 30.8647 53.1058 30.9502 53.0635 31.0283C53.0212 31.1064 52.9636 31.1755 52.8941 31.2318C52.8245 31.288 52.7443 31.3303 52.6581 31.3562C52.5719 31.3821 52.4813 31.3911 52.3915 31.3826C52.3017 31.3742 52.2145 31.3485 52.1349 31.307C52.0553 31.2656 51.9847 31.2091 51.9273 31.1409C51.8201 31.0043 51.7698 30.8328 51.7865 30.6612C51.8032 30.4896 51.8857 30.3306 52.0174 30.2164C52.0853 30.158 52.1644 30.1133 52.2501 30.085C52.3358 30.0568 52.4263 30.0455 52.5165 30.0517C52.6066 30.058 52.6946 30.0818 52.7753 30.1216C52.8561 30.1615 52.9279 30.2166 52.9868 30.2839Z" fill="#4C466D"/>
<path d="M54.0621 29.2451C54.138 29.317 54.1902 29.4095 54.2121 29.5107C54.234 29.6119 54.2246 29.7172 54.185 29.8132C54.1455 29.9091 54.0776 29.9913 53.9901 30.0491C53.9026 30.107 53.7995 30.1379 53.6939 30.1379C53.5884 30.1379 53.4852 30.107 53.3977 30.0491C53.3102 29.9913 53.2424 29.9091 53.2028 29.8132C53.1632 29.7172 53.1538 29.6119 53.1757 29.5107C53.1976 29.4095 53.2499 29.317 53.3258 29.2451C53.4245 29.1514 53.5565 29.0991 53.6939 29.0991C53.8313 29.0991 53.9633 29.1514 54.0621 29.2451Z" fill="#4C466D"/>
<path d="M55.0368 28.4556C55.0944 28.5382 55.1179 28.6391 55.1026 28.738C55.0873 28.8369 55.0342 28.9264 54.9541 28.9884C54.8741 29.0504 54.773 29.0803 54.6713 29.072C54.5696 29.0638 54.4749 29.0179 54.4064 28.9438C54.3693 28.9038 54.341 28.8567 54.3233 28.8054C54.3056 28.7542 54.2988 28.6999 54.3034 28.646C54.3079 28.5921 54.3238 28.5397 54.3498 28.492C54.3759 28.4444 54.4117 28.4024 54.455 28.3689C54.4983 28.3354 54.5482 28.3109 54.6015 28.2971C54.6549 28.2832 54.7106 28.2803 54.7651 28.2884C54.8197 28.2966 54.8719 28.3156 54.9187 28.3444C54.9654 28.3731 55.0056 28.411 55.0368 28.4556Z" fill="#4C466D"/>
<path d="M960.082 10.4486L959.95 10.5577C959.818 10.6607 959.674 10.7479 959.521 10.8174C959.264 10.9338 958.987 11.0024 958.705 11.0199C958.309 11.0406 957.914 10.9639 957.555 10.7966C957.341 10.6916 957.143 10.5569 956.967 10.3967C956.775 10.2154 956.61 10.0092 956.475 9.78381C956.333 9.53411 956.226 9.26683 956.157 8.98916C956.086 8.6827 956.061 8.36778 956.083 8.05427C956.143 7.33951 956.458 6.66838 956.973 6.15854C957.252 5.88517 957.574 5.65724 957.926 5.48334C958.298 5.28926 958.701 5.16091 959.118 5.1042C960.036 4.96738 960.973 5.15122 961.767 5.62358C962.19 5.87248 962.563 6.19451 962.869 6.57404C963.187 6.95602 963.441 7.38564 963.621 7.84652C964.017 8.84059 964.075 9.93393 963.785 10.9628C963.629 11.498 963.386 12.005 963.065 12.4638C962.735 12.9365 962.322 13.348 961.846 13.6792C961.613 13.8499 961.369 14.006 961.115 14.1466C960.854 14.2801 960.585 14.398 960.31 14.4998C959.15 14.919 957.888 14.9895 956.687 14.7023C956.38 14.6353 956.079 14.545 955.786 14.4323C955.492 14.3148 955.207 14.1759 954.933 14.0168C954.372 13.7017 953.867 13.2981 953.439 12.8222C953.226 12.5884 953.028 12.3421 952.846 12.0847C952.666 11.825 952.507 11.5653 952.353 11.2744C951.649 9.92636 951.377 8.40094 951.572 6.89842C951.768 5.3959 952.423 3.98651 953.45 2.85528C953.598 2.70466 953.736 2.53846 953.895 2.40342L954.377 1.98792C954.541 1.86327 954.711 1.749 954.88 1.62954C955.05 1.51033 955.227 1.40107 955.41 1.30233L955.94 1.00629C956.12 0.912799 956.31 0.840086 956.469 0.756985C956.837 0.598364 957.216 0.464742 957.603 0.357063C959.092 -0.0512379 960.66 -0.0940472 962.169 0.232412C963.557 0.555036 964.851 1.18584 965.951 2.07621C966.087 2.17718 966.215 2.28831 966.333 2.40861L966.688 2.74621C966.921 2.97993 967.117 3.23443 967.329 3.47334C967.701 3.96562 968.033 4.48671 968.319 5.03148C968.855 6.00446 969.224 7.05731 969.411 8.14776C969.411 8.27241 969.464 8.39706 969.479 8.52691L969.517 8.90086C969.517 9.15016 969.575 9.38908 969.569 9.62799C969.582 10.0874 969.564 10.5471 969.517 11.0044C969.517 11.2225 969.479 11.4406 969.437 11.6432C969.395 11.8457 969.352 12.0483 969.315 12.2457L969.252 12.5365C969.252 12.63 969.193 12.7183 969.167 12.8118C969.109 12.9884 969.056 13.165 969.003 13.3312C968.965 13.5067 968.917 13.6801 968.86 13.8506C968.803 14.0306 968.745 14.2176 968.685 14.4115C968.621 14.5985 968.531 14.7854 968.452 14.9776C968.375 15.1796 968.286 15.3773 968.187 15.5697C967.982 15.9826 967.747 16.3801 967.482 16.7591C967.339 16.9513 967.218 17.1694 967.048 17.3564C966.879 17.5433 966.72 17.7407 966.55 17.9381C965.79 18.7401 964.924 19.4388 963.976 20.0156C962.919 20.6842 961.768 21.1969 960.559 21.5374L959.595 21.7867L958.583 21.9477C958.233 22.0034 957.878 22.0347 957.524 22.0412L956.994 22.0723C956.819 22.0723 956.639 22.0723 956.464 22.0723C956.109 22.0723 955.744 22.0723 955.405 22.0152L954.308 21.8698C953.948 21.7971 953.582 21.7036 953.217 21.6205L952.941 21.5581L952.671 21.4699L952.142 21.2881C950.656 20.7658 949.268 20.0097 948.031 19.0495L947.12 18.2653C946.823 17.99 946.558 17.6836 946.272 17.3927L946.06 17.1746L945.88 16.9668L945.515 16.5617C945.26 16.3072 945.017 16.0423 944.747 15.793C943.349 14.3405 941.522 13.3542 939.523 12.9728C937.623 12.7562 935.699 13.0751 933.977 13.8921C932.314 14.643 930.72 15.5309 929.21 16.5461C927.753 17.4966 926.402 18.4263 925.126 19.2365C923.983 19.9861 922.78 20.6427 921.529 21.1998C920.574 21.6373 919.541 21.8895 918.488 21.9425C917.825 21.9624 917.165 21.8401 916.555 21.5841C916.399 21.5218 916.248 21.4471 916.104 21.3608L915.951 21.2777L916.115 21.34C916.268 21.4039 916.426 21.4577 916.586 21.501C917.195 21.6743 917.835 21.7168 918.462 21.6257C919.445 21.4689 920.388 21.1305 921.243 20.6285C922.396 19.9726 923.497 19.233 924.538 18.4159C925.719 17.5226 926.985 16.4942 928.399 15.4295C929.916 14.2543 931.545 13.2246 933.262 12.3547C934.233 11.8767 935.257 11.509 936.313 11.2588C936.876 11.1397 937.446 11.0582 938.019 11.0147C938.615 10.982 939.212 11.0012 939.804 11.0719C940.408 11.1539 941.004 11.2877 941.584 11.4718C942.164 11.6679 942.725 11.9111 943.263 12.1989C944.331 12.7837 945.312 13.5069 946.182 14.3492C946.489 14.6244 946.76 14.9257 947.04 15.2165L947.438 15.6632L947.634 15.8865L947.814 16.0787C948.057 16.328 948.28 16.5981 948.534 16.837L949.313 17.5278C950.367 18.3738 951.548 19.0553 952.814 19.5482L953.275 19.7247L953.508 19.813L953.747 19.8754C954.064 19.9585 954.377 20.0519 954.69 20.1299L955.638 20.2961C955.956 20.3532 956.273 20.3584 956.586 20.3947C956.74 20.3947 956.898 20.4311 957.052 20.4259H957.518C957.826 20.4338 958.134 20.4234 958.44 20.3947L959.341 20.3013L960.209 20.135C961.319 19.8951 962.389 19.5034 963.388 18.9716C964.293 18.5049 965.134 17.9253 965.888 17.2473L966.418 16.7591C966.582 16.5981 966.714 16.4111 966.857 16.2397C967.135 15.9105 967.39 15.5634 967.62 15.2009C967.729 15.0334 967.828 14.86 967.917 14.6816C968.012 14.505 968.118 14.344 968.192 14.1622L968.409 13.6428C968.482 13.4819 968.546 13.3172 968.6 13.1494C968.632 12.9832 968.669 12.8118 968.701 12.63C968.701 12.5417 968.738 12.4534 968.754 12.3651L968.786 12.0847L968.844 11.5133C968.844 11.316 968.844 11.1134 968.844 10.9109C968.847 10.4857 968.824 10.0608 968.775 9.63838C968.775 9.41505 968.695 9.19691 968.658 8.97358C968.658 8.85931 968.621 8.75024 968.6 8.63598C968.579 8.52171 968.537 8.40745 968.505 8.29838C968.25 7.33318 967.842 6.4131 967.297 5.57164C967.006 5.11967 966.682 4.68916 966.328 4.28358C966.132 4.0966 965.951 3.88885 965.745 3.70706L965.422 3.44218C965.318 3.34717 965.206 3.26034 965.088 3.18249C964.111 2.47743 962.977 2.00994 961.78 1.81851C960.583 1.62708 959.356 1.71719 958.202 2.0814C957.899 2.18209 957.602 2.29824 957.312 2.42939C957.169 2.5021 957.02 2.55923 956.883 2.64234L956.464 2.88644C956.326 2.96746 956.193 3.05769 956.067 3.15652L955.675 3.44737L955.32 3.7642C955.203 3.86807 955.108 3.99792 954.997 4.10699C954.14 5.08069 953.649 6.31212 953.604 7.59722C953.569 8.54241 953.775 9.48113 954.202 10.3292C954.309 10.5363 954.427 10.7374 954.557 10.9316C954.685 11.1217 954.825 11.3038 954.976 11.477C955.261 11.8119 955.601 12.098 955.982 12.3236C956.169 12.4379 956.364 12.5402 956.565 12.63C956.767 12.7116 956.974 12.781 957.185 12.8378C958.023 13.0531 958.906 13.0315 959.733 12.7754C959.933 12.7118 960.129 12.6373 960.32 12.5521C960.502 12.4572 960.679 12.3532 960.85 12.2405C961.507 11.8294 962.006 11.2165 962.27 10.4975C962.534 9.77855 962.547 8.99421 962.307 8.26722C962.201 7.92409 962.04 7.59971 961.83 7.30637C961.549 6.89567 961.163 6.56503 960.71 6.34795C960.257 6.13087 959.753 6.03506 959.25 6.07024C958.935 6.08533 958.624 6.15569 958.334 6.27799C958.051 6.38408 957.788 6.53498 957.555 6.72466C957.274 6.96125 957.051 7.2577 956.904 7.59144C956.757 7.92519 956.69 8.28742 956.707 8.65056C956.724 9.01369 956.826 9.36815 957.004 9.68694C957.183 10.0057 957.433 10.2804 957.735 10.4902C958.036 10.674 958.378 10.7811 958.731 10.8018C958.996 10.8181 959.262 10.7864 959.515 10.7083C959.672 10.6567 959.823 10.5888 959.966 10.5057L960.082 10.4486Z" fill="#DC8989"/>
<path d="M959.95 39.2119L959.817 39.1028C959.686 38.998 959.542 38.9091 959.388 38.8379C959.133 38.7166 958.856 38.646 958.573 38.6302C958.177 38.6037 957.781 38.6771 957.423 38.8431C957.207 38.9467 957.008 39.0796 956.83 39.2379C956.638 39.4185 956.47 39.6227 956.332 39.8455C956.186 40.0933 956.074 40.3587 955.998 40.635C955.925 40.9412 955.899 41.2561 955.919 41.5699C955.968 42.2848 956.276 42.9589 956.787 43.4708C957.064 43.7474 957.384 43.9789 957.736 44.1564C958.104 44.3545 958.506 44.4864 958.922 44.5459C959.835 44.6936 960.773 44.5227 961.571 44.0629C961.994 43.8154 962.371 43.4973 962.683 43.1228C963.004 42.7425 963.262 42.3148 963.446 41.8555C963.749 41.1047 963.86 40.2923 963.767 39.4898C963.675 38.6873 963.383 37.9194 962.916 37.2538C962.592 36.7772 962.183 36.3619 961.708 36.0281C961.478 35.8545 961.235 35.6966 960.983 35.5555C960.724 35.4176 960.457 35.2962 960.183 35.1919C959.619 34.9798 959.026 34.8503 958.424 34.8076C957.808 34.7593 957.188 34.8049 956.586 34.9426C956.28 35.0085 955.979 35.0953 955.685 35.2023C955.389 35.318 955.103 35.4551 954.827 35.6126C954.263 35.9237 953.755 36.3237 953.323 36.7968C953.106 37.0264 952.906 37.2711 952.724 37.5291C952.539 37.7836 952.38 38.0485 952.195 38.3289C951.589 39.469 951.29 40.7419 951.326 42.0269C951.369 43.7722 952.036 45.4472 953.212 46.7585C953.352 46.9183 953.5 47.0708 953.657 47.2155L954.133 47.6362L954.631 47.9998C954.801 48.1206 954.978 48.2316 955.161 48.3322L955.691 48.6334C955.871 48.7269 956.056 48.7996 956.22 48.8879C956.587 49.0499 956.964 49.187 957.349 49.2983C958.833 49.7181 960.399 49.7734 961.91 49.4593C963.302 49.1516 964.604 48.5331 965.713 47.6518C965.848 47.5511 965.975 47.4418 966.095 47.3246L966.46 46.987C966.688 46.7585 966.889 46.504 967.101 46.2651C967.478 45.7854 967.815 45.2765 968.108 44.7433C968.653 43.7717 969.033 42.719 969.231 41.627C969.231 41.5024 969.284 41.3777 969.299 41.2531C969.315 41.1284 969.299 40.9986 969.342 40.8739C969.342 40.6246 969.4 40.3857 969.405 40.1468C969.422 39.6875 969.406 39.2276 969.358 38.7704C969.358 38.5523 969.326 38.3393 969.289 38.1316C969.252 37.9238 969.209 37.7265 969.167 37.5291C969.167 37.4304 969.13 37.3369 969.109 37.2383C969.088 37.1396 969.056 37.0513 969.029 36.963C968.971 36.7812 968.918 36.6046 968.865 36.4436C968.833 36.2672 968.787 36.0936 968.727 35.9242C968.674 35.7424 968.616 35.5555 968.563 35.3633C968.51 35.1711 968.415 34.9893 968.335 34.792C968.256 34.5946 968.182 34.3921 968.076 34.1999C967.872 33.7871 967.64 33.388 967.382 33.0053C967.239 32.8079 967.117 32.595 966.953 32.4028L966.46 31.8159C965.711 30.9956 964.85 30.2808 963.902 29.6917C962.854 29.0122 961.709 28.4872 960.506 28.1335L959.537 27.8738C959.208 27.8115 958.869 27.7596 958.53 27.7024C958.179 27.6486 957.825 27.6139 957.471 27.5986L956.941 27.5674C956.766 27.5674 956.586 27.5674 956.411 27.5674C956.056 27.5674 955.691 27.5674 955.352 27.6141L954.255 27.7492C953.895 27.8219 953.529 27.9102 953.159 27.9881L952.883 28.0504L952.613 28.1387L952.083 28.3153C950.593 28.8212 949.197 29.5634 947.951 30.5123L947.035 31.2914C946.733 31.5614 946.463 31.8627 946.177 32.1535L945.965 32.3717L945.78 32.5742L945.414 32.9793C945.155 33.2338 944.884 33.4987 944.641 33.7428C943.226 35.1797 941.389 36.1475 939.386 36.5111C937.484 36.7112 935.564 36.3762 933.85 35.5451C932.185 34.7827 930.59 33.8808 929.083 32.8495C927.631 31.8886 926.291 30.9434 925.025 30.1228C923.89 29.3598 922.692 28.6909 921.444 28.1231C920.492 27.6797 919.461 27.4205 918.409 27.3597C917.747 27.3296 917.086 27.4449 916.475 27.6972C916.319 27.7618 916.167 27.8346 916.02 27.9154L915.866 27.9985L916.03 27.9362C916.183 27.873 916.341 27.8209 916.502 27.7803C917.113 27.6114 917.755 27.5742 918.382 27.6713C919.364 27.8429 920.304 28.1953 921.153 28.71C922.301 29.375 923.395 30.1251 924.426 30.9538C925.597 31.8575 926.852 32.8962 928.262 33.9714C929.766 35.16 931.384 36.2036 933.093 37.0876C934.061 37.5712 935.08 37.9475 936.133 38.2095C936.695 38.3338 937.265 38.4206 937.839 38.4692C938.434 38.5072 939.032 38.4933 939.624 38.4276C940.228 38.3509 940.823 38.2223 941.404 38.0433C941.987 37.8535 942.552 37.6155 943.094 37.3317C944.167 36.7565 945.156 36.042 946.034 35.2075C946.341 34.9322 946.611 34.6362 946.897 34.3505L947.3 33.9038L947.496 33.6857L947.681 33.4935C947.925 33.2442 948.153 32.9741 948.407 32.7404L949.191 32.0548C950.253 31.2199 951.439 30.5491 952.708 30.0656L953.175 29.8942L953.408 29.8111L953.646 29.7488C953.964 29.6709 954.276 29.5774 954.594 29.5047L955.542 29.3437C955.86 29.2917 956.178 29.2865 956.491 29.2554C956.644 29.2554 956.803 29.2242 956.957 29.2554H957.423C957.731 29.2465 958.039 29.2587 958.345 29.2917L959.245 29.3904L960.114 29.5722C962.216 30.0605 964.154 31.069 965.745 32.5015L966.238 33.0209C966.393 33.1864 966.54 33.3597 966.677 33.5403C966.95 33.8707 967.201 34.2176 967.43 34.579C967.546 34.7504 967.625 34.9322 967.726 35.0984C967.827 35.2646 967.917 35.4412 967.991 35.6178L968.203 36.1372C968.276 36.2955 968.338 36.4586 968.388 36.6254L968.489 37.1448C968.489 37.2331 968.526 37.3214 968.537 37.4148V37.6953C968.537 37.8823 968.574 38.0693 968.59 38.2666C968.605 38.464 968.59 38.6665 968.59 38.8691C968.59 39.2946 968.561 39.7197 968.505 40.1416C968.505 40.3597 968.425 40.5831 968.388 40.8064L968.319 41.144C968.319 41.2583 968.256 41.3673 968.224 41.4816C967.962 42.4437 967.545 43.3588 966.99 44.1927C966.695 44.6415 966.368 45.0685 966.01 45.4704C965.814 45.6574 965.628 45.8652 965.422 46.0469L965.099 46.3066C964.994 46.4016 964.88 46.4868 964.76 46.5611C963.778 47.2577 962.642 47.7152 961.444 47.8958C960.247 48.0764 959.023 47.975 957.873 47.5999C957.571 47.5006 957.276 47.3826 956.989 47.2467C956.846 47.174 956.697 47.1117 956.56 47.0338L956.146 46.7793C956.005 46.7 955.872 46.6079 955.749 46.504L955.357 46.2131L955.007 45.8963C954.891 45.7872 954.796 45.6626 954.69 45.5483C953.841 44.5665 953.36 43.3293 953.328 42.0425C953.301 41.0973 953.514 40.1604 953.948 39.3158C954.064 39.1132 954.181 38.9107 954.308 38.7185C954.439 38.5361 954.583 38.3626 954.737 38.1991C955.026 37.8684 955.368 37.5859 955.749 37.3629C955.937 37.2482 956.134 37.1476 956.337 37.0617C956.539 36.9817 956.746 36.9141 956.957 36.8591C957.378 36.7499 957.814 36.7044 958.249 36.7241C958.676 36.7362 959.099 36.8097 959.505 36.9422C959.704 37.0084 959.898 37.0865 960.088 37.1759C960.272 37.2688 960.449 37.3747 960.617 37.4927C961.281 37.919 961.779 38.552 962.032 39.2898C962.267 40.0004 962.267 40.7658 962.032 41.4764C961.922 41.8184 961.758 42.141 961.544 42.432C961.352 42.7127 961.107 42.9558 960.824 43.1488C960.279 43.5263 959.619 43.7096 958.954 43.6682C958.638 43.6467 958.328 43.573 958.037 43.45C957.756 43.3391 957.495 43.1848 957.264 42.993C956.841 42.6379 956.559 42.1492 956.464 41.6114C956.381 41.161 956.433 40.6966 956.613 40.2744C956.794 39.8522 957.095 39.4904 957.481 39.2327C957.745 39.0735 958.041 38.9728 958.348 38.9378C958.656 38.9029 958.967 38.9343 959.261 39.0301C959.418 39.083 959.569 39.1527 959.711 39.2379L959.95 39.2119Z" fill="#DC8989"/>
<path d="M975.519 19.2573C970.364 21.4595 963.144 22.0204 962.191 22.088C962.127 22.088 962.085 22.1295 962.085 22.1659L959.568 24.3265C959.49 24.3942 959.428 24.4774 959.385 24.5705C959.343 24.6636 959.321 24.7645 959.321 24.8666C959.321 24.9687 959.343 25.0697 959.385 25.1628C959.428 25.2559 959.49 25.3391 959.568 25.4068L962.063 27.5882C962.063 27.6297 962.106 27.6661 962.169 27.6713C963.123 27.744 969.782 28.279 975.471 30.6214C975.518 30.6214 983.719 26.1859 985.43 25.1835C985.468 25.165 985.5 25.1364 985.522 25.1011C985.544 25.0658 985.556 25.0251 985.556 24.9835C985.556 24.9419 985.544 24.9012 985.522 24.8659C985.5 24.8306 985.468 24.802 985.43 24.7835C983.703 23.7656 975.566 19.2366 975.519 19.2573Z" fill="#4C466D"/>
<path d="M955.394 22.8878C955.027 22.8857 954.668 22.9905 954.362 23.1887C954.056 23.387 953.816 23.6699 953.674 24.0015C953.532 24.3332 953.494 24.6988 953.563 25.0519C953.633 25.4051 953.809 25.73 954.067 25.9855C954.325 26.2409 954.655 26.4155 955.015 26.4871C955.374 26.5587 955.747 26.524 956.087 26.3875C956.426 26.251 956.717 26.0189 956.922 25.7204C957.126 25.4219 957.236 25.0706 957.237 24.7108C957.239 24.2296 957.046 23.7675 956.7 23.4257C956.355 23.084 955.885 22.8905 955.394 22.8878Z" fill="#4C466D"/>
<path d="M938.263 17.559C938.285 17.4348 938.278 17.3073 938.244 17.1859C938.209 17.0645 938.146 16.9524 938.061 16.8578C937.962 16.7568 937.843 16.6767 937.71 16.6222C937.578 16.5678 937.437 16.5401 937.293 16.541C937.15 16.545 937.008 16.5769 936.877 16.6348C936.747 16.6928 936.629 16.7756 936.531 16.8786C936.45 16.9773 936.393 17.0923 936.362 17.2153C936.332 17.3382 936.33 17.4662 936.356 17.5901C936.407 17.8288 936.54 18.0432 936.732 18.1978C936.892 18.3463 937.105 18.4266 937.325 18.4211C937.544 18.4151 937.752 18.3278 937.908 18.177C938.093 18.0155 938.218 17.798 938.263 17.559Z" fill="#4C466D"/>
<path d="M940.228 18.2133C940.276 18.1207 940.304 18.0192 940.309 17.9154C940.315 17.8116 940.298 17.7079 940.26 17.6108C940.169 17.4057 940 17.2435 939.788 17.159C939.576 17.0749 939.339 17.0749 939.126 17.159C939.03 17.2067 938.945 17.274 938.878 17.3564C938.81 17.4388 938.761 17.5344 938.734 17.6368C938.686 17.8343 938.71 18.0421 938.803 18.2237C938.841 18.3106 938.897 18.3891 938.967 18.4542C939.038 18.5194 939.12 18.5699 939.211 18.6029C939.3 18.6413 939.397 18.6612 939.494 18.6612C939.592 18.6612 939.688 18.6413 939.778 18.6029C939.973 18.5334 940.133 18.3943 940.228 18.2133Z" fill="#4C466D"/>
<path d="M941.791 19.1275C941.848 19.0533 941.889 18.9682 941.911 18.8776C941.933 18.787 941.935 18.693 941.918 18.6014C941.901 18.5099 941.864 18.4228 941.811 18.3459C941.758 18.2689 941.688 18.2037 941.608 18.1545C941.527 18.1052 941.437 18.0729 941.343 18.0597C941.249 18.0465 941.153 18.0526 941.062 18.0777C940.97 18.1028 940.885 18.1463 940.812 18.2054C940.739 18.2646 940.679 18.338 940.636 18.4211C940.549 18.5727 940.525 18.7509 940.567 18.9196C940.609 19.0884 940.715 19.235 940.864 19.33C941.015 19.4194 941.196 19.4482 941.369 19.4105C941.541 19.3728 941.692 19.2715 941.791 19.1275Z" fill="#4C466D"/>
<path d="M943.004 19.9689C943.055 19.8596 943.066 19.7362 943.035 19.6198C943.004 19.5034 942.933 19.4012 942.833 19.3307C942.734 19.2602 942.612 19.2257 942.49 19.2332C942.367 19.2406 942.251 19.2896 942.162 19.3716C942.104 19.4239 942.06 19.488 942.031 19.5592C942.002 19.6305 941.989 19.7072 941.994 19.7837C941.999 19.8603 942.021 19.9349 942.059 20.0021C942.096 20.0693 942.149 20.1274 942.212 20.1724C942.276 20.2174 942.348 20.248 942.425 20.2621C942.502 20.2762 942.581 20.2734 942.657 20.2539C942.733 20.2345 942.803 20.1988 942.863 20.1495C942.923 20.1002 942.971 20.0385 943.004 19.9689Z" fill="#4C466D"/>
<path d="M944.026 20.7012C944.077 20.6386 944.107 20.5625 944.113 20.4827C944.118 20.403 944.099 20.3235 944.058 20.2547C944.016 20.1859 943.954 20.1311 943.881 20.0974C943.807 20.0638 943.724 20.053 943.644 20.0664C943.563 20.0798 943.489 20.1168 943.431 20.1724C943.372 20.2281 943.332 20.2999 943.316 20.3783C943.3 20.4567 943.309 20.5379 943.341 20.6113C943.373 20.6848 943.428 20.7469 943.497 20.7895C943.58 20.8437 943.681 20.8647 943.779 20.8483C943.878 20.8319 943.966 20.7793 944.026 20.7012Z" fill="#4C466D"/>
<path d="M934.438 18.364C934.379 18.2773 934.34 18.1787 934.324 18.0753C934.309 17.972 934.317 17.8666 934.348 17.7667C934.38 17.6569 934.437 17.5557 934.515 17.471C934.593 17.3863 934.69 17.3205 934.798 17.2785C934.895 17.2287 935.002 17.2005 935.112 17.1957C935.221 17.191 935.33 17.2098 935.431 17.2509C935.532 17.2921 935.623 17.3545 935.696 17.4337C935.77 17.513 935.825 17.6071 935.858 17.7096C935.914 17.8958 935.904 18.0951 935.83 18.2751C935.756 18.4551 935.622 18.6054 935.45 18.7016C935.267 18.7639 935.068 18.7646 934.885 18.7034C934.702 18.6422 934.544 18.5228 934.438 18.364Z" fill="#4C466D"/>
<path d="M933.013 19.4755C932.956 19.4073 932.913 19.3286 932.886 19.2441C932.86 19.1595 932.851 19.0707 932.859 18.9827C932.868 18.8947 932.894 18.8092 932.936 18.7311C932.979 18.653 933.036 18.5839 933.106 18.5276C933.175 18.4713 933.256 18.429 933.342 18.4032C933.428 18.3773 933.519 18.3683 933.608 18.3767C933.698 18.3852 933.785 18.4109 933.865 18.4523C933.945 18.4938 934.015 18.5503 934.073 18.6185C934.189 18.7562 934.244 18.9335 934.226 19.1112C934.209 19.289 934.12 19.4527 933.98 19.5664C933.839 19.68 933.659 19.7343 933.477 19.7172C933.296 19.7002 933.129 19.6132 933.013 19.4755Z" fill="#4C466D"/>
<path d="M931.938 20.483C931.862 20.4111 931.81 20.3186 931.788 20.2174C931.766 20.1162 931.775 20.0108 931.815 19.9149C931.854 19.819 931.922 19.7368 932.01 19.679C932.097 19.6211 932.2 19.5902 932.306 19.5902C932.411 19.5902 932.515 19.6211 932.602 19.679C932.69 19.7368 932.758 19.819 932.797 19.9149C932.837 20.0108 932.846 20.1162 932.824 20.2174C932.802 20.3186 932.75 20.4111 932.674 20.483C932.575 20.5766 932.443 20.629 932.306 20.629C932.169 20.629 932.037 20.5766 931.938 20.483Z" fill="#4C466D"/>
<path d="M930.963 21.2777C930.896 21.1957 930.866 21.0911 930.878 20.9869C930.89 20.8827 930.943 20.7874 931.027 20.722C931.11 20.6565 931.217 20.6263 931.323 20.638C931.43 20.6497 931.527 20.7023 931.594 20.7843C931.627 20.8249 931.651 20.8714 931.666 20.9213C931.681 20.9712 931.685 21.0235 931.679 21.0751C931.673 21.1267 931.657 21.1766 931.632 21.2221C931.606 21.2675 931.571 21.3076 931.53 21.34C931.489 21.3724 931.441 21.3965 931.39 21.4109C931.339 21.4253 931.286 21.4297 931.234 21.424C931.181 21.4182 931.13 21.4023 931.084 21.3772C931.037 21.3521 930.996 21.3183 930.963 21.2777Z" fill="#4C466D"/>
<path d="M938.263 32.1743C938.285 32.2985 938.278 32.426 938.244 32.5474C938.209 32.6687 938.147 32.7809 938.062 32.8755C937.962 32.9765 937.843 33.0566 937.711 33.111C937.579 33.1655 937.437 33.1931 937.293 33.1923C937.15 33.1873 937.008 33.1545 936.877 33.0957C936.746 33.0368 936.628 32.9532 936.531 32.8495C936.45 32.7509 936.392 32.636 936.362 32.513C936.332 32.3899 936.33 32.2619 936.356 32.138C936.406 31.9002 936.539 31.6871 936.732 31.5355C936.89 31.3875 937.101 31.305 937.32 31.305C937.539 31.305 937.749 31.3875 937.908 31.5355C938.097 31.7023 938.223 31.9278 938.263 32.1743Z" fill="#4C466D"/>
<path d="M940.228 31.5147C940.276 31.6082 940.304 31.7106 940.309 31.8152C940.315 31.9199 940.298 32.0245 940.26 32.1224C940.215 32.2243 940.15 32.3163 940.068 32.3932C939.987 32.47 939.89 32.53 939.785 32.5697C939.679 32.6094 939.566 32.628 939.453 32.6243C939.34 32.6206 939.229 32.5947 939.126 32.5483C939.03 32.5017 938.945 32.4354 938.878 32.3538C938.81 32.2722 938.761 32.1774 938.734 32.0756C938.686 31.8782 938.71 31.6702 938.803 31.4887C938.84 31.4008 938.895 31.3215 938.965 31.2561C939.036 31.1907 939.119 31.1408 939.211 31.1096C939.3 31.0711 939.397 31.0512 939.494 31.0512C939.592 31.0512 939.688 31.0711 939.778 31.1096C939.975 31.1837 940.136 31.3285 940.228 31.5147Z" fill="#4C466D"/>
<path d="M941.791 30.6006C941.889 30.7507 941.921 30.9327 941.882 31.1066C941.843 31.2805 941.735 31.4319 941.582 31.5276C941.428 31.6234 941.243 31.6555 941.065 31.6171C940.888 31.5786 940.734 31.4726 940.636 31.3225C940.559 31.1732 940.542 31.0012 940.588 30.8401C940.634 30.6791 940.74 30.5408 940.884 30.4523C941.029 30.3638 941.202 30.3315 941.37 30.3618C941.538 30.3921 941.688 30.4829 941.791 30.6161V30.6006Z" fill="#4C466D"/>
<path d="M943.004 29.7644C943.084 29.8751 943.116 30.0121 943.094 30.146C943.073 30.2799 942.998 30.4002 942.887 30.4811C942.774 30.5573 942.635 30.5874 942.5 30.5651C942.364 30.5428 942.243 30.4699 942.162 30.3616C942.104 30.3093 942.06 30.2453 942.031 30.174C942.002 30.1027 941.989 30.0261 941.994 29.9495C941.999 29.8729 942.021 29.7984 942.059 29.7312C942.096 29.6639 942.149 29.6058 942.212 29.5608C942.276 29.5159 942.348 29.4852 942.425 29.4711C942.502 29.457 942.581 29.4598 942.657 29.4793C942.733 29.4987 942.803 29.5344 942.863 29.5837C942.923 29.633 942.971 29.6947 943.004 29.7644Z" fill="#4C466D"/>
<path d="M944.026 29.0269C944.065 29.0678 944.094 29.1162 944.112 29.169C944.13 29.2217 944.136 29.2776 944.131 29.3329C944.125 29.3883 944.108 29.4419 944.08 29.4902C944.052 29.5385 944.013 29.5804 943.968 29.6132C943.922 29.6459 943.869 29.6689 943.814 29.6804C943.758 29.692 943.701 29.6919 943.645 29.6801C943.59 29.6684 943.538 29.6454 943.492 29.6124C943.446 29.5795 943.408 29.5375 943.38 29.4891C943.331 29.4048 943.316 29.3059 943.337 29.2112C943.357 29.1164 943.413 29.0325 943.493 28.9754C943.573 28.9183 943.671 28.8919 943.77 28.9014C943.868 28.9109 943.959 28.9556 944.026 29.0269Z" fill="#4C466D"/>
<path d="M934.438 31.364C934.378 31.4515 934.339 31.551 934.324 31.6553C934.308 31.7595 934.316 31.8659 934.348 31.9665C934.38 32.0764 934.437 32.1775 934.515 32.2622C934.593 32.3469 934.69 32.4128 934.799 32.4547C934.895 32.5045 935.002 32.5327 935.112 32.5375C935.221 32.5423 935.33 32.5234 935.431 32.4823C935.532 32.4412 935.623 32.3788 935.697 32.2995C935.77 32.2203 935.825 32.1261 935.858 32.0237C935.915 31.8375 935.905 31.6379 935.831 31.4576C935.757 31.2773 935.623 31.1271 935.45 31.0316C935.268 30.9688 935.069 30.9674 934.886 31.0276C934.703 31.0878 934.545 31.2062 934.438 31.364Z" fill="#4C466D"/>
<path d="M933.013 30.2838C932.956 30.352 932.913 30.4306 932.886 30.5151C932.86 30.5997 932.851 30.6885 932.859 30.7765C932.868 30.8645 932.894 30.95 932.936 31.0281C932.979 31.1062 933.036 31.1754 933.106 31.2316C933.175 31.2879 933.256 31.3302 933.342 31.3561C933.428 31.382 933.519 31.3909 933.608 31.3825C933.698 31.3741 933.785 31.3484 933.865 31.3069C933.945 31.2654 934.015 31.209 934.073 31.1407C934.178 31.0031 934.227 30.8315 934.209 30.6602C934.191 30.489 934.109 30.3305 933.977 30.2163C933.909 30.1586 933.831 30.1146 933.746 30.0868C933.66 30.059 933.571 30.0479 933.481 30.0542C933.391 30.0605 933.304 30.084 933.224 30.1234C933.144 30.1628 933.072 30.2173 933.013 30.2838Z" fill="#4C466D"/>
<path d="M931.938 29.245C931.862 29.3169 931.81 29.4094 931.788 29.5106C931.766 29.6119 931.775 29.7172 931.815 29.8131C931.854 29.909 931.922 29.9912 932.01 30.0491C932.097 30.1069 932.2 30.1378 932.306 30.1378C932.411 30.1378 932.515 30.1069 932.602 30.0491C932.69 29.9912 932.758 29.909 932.797 29.8131C932.837 29.7172 932.846 29.6119 932.824 29.5106C932.802 29.4094 932.75 29.3169 932.674 29.245C932.575 29.1514 932.443 29.0991 932.306 29.0991C932.169 29.0991 932.037 29.1514 931.938 29.245Z" fill="#4C466D"/>
<path d="M930.963 28.4556C930.905 28.5381 930.882 28.639 930.897 28.7379C930.913 28.8368 930.966 28.9263 931.046 28.9883C931.126 29.0504 931.227 29.0802 931.329 29.072C931.43 29.0637 931.525 29.0179 931.593 28.9438C931.631 28.9037 931.659 28.8566 931.677 28.8054C931.694 28.7541 931.701 28.6999 931.697 28.646C931.692 28.592 931.676 28.5396 931.65 28.492C931.624 28.4443 931.588 28.4024 931.545 28.3689C931.502 28.3353 931.452 28.3109 931.398 28.297C931.345 28.2832 931.289 28.2802 931.235 28.2884C931.18 28.2965 931.128 28.3155 931.081 28.3443C931.035 28.3731 930.994 28.4109 930.963 28.4556Z" fill="#4C466D"/>
</svg>
