<svg width="34" height="19" viewBox="0 0 34 19" fill="none" xmlns="http://www.w3.org/2000/svg">
<path d="M4.89986 6.99947H1.63329C1.20011 6.99947 0.784679 7.17155 0.478378 7.47785C0.172078 7.78415 0 8.19958 0 8.63276C0 9.06593 0.172078 9.48136 0.478378 9.78766C0.784679 10.094 1.20011 10.266 1.63329 10.266H4.89986C5.33303 10.266 5.74847 10.094 6.05477 9.78766C6.36107 9.48136 6.53314 9.06593 6.53314 8.63276C6.53314 8.19958 6.36107 7.78415 6.05477 7.47785C5.74847 7.17155 5.33303 6.99947 4.89986 6.99947ZM32.3064 2.36094V2.26294C31.8384 1.69095 31.2472 1.23221 30.5768 0.921086C29.9065 0.609957 29.1744 0.454491 28.4355 0.466327H15.4836C14.2834 0.455547 13.1211 0.885617 12.217 1.67496C11.3726 2.41897 10.8174 3.43679 10.649 4.54954L9.21173 12.716C9.08814 13.4212 9.1206 14.145 9.30684 14.8363C9.49308 15.5277 9.82857 16.1698 10.2897 16.7175C10.7484 17.2634 11.3208 17.7026 11.9668 18.0045C12.6128 18.3063 13.3169 18.4635 14.0299 18.4651H26.9982C28.1632 18.4827 29.2962 18.0847 30.1942 17.3424C31.0922 16.6 31.6963 15.562 31.8981 14.4146L33.3354 6.24816C33.4486 5.5643 33.4154 4.86421 33.238 4.19413C33.0606 3.52405 32.7431 2.89923 32.3064 2.36094ZM27.8312 3.7329L22.278 8.24077C21.9497 8.50539 21.5317 8.63276 21.1116 8.59623C20.6915 8.5597 20.3018 8.36209 20.0241 8.04477L16.2185 3.7329H27.8312ZM28.6152 13.8103C28.5491 14.1938 28.3482 14.541 28.0488 14.7896C27.7493 15.0381 27.371 15.1716 26.9819 15.1659H14.0299C13.7927 15.1639 13.5588 15.1103 13.3445 15.0087C13.1301 14.9072 12.9404 14.7602 12.7886 14.5779C12.6364 14.3966 12.5255 14.1844 12.4634 13.956C12.4014 13.7275 12.3898 13.4883 12.4293 13.255L13.7359 5.85617L17.5742 10.2007C18.4096 11.1503 19.5798 11.74 20.8401 11.8465C22.1003 11.9531 23.353 11.5682 24.336 10.7724L29.9545 6.18283L28.6152 13.8103ZM6.53314 0.466327H1.63329C1.20011 0.466327 0.784679 0.638405 0.478378 0.944705C0.172078 1.25101 0 1.66644 0 2.09961C0 2.53279 0.172078 2.94822 0.478378 3.25452C0.784679 3.56082 1.20011 3.7329 1.63329 3.7329H6.53314C6.96632 3.7329 7.38175 3.56082 7.68805 3.25452C7.99435 2.94822 8.16643 2.53279 8.16643 2.09961C8.16643 1.66644 7.99435 1.25101 7.68805 0.944705C7.38175 0.638405 6.96632 0.466327 6.53314 0.466327Z" fill="white"/>
</svg>
