<svg width="44" height="113" viewBox="0 0 44 113" fill="none" xmlns="http://www.w3.org/2000/svg">
<path d="M24.1763 77.7824C24.2137 77.3829 23.998 77.2178 23.8448 77.0278C22.5543 75.3321 21.2425 73.6543 19.8558 72.0297C18.0691 69.936 15.9408 68.1574 13.5604 66.7688C12.401 66.0573 11.1314 65.542 9.80311 65.2436C9.44664 65.1708 9.06699 65.066 8.6107 65.3785C11.0098 68.3738 13.2556 71.4153 16.0718 73.9561C18.8879 76.4969 22.2032 78.276 25.3847 80.5043C25.2778 79.9982 25.0104 79.794 24.8072 79.5615C24.0212 78.6577 23.155 77.8321 22.2869 77.0118C20.0073 74.8563 17.5583 72.8926 15.1948 70.833C14.9489 70.6199 14.6601 70.4317 14.5656 70.0837C17.8755 72.486 21.0321 75.0729 24.1763 77.7824ZM23.5721 62.385C23.9054 61.4617 24.2333 60.5349 24.5755 59.6134C24.9178 58.6919 25.2689 57.7367 25.645 56.8081C26.0014 55.9203 26.3116 55.0112 26.8659 54.2175C25.5576 58.335 23.6184 62.2767 23.5827 66.7244C23.9713 65.9822 24.1941 65.1779 24.5702 64.4339C25.4311 62.7294 26.5076 61.1528 27.4327 59.4873C28.1145 58.3134 28.6275 57.0499 28.9566 55.7339C29.5591 53.1522 29.2775 50.6043 28.7 48.0653C28.6554 47.8665 28.6839 47.6108 28.3328 47.5096C26.7287 50.8139 24.8839 54.0098 23.9036 57.5822C23.4718 59.1449 23.3591 60.7781 23.5721 62.385ZM14.4106 27.3431C14.3599 27.4193 14.3181 27.5009 14.2858 27.5864C14.2336 27.8059 14.1938 28.0282 14.1664 28.2522C13.7801 31.5201 13.7007 34.8167 13.9293 38.0993C14.1985 41.6504 14.9774 45.0398 16.717 48.1772C16.8079 48.3423 16.8115 48.6264 17.1626 48.6211C17.0164 47.7777 16.8756 46.9574 16.733 46.1353C16.5904 45.3133 16.414 44.4894 16.3035 43.6603C16.193 42.8311 16.1252 41.993 16.0718 41.1568C16.0308 40.3702 15.7777 39.5783 16.0611 38.7864C16.84 41.6042 17.266 44.4859 17.8328 47.3374C18.5974 43.9106 16.2197 30.2692 14.4106 27.3431ZM34.8474 72.351C32.7335 74.6823 32.0366 83.6683 33.7156 86.9104C33.9687 84.0997 33.9331 81.2873 34.4624 78.5245C34.6211 79.8793 34.5533 81.2305 34.4749 82.5799C34.286 85.8397 34.3804 89.0854 34.9526 92.308C34.9936 92.5424 34.9651 92.8229 35.2574 92.9614C35.4534 91.1237 35.6139 89.2967 35.8527 87.4785C36.1949 84.8561 36.5193 82.2354 36.4284 79.5845C36.3589 77.5516 36.2216 75.5275 35.5158 73.5921C35.3536 73.1518 35.2556 72.6706 34.8474 72.351ZM5.05127 43.0548C5.06196 43.1933 5.05127 43.2661 5.07444 43.3158C6.41658 45.6311 7.86388 47.8754 9.62487 49.9172C11.3092 51.881 13.4053 53.2126 15.7973 54.127C15.9755 54.1962 16.1734 54.3916 16.4247 54.1749C14.6298 51.9182 12.3715 50.0912 10.5428 47.8665C12.4072 49.2691 13.9971 50.9701 15.8704 52.6125C14.2145 47.9783 9.47515 43.9976 5.05127 43.053V43.0548Z" fill="#DC8989"/>
<path d="M18.0841 16.7735L18.3033 7.00806V6.81453C18.3033 6.25346 18.0573 5.6338 18.6081 5.18104C19.2854 4.62353 19.9823 4.11572 20.9359 4.12815C23.2334 4.14591 25.5327 4.12815 27.8302 4.12815C30.0635 4.12815 32.2968 4.14236 34.5319 4.15301C34.8207 4.15301 35.1166 4.1317 35.3893 4.26842C35.5118 4.31358 35.6159 4.39774 35.6855 4.50785C35.7551 4.61796 35.7863 4.74786 35.7743 4.87743C35.7635 4.99069 35.7188 5.09812 35.646 5.18581C35.5733 5.2735 35.4758 5.3374 35.3661 5.36925C35.0558 5.46331 34.7306 5.49884 34.4072 5.474L21.3958 5.49531C21.2015 5.49531 21.0054 5.47578 20.8129 5.49531C19.7043 5.59296 19.2088 6.08656 19.1909 7.18917C19.1 12.6045 19.0305 18.0199 18.9343 23.437C18.9111 24.79 18.8238 26.1429 18.756 27.4941C18.7579 27.6231 18.7441 27.7519 18.715 27.8776C18.6348 28.1386 18.6687 28.5417 18.273 28.515C17.9379 28.4937 17.995 28.1351 17.9611 27.8918C17.8114 26.7999 17.8541 25.7008 17.872 24.6071C17.913 21.9953 17.9878 19.3853 18.0502 16.7752L18.0841 16.7735Z" fill="#DC8989"/>
<path d="M26.5932 105.79C27.7767 105.79 29.7178 105.79 31.657 105.79C31.9792 105.796 32.3002 105.831 32.6159 105.896C32.7639 105.925 32.9332 106.015 32.9136 106.218C32.9053 106.299 32.8702 106.374 32.8137 106.433C32.7572 106.492 32.6826 106.531 32.6017 106.542C32.124 106.622 31.6445 106.702 31.1615 106.734C27.1583 107.001 23.1408 106.999 19.1375 106.993C18.3978 106.993 18.2731 106.889 18.2463 106.052C18.2035 104.185 18.2018 102.324 18.2071 100.449C18.2071 98.4194 18.2428 96.3899 18.2606 94.3605C18.2339 94.1036 18.2675 93.8441 18.3586 93.6023C18.3992 93.4957 18.473 93.4049 18.5693 93.3432C18.6655 93.2816 18.7791 93.2523 18.8933 93.2597C19.0081 93.2626 19.1181 93.3066 19.2031 93.3835C19.2882 93.4604 19.3427 93.5651 19.3567 93.6787C19.3892 93.902 19.4011 94.1279 19.3924 94.3534C19.3585 98.0252 19.4067 101.699 19.2534 105.362C19.2195 106.159 19.2231 106.17 20.018 106.129C21.9626 106.042 23.9001 105.933 26.5932 105.79Z" fill="#DC8989"/>
<path d="M36.587 105.999C36.5274 105.999 36.4687 105.984 36.4164 105.955C36.3641 105.927 36.3198 105.886 36.2876 105.836C33.4098 101.407 31.1442 96.613 29.552 91.5818C28.208 87.2762 27.93 84.533 27.684 82.1111C27.4024 79.3431 27.16 76.9621 25.3812 73.0027C24.5707 71.2375 23.6442 69.5275 22.6078 67.8838C21.2496 65.6449 19.9681 63.5302 18.6723 59.6294C17.7402 56.8048 17.0836 53.8972 16.7116 50.9471C16.6998 50.8529 16.726 50.7579 16.7845 50.683C16.843 50.608 16.929 50.5593 17.0236 50.5476C17.1181 50.5358 17.2135 50.5619 17.2887 50.6202C17.3639 50.6785 17.4128 50.7641 17.4246 50.8583C17.7924 53.7629 18.4413 56.6254 19.362 59.4057C20.6311 63.2319 21.8948 65.3129 23.2316 67.5163C24.2821 69.1849 25.2217 70.9204 26.0442 72.7115C27.8694 76.7668 28.1189 79.2117 28.4059 82.0401C28.6483 84.4282 28.9228 87.1341 30.2453 91.3723C31.8164 96.3466 34.0532 101.087 36.8954 105.466C36.9463 105.546 36.9636 105.642 36.9436 105.733C36.9235 105.825 36.8678 105.906 36.7884 105.957C36.727 105.99 36.6569 106.005 36.587 105.999Z" fill="#DC8989"/>
</svg>
