<svg width="194" height="36" viewBox="0 0 194 36" fill="none" xmlns="http://www.w3.org/2000/svg">
<path d="M8.42242 18.077C8.42242 18.077 10.6463 30.0219 25.6695 18.0061C25.6695 18.0061 11.4862 5.90187 8.42242 18.077ZM11.8825 18.012C11.8825 17.8953 11.9172 17.7812 11.9822 17.6842C12.0472 17.5871 12.1395 17.5115 12.2476 17.4668C12.3557 17.4221 12.4746 17.4104 12.5893 17.4332C12.7041 17.456 12.8095 17.5122 12.8922 17.5947C12.9749 17.6773 13.0312 17.7824 13.054 17.8969C13.0769 18.0114 13.0652 18.13 13.0204 18.2379C12.9756 18.3457 12.8998 18.4379 12.8025 18.5027C12.7053 18.5676 12.5909 18.6022 12.4739 18.6022C12.3171 18.6022 12.1666 18.54 12.0557 18.4293C11.9448 18.3187 11.8825 18.1686 11.8825 18.012ZM21.9374 18.012C21.9374 18.012 20.9674 21.6061 14.065 18.0415C14.0709 18.0179 20.506 14.3294 21.9433 17.9884L21.9374 18.012Z" fill="#4C466D"/>
<path d="M26.7874 16.3714C26.9965 16.369 27.2041 16.408 27.3981 16.4861C27.5921 16.5642 27.7686 16.6798 27.9176 16.8262C28.0666 16.9727 28.1851 17.1472 28.2662 17.3395C28.3473 17.5319 28.3895 17.7384 28.3903 17.9471C28.391 18.1548 28.3508 18.3606 28.2719 18.5528C28.1929 18.745 28.0768 18.9198 27.9302 19.0672C27.7835 19.2146 27.6092 19.3318 27.4172 19.412C27.2252 19.4922 27.0192 19.5339 26.8111 19.5347C26.6029 19.5354 26.3966 19.4953 26.204 19.4165C26.0114 19.3378 25.8362 19.2219 25.6885 19.0756C25.5407 18.9293 25.4233 18.7553 25.3429 18.5637C25.2626 18.3721 25.2208 18.1666 25.22 17.9589C25.2185 17.751 25.2581 17.5448 25.3368 17.3523C25.4155 17.1597 25.5316 16.9846 25.6784 16.8371C25.8251 16.6895 25.9998 16.5724 26.1921 16.4924C26.3845 16.4125 26.5908 16.3714 26.7992 16.3714H26.7874Z" fill="#4C466D"/>
<path d="M38.9656 16.3183C39.1738 16.3175 39.3801 16.3576 39.5727 16.4364C39.7653 16.5152 39.9405 16.631 40.0882 16.7773C40.236 16.9237 40.3534 17.0976 40.4337 17.2892C40.5141 17.4808 40.5559 17.6863 40.5567 17.894C40.5574 18.1014 40.5172 18.307 40.4382 18.4988C40.3591 18.6907 40.2429 18.8651 40.0962 19.012C39.9495 19.159 39.7752 19.2756 39.5832 19.3551C39.3912 19.4347 39.1853 19.4756 38.9775 19.4756C38.7693 19.4764 38.563 19.4363 38.3704 19.3575C38.1778 19.2787 38.0026 19.1629 37.8549 19.0166C37.7071 18.8702 37.5897 18.6963 37.5093 18.5047C37.429 18.3131 37.3872 18.1076 37.3864 17.8999C37.3856 17.6922 37.4259 17.4864 37.5048 17.2942C37.5838 17.102 37.6999 16.9272 37.8465 16.7798C37.9932 16.6324 38.1675 16.5152 38.3595 16.435C38.5515 16.3548 38.7575 16.3131 38.9656 16.3124V16.3183Z" fill="#4C466D"/>
<path d="M32.8854 13.7334C32.8854 13.7334 27.4617 17.9235 27.509 17.9471C27.4617 17.9471 32.915 22.1196 32.915 22.1196C33.5478 20.7445 38.3268 17.9117 38.315 17.9058C38.3032 17.8999 33.5242 15.1025 32.8854 13.7334Z" fill="#4C466D"/>
<path d="M174.346 17.9707C184.14 25.7963 185.584 18.0179 185.584 18.0179C183.578 10.0684 174.346 17.9707 174.346 17.9707ZM182.952 18.3425C182.878 18.3425 182.806 18.3207 182.744 18.2799C182.683 18.239 182.635 18.1809 182.607 18.113C182.579 18.0451 182.572 17.9703 182.586 17.8982C182.6 17.8261 182.636 17.7598 182.688 17.7078C182.74 17.6558 182.807 17.6204 182.879 17.6061C182.951 17.5917 183.026 17.5991 183.094 17.6272C183.162 17.6554 183.22 17.703 183.261 17.7642C183.302 17.8253 183.324 17.8972 183.324 17.9707C183.324 18.0693 183.285 18.1639 183.215 18.2336C183.145 18.3034 183.05 18.3425 182.952 18.3425ZM181.899 17.9766C177.404 20.296 176.771 17.9766 176.771 17.9766C177.711 15.5747 181.899 17.9766 181.899 17.9766Z" fill="#4C466D"/>
<path d="M173.618 16.9025C173.345 16.9025 173.082 17.0105 172.888 17.2029C172.694 17.3953 172.585 17.6565 172.583 17.9294C172.582 18.065 172.607 18.1995 172.658 18.3251C172.709 18.4507 172.785 18.565 172.881 18.6611C172.976 18.7572 173.09 18.8334 173.216 18.8851C173.342 18.9368 173.476 18.963 173.612 18.9622C173.748 18.963 173.882 18.937 174.008 18.8857C174.133 18.8345 174.248 18.759 174.344 18.6635C174.44 18.5681 174.516 18.4546 174.568 18.3296C174.62 18.2047 174.647 18.0707 174.647 17.9353C174.646 17.6629 174.537 17.402 174.345 17.2088C174.152 17.0156 173.891 16.9056 173.618 16.9025Z" fill="#4C466D"/>
<path d="M172.583 17.3451H38.9715V18.4665H172.583V17.3451Z" fill="#4C466D"/>
</svg>
