<svg width="44" height="113" viewBox="0 0 44 113" fill="none" xmlns="http://www.w3.org/2000/svg">
<path d="M19.8237 35.2176C19.7863 35.6171 20.002 35.7822 20.1552 35.9722C21.4457 37.6679 22.7575 39.3457 24.1442 40.9703C25.9309 43.064 28.0592 44.8426 30.4396 46.2312C31.599 46.9427 32.8686 47.458 34.1969 47.7564C34.5534 47.8292 34.933 47.934 35.3893 47.6215C32.9902 44.6262 30.7444 41.5847 27.9282 39.0439C25.1121 36.5031 21.7968 34.724 18.6153 32.4957C18.7222 33.0018 18.9896 33.206 19.1928 33.4385C19.9788 34.3423 20.845 35.1679 21.7131 35.9882C23.9927 38.1437 26.4417 40.1074 28.8052 42.167C29.0511 42.3801 29.3399 42.5683 29.4344 42.9163C26.1245 40.514 22.9679 37.9271 19.8237 35.2176ZM20.4279 50.615C20.0946 51.5383 19.7667 52.4651 19.4245 53.3866C19.0822 54.3081 18.7311 55.2633 18.355 56.1919C17.9986 57.0797 17.6884 57.9888 17.1341 58.7825C18.4424 54.665 20.3816 50.7233 20.4173 46.2756C20.0287 47.0178 19.8059 47.8221 19.4298 48.5661C18.5689 50.2706 17.4924 51.8472 16.5673 53.5127C15.8855 54.6866 15.3725 55.9501 15.0434 57.2661C14.4409 59.8478 14.7225 62.3957 15.3 64.9347C15.3446 65.1335 15.3161 65.3892 15.6672 65.4904C17.2713 62.1861 19.1161 58.9902 20.0964 55.4178C20.5282 53.8551 20.6409 52.2219 20.4279 50.615ZM29.5894 85.6569C29.6401 85.5807 29.6819 85.4991 29.7142 85.4136C29.7664 85.1941 29.8062 84.9718 29.8336 84.7478C30.2199 81.4799 30.2993 78.1833 30.0707 74.9007C29.8015 71.3496 29.0226 67.9602 27.283 64.8228C27.1921 64.6577 27.1885 64.3736 26.8374 64.3789C26.9836 65.2223 27.1244 66.0426 27.267 66.8647C27.4096 67.6867 27.586 68.5106 27.6965 69.3397C27.807 70.1689 27.8748 71.007 27.9282 71.8432C27.9692 72.6298 28.2223 73.4217 27.9389 74.2136C27.16 71.3958 26.734 68.5141 26.1672 65.6626C25.4026 69.0894 27.7803 82.7308 29.5894 85.6569ZM9.15257 40.649C11.2665 38.3177 11.9634 29.3317 10.2844 26.0896C10.0313 28.9003 10.0669 31.7127 9.53757 34.4755C9.37893 33.1207 9.44666 31.7695 9.52509 30.4201C9.71402 27.1603 9.61955 23.9146 9.04741 20.692C9.00641 20.4576 9.03493 20.1771 8.74262 20.0386C8.54656 21.8763 8.38614 23.7033 8.1473 25.5215C7.80509 28.1439 7.48069 30.7646 7.57159 33.4155C7.64111 35.4484 7.77835 37.4725 8.48418 39.4079C8.64637 39.8482 8.74441 40.3294 9.15257 40.649ZM38.9487 69.9452C38.938 69.8067 38.9487 69.7339 38.9256 69.6842C37.5834 67.3689 36.1361 65.1246 34.3751 63.0828C32.6908 61.119 30.5947 59.7874 28.2027 58.873C28.0245 58.8038 27.8266 58.6084 27.5753 58.8251C29.3702 61.0818 31.6285 62.9088 33.4572 65.1335C31.5928 63.7309 30.0029 62.0299 28.1296 60.3875C29.7855 65.0217 34.5248 69.0024 38.9487 69.947V69.9452Z" fill="#DC8989"/>
<path d="M25.9159 96.2266L25.6967 105.992V106.186C25.6967 106.747 25.9427 107.366 25.3919 107.819C24.7146 108.377 24.0177 108.884 23.0641 108.872C20.7666 108.854 18.4673 108.872 16.1698 108.872C13.9365 108.872 11.7032 108.858 9.46805 108.847C9.1793 108.847 8.88343 108.868 8.61072 108.732C8.48822 108.686 8.3841 108.602 8.31449 108.492C8.24488 108.382 8.21368 108.252 8.22573 108.123C8.23651 108.009 8.28118 107.902 8.35395 107.814C8.42673 107.727 8.52425 107.663 8.63389 107.631C8.94421 107.537 9.26942 107.501 9.59282 107.526L22.6042 107.505C22.7985 107.505 22.9946 107.524 23.1871 107.505C24.2957 107.407 24.7912 106.913 24.8091 105.811C24.9 100.396 24.9695 94.9801 25.0657 89.563C25.0889 88.21 25.1762 86.8571 25.244 85.5059C25.2421 85.3769 25.2559 85.2481 25.285 85.1224C25.3652 84.8614 25.3313 84.4584 25.727 84.485C26.0621 84.5063 26.005 84.865 26.0389 85.1082C26.1886 86.2001 26.1459 87.2992 26.128 88.3929C26.087 91.0047 26.0122 93.6148 25.9498 96.2248L25.9159 96.2266Z" fill="#DC8989"/>
<path d="M17.4068 7.21039C16.2233 7.21039 14.2822 7.21039 12.343 7.21039C12.0208 7.20419 11.6998 7.16853 11.3841 7.10387C11.2361 7.07546 11.0668 6.98491 11.0864 6.7825C11.0947 6.70147 11.1298 6.62551 11.1863 6.56666C11.2428 6.5078 11.3174 6.46941 11.3983 6.45757C11.876 6.37767 12.3555 6.29777 12.8385 6.26581C16.8417 5.99948 20.8592 6.00126 24.8625 6.00659C25.6022 6.00659 25.7269 6.11134 25.7537 6.94762C25.7965 8.81548 25.7982 10.6762 25.7929 12.5512C25.7929 14.5806 25.7572 16.6101 25.7394 18.6395C25.7661 18.8964 25.7325 19.1559 25.6414 19.3977C25.6008 19.5043 25.527 19.5951 25.4307 19.6568C25.3345 19.7184 25.2209 19.7477 25.1067 19.7403C24.9919 19.7374 24.8819 19.6934 24.7969 19.6165C24.7118 19.5396 24.6573 19.4349 24.6433 19.3213C24.6108 19.098 24.5989 18.8721 24.6076 18.6466C24.6415 14.9748 24.5933 11.3012 24.7466 7.6383C24.7805 6.84109 24.7769 6.83043 23.982 6.87127C22.0374 6.95827 20.0999 7.06658 17.4068 7.21039Z" fill="#DC8989"/>
<path d="M7.41297 7.00092C7.47261 7.00102 7.53128 7.01602 7.5836 7.04456C7.63591 7.0731 7.6802 7.11426 7.71241 7.16426C10.5902 11.5926 12.8558 16.3871 14.448 21.4182C15.792 25.7239 16.07 28.4671 16.316 30.8889C16.5976 33.6569 16.84 36.0379 18.6188 39.9973C19.4293 41.7625 20.3558 43.4725 21.3922 45.1162C22.7504 47.3551 24.0319 49.4698 25.3277 53.3706C26.2598 56.1953 26.9164 59.1028 27.2884 62.053C27.3002 62.1472 27.274 62.2421 27.2155 62.3171C27.157 62.392 27.071 62.4407 26.9764 62.4525C26.8819 62.4642 26.7865 62.4381 26.7113 62.3798C26.6361 62.3216 26.5872 62.2359 26.5754 62.1417C26.2076 59.2371 25.5587 56.3746 24.638 53.5944C23.3689 49.7681 22.1052 47.6872 20.7684 45.4837C19.7179 43.8151 18.7783 42.0796 17.9558 40.2885C16.1306 36.2332 15.8811 33.7883 15.5941 30.9599C15.3517 28.5718 15.0772 25.8659 13.7547 21.6277C12.1836 16.6534 9.94682 11.9127 7.10462 7.53358C7.0537 7.45443 7.03636 7.35839 7.05641 7.26653C7.07645 7.17467 7.13225 7.09447 7.21156 7.04353C7.27303 7.0099 7.34309 6.99508 7.41297 7.00092Z" fill="#DC8989"/>
</svg>
