<svg width="194" height="36" viewBox="0 0 194 36" fill="none" xmlns="http://www.w3.org/2000/svg">
<path d="M185.578 18.077C185.578 18.077 183.354 30.0219 168.33 18.0061C168.33 18.0061 182.514 5.90187 185.578 18.077ZM182.117 18.012C182.117 17.8953 182.083 17.7812 182.018 17.6842C181.953 17.5871 181.86 17.5115 181.752 17.4668C181.644 17.4221 181.525 17.4104 181.411 17.4332C181.296 17.456 181.19 17.5122 181.108 17.5947C181.025 17.6773 180.969 17.7824 180.946 17.8969C180.923 18.0114 180.935 18.13 180.98 18.2379C181.024 18.3457 181.1 18.4379 181.197 18.5027C181.295 18.5676 181.409 18.6022 181.526 18.6022C181.683 18.6022 181.833 18.54 181.944 18.4293C182.055 18.3187 182.117 18.1686 182.117 18.012ZM172.063 18.012C172.063 18.012 173.033 21.6061 179.935 18.0415C179.929 18.0179 173.494 14.3294 172.057 17.9884L172.063 18.012Z" fill="#4C466D"/>
<path d="M167.213 16.3714C167.003 16.369 166.796 16.408 166.602 16.4861C166.408 16.5642 166.231 16.6798 166.082 16.8262C165.933 16.9727 165.815 17.1472 165.734 17.3395C165.653 17.5319 165.611 17.7384 165.61 17.9471C165.609 18.1548 165.649 18.3606 165.728 18.5528C165.807 18.745 165.923 18.9198 166.07 19.0672C166.216 19.2146 166.391 19.3318 166.583 19.412C166.775 19.4922 166.981 19.5339 167.189 19.5347C167.397 19.5354 167.603 19.4953 167.796 19.4165C167.989 19.3378 168.164 19.2219 168.312 19.0756C168.459 18.9293 168.577 18.7553 168.657 18.5637C168.737 18.3721 168.779 18.1666 168.78 17.9589C168.782 17.751 168.742 17.5448 168.663 17.3523C168.585 17.1597 168.468 16.9846 168.322 16.8371C168.175 16.6895 168 16.5724 167.808 16.4924C167.615 16.4125 167.409 16.3714 167.201 16.3714H167.213Z" fill="#4C466D"/>
<path d="M155.034 16.3183C154.826 16.3175 154.62 16.3576 154.427 16.4364C154.235 16.5152 154.06 16.631 153.912 16.7773C153.764 16.9237 153.647 17.0976 153.566 17.2892C153.486 17.4808 153.444 17.6863 153.443 17.894C153.443 18.1014 153.483 18.307 153.562 18.4988C153.641 18.6907 153.757 18.8651 153.904 19.012C154.051 19.159 154.225 19.2756 154.417 19.3551C154.609 19.4347 154.815 19.4756 155.023 19.4756C155.231 19.4764 155.437 19.4363 155.63 19.3575C155.822 19.2787 155.997 19.1629 156.145 19.0166C156.293 18.8702 156.41 18.6963 156.491 18.5047C156.571 18.3131 156.613 18.1076 156.614 17.8999C156.614 17.6922 156.574 17.4864 156.495 17.2942C156.416 17.102 156.3 16.9272 156.154 16.7798C156.007 16.6324 155.833 16.5152 155.641 16.435C155.449 16.3548 155.243 16.3131 155.034 16.3124V16.3183Z" fill="#4C466D"/>
<path d="M161.115 13.7334C161.115 13.7334 166.538 17.9235 166.491 17.9471C166.538 17.9471 161.085 22.1196 161.085 22.1196C160.452 20.7445 155.673 17.9117 155.685 17.9058C155.697 17.8999 160.476 15.1025 161.115 13.7334Z" fill="#4C466D"/>
<path d="M19.6543 17.9707C9.85966 25.7963 8.41649 18.0179 8.41649 18.0179C10.4216 10.0684 19.6543 17.9707 19.6543 17.9707ZM11.0485 18.3425C11.1222 18.3425 11.1942 18.3207 11.2555 18.2799C11.3168 18.239 11.3646 18.1809 11.3928 18.113C11.421 18.0451 11.4283 17.9703 11.4139 17.8982C11.3996 17.8261 11.3641 17.7598 11.312 17.7078C11.2599 17.6558 11.1935 17.6204 11.1212 17.6061C11.0489 17.5917 10.974 17.5991 10.9059 17.6272C10.8378 17.6554 10.7796 17.703 10.7387 17.7642C10.6977 17.8253 10.6759 17.8972 10.6759 17.9707C10.6759 18.0693 10.7151 18.1639 10.785 18.2336C10.8549 18.3034 10.9497 18.3425 11.0485 18.3425ZM12.1013 17.9766C16.5964 20.296 17.2293 17.9766 17.2293 17.9766C16.2889 15.5747 12.1013 17.9766 12.1013 17.9766Z" fill="#4C466D"/>
<path d="M20.3819 16.9025C20.6554 16.9025 20.9177 17.0105 21.1117 17.2029C21.3056 17.3953 21.4154 17.6565 21.4169 17.9294C21.4185 18.065 21.393 18.1995 21.3419 18.3251C21.2908 18.4507 21.2152 18.565 21.1194 18.6611C21.0236 18.7572 20.9095 18.8334 20.7839 18.8851C20.6583 18.9368 20.5236 18.963 20.3878 18.9622C20.2521 18.963 20.1177 18.937 19.9921 18.8857C19.8666 18.8345 19.7524 18.759 19.6562 18.6635C19.56 18.5681 19.4837 18.4546 19.4316 18.3296C19.3795 18.2047 19.3527 18.0707 19.3527 17.9353C19.3542 17.6629 19.463 17.402 19.6555 17.2088C19.848 17.0156 20.1088 16.9056 20.3819 16.9025Z" fill="#4C466D"/>
<path d="M21.4169 17.3451H155.028V18.4665H21.4169V17.3451Z" fill="#4C466D"/>
</svg>
