<svg width="20" height="20" viewBox="0 0 20 20" fill="none" xmlns="http://www.w3.org/2000/svg">
<path d="M18.3251 5.45555C18.318 5.09799 18.2892 4.74119 18.2388 4.38713C18.1791 4.0726 18.0775 3.76747 17.9369 3.47984C17.6285 2.87031 17.1338 2.37502 16.5246 2.06596C16.2386 1.92572 15.9353 1.82424 15.6225 1.76419C15.2658 1.7128 14.9062 1.68345 14.5459 1.6763C14.393 1.67075 14.1951 1.66801 14.1038 1.66801L5.89738 1.66669C5.80643 1.66669 5.60853 1.66944 5.45548 1.67488C5.09792 1.6819 4.74112 1.71071 4.38707 1.76114C4.07254 1.8209 3.76741 1.92242 3.47978 2.06301C2.87026 2.37147 2.37496 2.86623 2.06584 3.47541C1.92565 3.76136 1.82416 4.06471 1.76408 4.37746C1.71273 4.73421 1.68337 5.09378 1.67618 5.45413C1.67074 5.60702 1.66795 5.80488 1.66795 5.89613L1.66663 14.1026C1.66663 14.1935 1.66938 14.3914 1.67482 14.5445C1.68184 14.9021 1.71065 15.2589 1.76108 15.6129C1.82084 15.9274 1.92237 16.2326 2.06295 16.5202C2.37139 17.1297 2.86614 17.625 3.4753 17.9341C3.76127 18.0743 4.06464 18.1758 4.3774 18.2359C4.73414 18.2873 5.09371 18.3166 5.45407 18.3237C5.60691 18.3292 5.80482 18.332 5.89607 18.332L14.1025 18.3334C14.1934 18.3334 14.3914 18.3306 14.5444 18.3252C14.902 18.3181 15.2588 18.2893 15.6129 18.2389C15.9274 18.1791 16.2325 18.0776 16.5201 17.937C17.1296 17.6286 17.6249 17.1338 17.934 16.5246C18.0742 16.2387 18.1757 15.9353 18.2358 15.6226C18.2872 15.2658 18.3166 14.9063 18.3237 14.5459C18.3292 14.393 18.332 14.1952 18.332 14.1039L18.3333 5.89744C18.3333 5.80655 18.3305 5.6086 18.3251 5.45555ZM10.1806 15.7971H10.1781C9.18625 15.797 8.21018 15.5485 7.33903 15.0742L4.18962 15.9001L5.03246 12.8224C4.37948 11.6894 4.11854 10.3727 4.29008 9.07627C4.46163 7.77988 5.05608 6.57629 5.98128 5.65213C6.90647 4.72797 8.11072 4.13485 9.4073 3.96475C10.7039 3.79465 12.0204 4.05706 13.1526 4.7113C14.2849 5.36554 15.1697 6.37506 15.6698 7.58333C16.17 8.7916 16.2575 10.1311 15.9189 11.3942C15.5803 12.6573 14.8344 13.7734 13.7969 14.5694C12.7594 15.3655 11.4883 15.797 10.1806 15.7971Z" fill="#63FF8F"/>
<path d="M10.1825 4.9176C9.30013 4.9174 8.43381 5.15359 7.67364 5.60162C6.91348 6.04965 6.28722 6.69316 5.86001 7.46522C5.4328 8.23727 5.22023 9.10969 5.24441 9.99173C5.26859 10.8738 5.52863 11.7332 5.9975 12.4807L6.11495 12.6675L5.6161 14.489L7.48495 13.9989L7.66526 14.1059C8.42618 14.5565 9.29424 14.7941 10.1785 14.794H10.1805C11.4891 14.7926 12.7436 14.2718 13.6686 13.3461C14.5935 12.4204 15.1131 11.1654 15.1134 9.8568C15.1137 8.54821 14.5945 7.29301 13.67 6.36691C12.7454 5.44081 11.4911 4.91955 10.1825 4.9176H10.1825ZM13.087 11.9759C12.9777 12.1563 12.8323 12.3121 12.6598 12.4336C12.4874 12.555 12.2917 12.6394 12.085 12.6816C11.773 12.7349 11.4529 12.7148 11.15 12.6228C10.8626 12.5335 10.5802 12.4292 10.3038 12.3102C9.27854 11.7957 8.40469 11.0235 7.76793 10.0694C7.42077 9.6276 7.21011 9.09407 7.1618 8.53427C7.15768 8.30315 7.20175 8.0737 7.2912 7.86055C7.38066 7.6474 7.51353 7.45523 7.68136 7.29627C7.73097 7.23969 7.79174 7.19399 7.85986 7.16203C7.92798 7.13007 8.00198 7.11255 8.07719 7.11057C8.17612 7.11057 8.2752 7.11149 8.36167 7.11581C8.45281 7.12034 8.57519 7.08118 8.69569 7.37059C8.81938 7.66767 9.11627 8.39809 9.15334 8.47237C9.17687 8.51126 9.19032 8.5554 9.19249 8.6008C9.19465 8.6462 9.18546 8.69142 9.16575 8.73237C9.12834 8.82157 9.07834 8.90495 9.01729 8.97997C8.94308 9.06664 8.86139 9.17345 8.79466 9.23997C8.7203 9.31398 8.64294 9.39429 8.7295 9.5428C8.95246 9.92441 9.23076 10.2709 9.55534 10.5708C9.90741 10.8839 10.3114 11.1332 10.7491 11.3074C10.8975 11.3817 10.9841 11.3693 11.0707 11.2703C11.1573 11.1713 11.4418 10.837 11.5407 10.6884C11.6396 10.5399 11.7386 10.5646 11.8746 10.6142C12.0107 10.6637 12.7406 11.0227 12.8891 11.097C13.0375 11.1712 13.1364 11.2084 13.1735 11.2703C13.2142 11.5089 13.1841 11.7543 13.087 11.976V11.9759Z" fill="#63FF8F"/>
</svg>
